<svg width="234" height="86" viewBox="0 0 234 86" fill="none" xmlns="http://www.w3.org/2000/svg">
<path d="M129.883 1.616V2.148C127.223 2.3 126.463 3.022 126.463 5.074V23.998C126.463 25.442 127.299 26.126 129.883 26.468V27H117.913V26.468C120.497 26.164 121.295 25.404 121.295 23.998V6.974L111.567 26.962H110.389L100.699 6.404V23.998C100.699 25.404 101.535 26.126 104.157 26.468V27H96.2535V26.468C98.7995 26.164 99.6355 25.442 99.6355 23.998V5.074C99.6355 3.022 98.8755 2.3 96.2155 2.148V1.616H104.157L113.277 20.996L122.663 1.616H129.883ZM131.563 27V26.468C133.881 26.202 134.907 25.67 134.907 23.846V4.732C134.907 2.946 133.881 2.414 131.563 2.148V1.616H143.419V2.148C141.101 2.414 140.075 2.946 140.075 4.732V23.846C140.075 25.67 141.101 26.202 143.419 26.468V27H131.563ZM156.68 1.616C166.826 1.616 170.93 7.316 170.93 13.472C170.93 22.022 164.166 27 157.212 27H145.09V26.468C147.408 26.202 148.434 25.67 148.434 23.846V4.732C148.434 2.946 147.408 2.414 145.09 2.148V1.616H156.68ZM157.212 25.936C162.152 25.936 165.496 21.566 165.496 14.308C165.496 8.608 162 2.68 156.034 2.68H153.602V23.998C153.602 25.442 154.476 25.936 157.212 25.936ZM183.246 27.532C178.268 27.532 174.164 25.404 172.948 21.452L177.432 20.198C178.23 23.96 180.814 26.468 183.816 26.468C186.476 26.468 188.3 24.72 188.3 22.174C188.3 14.764 173.822 17.5 173.822 8.38C173.822 4.01 177.394 1.046 183.132 1.046C187.654 1.046 191.758 3.06 193.012 6.86L188.566 8.114C187.768 4.428 185.336 2.11 182.562 2.11C180.054 2.11 178.344 3.706 178.344 6.024C178.344 12.864 193.164 10.47 193.164 19.818C193.164 24.606 189.25 27.532 183.246 27.532Z" fill="white"/>
<path d="M100.301 55.4585C97.5061 55.4585 95.7381 53.4565 95.7381 50.5705C95.7381 47.6975 97.6101 45.6045 100.457 45.6045C102.498 45.6045 103.954 46.6185 104.474 48.1915L103.031 48.5035C102.628 47.5285 101.718 46.8655 100.47 46.8655C98.4551 46.8655 97.2461 48.4125 97.2461 50.5575C97.2461 52.7155 98.5071 54.2625 100.483 54.2625C102.212 54.2625 103.122 53.1965 103.226 51.4805H100.041V50.2065H104.552V55.2765H103.161V54.9905C103.161 54.7175 103.174 54.4445 103.174 54.2885H103.148C102.771 54.8475 101.653 55.4585 100.301 55.4585ZM109.352 55.4455C107.207 55.4455 105.881 54.0285 105.881 51.8835C105.881 49.8035 107.207 48.2565 109.3 48.2565C111.627 48.2565 112.602 50.0115 112.602 52.2215H107.233C107.272 53.4175 108.143 54.3145 109.378 54.3145C110.47 54.3145 111.081 53.7425 111.393 53.1835L112.55 53.6775C112.017 54.6785 110.951 55.4455 109.352 55.4455ZM107.246 51.1815H111.185C111.12 50.2455 110.496 49.3485 109.287 49.3485C108.13 49.3485 107.389 50.1805 107.246 51.1815ZM114.156 55.2765V49.7905C114.156 49.4395 114.143 48.7765 114.143 48.4385H115.469V48.7245C115.469 48.8805 115.469 49.1795 115.456 49.3485H115.469C115.898 48.7115 116.613 48.2565 117.653 48.2565C119.148 48.2565 120.136 49.1795 120.136 50.9995V55.2765H118.758V51.8575C118.758 50.2715 118.459 49.4395 117.276 49.4395C116.067 49.4395 115.534 50.2715 115.534 51.8965V55.2765H114.156ZM125.107 55.4455C122.962 55.4455 121.636 54.0285 121.636 51.8835C121.636 49.8035 122.962 48.2565 125.055 48.2565C127.382 48.2565 128.357 50.0115 128.357 52.2215H122.988C123.027 53.4175 123.898 54.3145 125.133 54.3145C126.225 54.3145 126.836 53.7425 127.148 53.1835L128.305 53.6775C127.772 54.6785 126.706 55.4455 125.107 55.4455ZM123.001 51.1815H126.94C126.875 50.2455 126.251 49.3485 125.042 49.3485C123.885 49.3485 123.144 50.1805 123.001 51.1815ZM131.5 55.2765L128.939 48.4385H130.434L131.448 51.4805C131.708 52.2735 131.994 53.1055 132.241 53.8855H132.28C132.527 53.1055 132.8 52.2995 133.073 51.4805L134.113 48.4385H135.556L132.956 55.2765H131.5ZM138.577 55.3935C137.108 55.3935 136.12 54.6525 136.12 53.3915C136.12 52.0005 137.173 51.5975 138.694 51.2855L139.981 51.0385C140.54 50.9345 140.696 50.9475 140.696 50.5185C140.696 49.8295 140.163 49.3875 139.24 49.3875C138.239 49.3875 137.771 49.8815 137.667 50.6485L136.354 50.5445C136.497 49.1925 137.641 48.3215 139.24 48.3215C141.021 48.3215 142.035 49.1015 142.035 50.8825V54.9775C142.035 55.0945 142.048 55.2115 142.048 55.2765H140.787V55.0165C140.787 54.8735 140.787 54.7825 140.8 54.6915C140.8 54.6525 140.8 54.6005 140.813 54.5615H140.774C140.293 55.0815 139.604 55.3935 138.577 55.3935ZM138.889 54.4185C140.046 54.4185 140.722 53.6905 140.722 52.5335V52.2475C140.722 52.1565 140.735 52.0395 140.748 51.9485C140.553 52.0135 140.319 52.0395 140.072 52.0915L139.097 52.2865C138.018 52.4945 137.537 52.6505 137.537 53.3655C137.537 54.0415 138.057 54.4185 138.889 54.4185ZM147.269 55.2765V45.7865H148.725V53.9895H153.145V55.2765H147.269ZM154.505 55.2765V45.7865H155.961V53.9895H160.381V55.2765H154.505ZM161.391 55.2765V53.6385H162.938V55.2765H161.391ZM164.928 55.2765V45.7865H167.151L168.711 50.2065C169.114 51.3505 169.491 52.4945 169.894 53.6385H169.933C170.349 52.3645 170.648 51.3895 171.064 50.2325L172.624 45.7865H174.821V55.2765H173.417V50.4535C173.417 49.1405 173.443 48.2305 173.443 46.9825H173.404C173.131 47.8795 172.936 48.3345 172.702 49.0885L170.544 55.2765H169.153L167.216 49.7645C166.865 48.7765 166.566 47.8665 166.319 46.9825H166.267C166.28 47.5935 166.306 48.1655 166.306 48.8545V55.2765H164.928ZM176.816 55.2765V53.6385H178.363V55.2765H176.816ZM96.1671 69.2765V62.4385H97.5451V69.2765H96.1671ZM96.1541 61.3855V59.7865H97.5581V61.3855H96.1541ZM99.5948 69.2765V63.7905C99.5948 63.4395 99.5818 62.7765 99.5818 62.4385H100.908V62.7245C100.908 62.8805 100.908 63.1795 100.895 63.3485H100.908C101.337 62.7115 102.052 62.2565 103.092 62.2565C104.587 62.2565 105.575 63.1795 105.575 64.9995V69.2765H104.197V65.8575C104.197 64.2715 103.898 63.4395 102.715 63.4395C101.506 63.4395 100.973 64.2715 100.973 65.8965V69.2765H99.5948ZM110.834 69.2765V59.7865H112.29V69.2765H110.834ZM114.486 69.2765V63.7905C114.486 63.4395 114.473 62.7765 114.473 62.4385H115.799V62.7245C115.799 62.8805 115.799 63.1795 115.786 63.3485H115.799C116.228 62.7115 116.943 62.2565 117.983 62.2565C119.478 62.2565 120.466 63.1795 120.466 64.9995V69.2765H119.088V65.8575C119.088 64.2715 118.789 63.4395 117.606 63.4395C116.397 63.4395 115.864 64.2715 115.864 65.8965V69.2765H114.486ZM125.205 69.2765H123.476C122.891 68.9515 122.748 68.3665 122.748 67.2095V63.5435H121.604V62.4385H122.748V60.5665H124.1V62.4385H125.504V63.5435H124.1V66.7675C124.1 68.3665 124.49 68.7565 125.205 68.9905V69.2765ZM129.664 69.4455C127.519 69.4455 126.193 68.0285 126.193 65.8835C126.193 63.8035 127.519 62.2565 129.612 62.2565C131.939 62.2565 132.914 64.0115 132.914 66.2215H127.545C127.584 67.4175 128.455 68.3145 129.69 68.3145C130.782 68.3145 131.393 67.7425 131.705 67.1835L132.862 67.6775C132.329 68.6785 131.263 69.4455 129.664 69.4455ZM127.558 65.1815H131.497C131.432 64.2455 130.808 63.3485 129.599 63.3485C128.442 63.3485 127.701 64.1805 127.558 65.1815ZM134.469 69.2765V63.6865C134.469 63.1275 134.469 62.8415 134.456 62.4385H135.756V62.8025C135.756 62.9975 135.756 63.2835 135.743 63.4785H135.769C136.172 62.6985 136.835 62.2955 137.771 62.2955C137.914 62.2955 138.044 62.3085 138.148 62.3345L138.109 63.6475C137.966 63.6085 137.823 63.5955 137.654 63.5955C136.354 63.5955 135.808 64.3495 135.808 65.8965V69.2765H134.469ZM139.395 69.2765V63.7905C139.395 63.4395 139.382 62.7765 139.382 62.4385H140.708V62.7245C140.708 62.8805 140.708 63.1795 140.695 63.3485H140.708C141.137 62.7115 141.852 62.2565 142.892 62.2565C144.387 62.2565 145.375 63.1795 145.375 64.9995V69.2765H143.997V65.8575C143.997 64.2715 143.698 63.4395 142.515 63.4395C141.306 63.4395 140.773 64.2715 140.773 65.8965V69.2765H139.395ZM149.305 69.3935C147.836 69.3935 146.848 68.6525 146.848 67.3915C146.848 66.0005 147.901 65.5975 149.422 65.2855L150.709 65.0385C151.268 64.9345 151.424 64.9475 151.424 64.5185C151.424 63.8295 150.891 63.3875 149.968 63.3875C148.967 63.3875 148.499 63.8815 148.395 64.6485L147.082 64.5445C147.225 63.1925 148.369 62.3215 149.968 62.3215C151.749 62.3215 152.763 63.1015 152.763 64.8825V68.9775C152.763 69.0945 152.776 69.2115 152.776 69.2765H151.515V69.0165C151.515 68.8735 151.515 68.7825 151.528 68.6915C151.528 68.6525 151.528 68.6005 151.541 68.5615H151.502C151.021 69.0815 150.332 69.3935 149.305 69.3935ZM149.617 68.4185C150.774 68.4185 151.45 67.6905 151.45 66.5335V66.2475C151.45 66.1565 151.463 66.0395 151.476 65.9485C151.281 66.0135 151.047 66.0395 150.8 66.0915L149.825 66.2865C148.746 66.4945 148.265 66.6505 148.265 67.3655C148.265 68.0415 148.785 68.4185 149.617 68.4185ZM157.476 69.2765H155.747C155.162 68.9515 155.019 68.3665 155.019 67.2095V63.5435H153.875V62.4385H155.019V60.5665H156.371V62.4385H157.775V63.5435H156.371V66.7675C156.371 68.3665 156.761 68.7565 157.476 68.9905V69.2765ZM159.034 69.2765V62.4385H160.412V69.2765H159.034ZM159.021 61.3855V59.7865H160.425V61.3855H159.021ZM165.465 69.4585C163.385 69.4585 161.981 68.0025 161.981 65.8575C161.981 63.7255 163.398 62.2435 165.491 62.2435C167.545 62.2435 168.975 63.7255 168.975 65.8575C168.975 67.9895 167.545 69.4585 165.465 69.4585ZM165.465 68.3015C166.778 68.3015 167.532 67.3135 167.532 65.8705C167.532 64.4665 166.778 63.4005 165.478 63.4005C164.152 63.4005 163.411 64.4405 163.411 65.8575C163.411 67.3135 164.165 68.3015 165.465 68.3015ZM170.549 69.2765V63.7905C170.549 63.4395 170.536 62.7765 170.536 62.4385H171.862V62.7245C171.862 62.8805 171.862 63.1795 171.849 63.3485H171.862C172.291 62.7115 173.006 62.2565 174.046 62.2565C175.541 62.2565 176.529 63.1795 176.529 64.9995V69.2765H175.151V65.8575C175.151 64.2715 174.852 63.4395 173.669 63.4395C172.46 63.4395 171.927 64.2715 171.927 65.8965V69.2765H170.549ZM180.459 69.3935C178.99 69.3935 178.002 68.6525 178.002 67.3915C178.002 66.0005 179.055 65.5975 180.576 65.2855L181.863 65.0385C182.422 64.9345 182.578 64.9475 182.578 64.5185C182.578 63.8295 182.045 63.3875 181.122 63.3875C180.121 63.3875 179.653 63.8815 179.549 64.6485L178.236 64.5445C178.379 63.1925 179.523 62.3215 181.122 62.3215C182.903 62.3215 183.917 63.1015 183.917 64.8825V68.9775C183.917 69.0945 183.93 69.2115 183.93 69.2765H182.669V69.0165C182.669 68.8735 182.669 68.7825 182.682 68.6915C182.682 68.6525 182.682 68.6005 182.695 68.5615H182.656C182.175 69.0815 181.486 69.3935 180.459 69.3935ZM180.771 68.4185C181.928 68.4185 182.604 67.6905 182.604 66.5335V66.2475C182.604 66.1565 182.617 66.0395 182.63 65.9485C182.435 66.0135 182.201 66.0395 181.954 66.0915L180.979 66.2865C179.9 66.4945 179.419 66.6505 179.419 67.3655C179.419 68.0415 179.939 68.4185 180.771 68.4185ZM185.859 69.2765V59.7865H187.237V69.2765H185.859ZM96.3101 83.2765V73.7865H99.5731C102.758 73.7865 104.266 75.5805 104.266 78.4535C104.266 81.1575 102.94 83.2765 99.6511 83.2765H96.3101ZM97.7661 82.0415H99.4041C101.484 82.0415 102.771 81.0015 102.771 78.5705C102.771 77.1795 102.42 76.1655 101.536 75.5935C100.795 75.1385 99.9241 75.0345 98.5071 75.0345H97.7661V82.0415ZM105.917 83.2765V76.4385H107.295V83.2765H105.917ZM105.904 75.3855V73.7865H107.308V75.3855H105.904ZM111.659 83.4325C110.112 83.4325 109.033 82.8215 108.734 81.5215L109.956 81.1835C110.216 81.9115 110.762 82.3665 111.737 82.3665C112.478 82.3665 113.063 82.0025 113.063 81.4305C113.063 80.8975 112.621 80.6765 111.789 80.4815L111.009 80.2995C109.813 80.0265 108.981 79.5065 108.981 78.3235C108.981 77.0105 110.164 76.2565 111.62 76.2565C113.011 76.2565 114.012 76.8805 114.285 78.0245L113.089 78.3625C112.894 77.7255 112.4 77.3615 111.581 77.3615C110.853 77.3615 110.372 77.7125 110.372 78.1935C110.372 78.7525 110.736 78.9345 111.581 79.1295L112.413 79.3245C113.674 79.6235 114.454 80.1305 114.454 81.2875C114.454 82.6915 113.271 83.4325 111.659 83.4325ZM115.972 85.7205V77.2185C115.972 76.9585 115.959 76.6855 115.959 76.4385H117.298V76.7505C117.298 76.9065 117.285 77.1665 117.285 77.3615H117.311C117.766 76.7245 118.533 76.2695 119.56 76.2695C121.393 76.2695 122.719 77.7255 122.719 79.8575C122.719 82.0155 121.393 83.4325 119.56 83.4325C118.533 83.4325 117.805 83.0685 117.324 82.4055H117.311C117.35 82.8345 117.337 83.2765 117.337 83.6925V85.7205H115.972ZM119.313 82.3015C120.548 82.3015 121.289 81.2875 121.289 79.8965C121.289 78.4795 120.548 77.4525 119.3 77.4525C118.065 77.4525 117.285 78.4275 117.285 79.8835C117.285 81.3135 118.065 82.3015 119.313 82.3015ZM126.679 83.4325C125.223 83.4325 124.209 82.6655 124.209 80.8585V76.4385H125.587V80.5075C125.587 81.7035 126.081 82.3015 127.069 82.3015C128.226 82.3015 128.772 81.4045 128.772 80.0655V76.4385H130.15V82.2625C130.15 82.6265 130.15 82.8995 130.163 83.2765H128.837V82.9775C128.837 82.8345 128.837 82.5615 128.85 82.4055H128.824C128.369 83.0425 127.667 83.4325 126.679 83.4325ZM135.056 83.2765H133.327C132.742 82.9515 132.599 82.3665 132.599 81.2095V77.5435H131.455V76.4385H132.599V74.5665H133.951V76.4385H135.355V77.5435H133.951V80.7675C133.951 82.3665 134.341 82.7565 135.056 82.9905V83.2765ZM139.516 83.4455C137.371 83.4455 136.045 82.0285 136.045 79.8835C136.045 77.8035 137.371 76.2565 139.464 76.2565C141.791 76.2565 142.766 78.0115 142.766 80.2215H137.397C137.436 81.4175 138.307 82.3145 139.542 82.3145C140.634 82.3145 141.245 81.7425 141.557 81.1835L142.714 81.6775C142.181 82.6785 141.115 83.4455 139.516 83.4455ZM137.41 79.1815H141.349C141.284 78.2455 140.66 77.3485 139.451 77.3485C138.294 77.3485 137.553 78.1805 137.41 79.1815ZM150.485 83.4585C148.613 83.4585 147.183 82.5485 146.871 80.8975L148.262 80.5595C148.483 81.6385 149.315 82.2495 150.498 82.2495C151.681 82.2495 152.487 81.6645 152.487 80.7285C152.487 79.9485 151.902 79.5845 150.81 79.2595L150.03 79.0255C148.275 78.5055 147.209 77.8815 147.209 76.3085C147.209 74.6835 148.6 73.6045 150.537 73.6045C152.266 73.6045 153.436 74.4495 153.787 75.8925L152.461 76.2435C152.214 75.3465 151.538 74.8525 150.485 74.8525C149.445 74.8525 148.73 75.3595 148.73 76.1915C148.73 77.0105 149.263 77.2835 150.55 77.6995L151.473 77.9855C152.929 78.4405 153.995 78.9865 153.995 80.5985C153.995 82.4055 152.5 83.4585 150.485 83.4585ZM158.559 83.4455C156.414 83.4455 155.088 82.0285 155.088 79.8835C155.088 77.8035 156.414 76.2565 158.507 76.2565C160.834 76.2565 161.809 78.0115 161.809 80.2215H156.44C156.479 81.4175 157.35 82.3145 158.585 82.3145C159.677 82.3145 160.288 81.7425 160.6 81.1835L161.757 81.6775C161.224 82.6785 160.158 83.4455 158.559 83.4455ZM156.453 79.1815H160.392C160.327 78.2455 159.703 77.3485 158.494 77.3485C157.337 77.3485 156.596 78.1805 156.453 79.1815ZM166.109 83.2765H164.38C163.795 82.9515 163.652 82.3665 163.652 81.2095V77.5435H162.508V76.4385H163.652V74.5665H165.004V76.4385H166.408V77.5435H165.004V80.7675C165.004 82.3665 165.394 82.7565 166.109 82.9905V83.2765ZM170.514 83.2765H168.785C168.2 82.9515 168.057 82.3665 168.057 81.2095V77.5435H166.913V76.4385H168.057V74.5665H169.409V76.4385H170.813V77.5435H169.409V80.7675C169.409 82.3665 169.799 82.7565 170.514 82.9905V83.2765ZM172.072 83.2765V73.7865H173.45V83.2765H172.072ZM178.503 83.4455C176.358 83.4455 175.032 82.0285 175.032 79.8835C175.032 77.8035 176.358 76.2565 178.451 76.2565C180.778 76.2565 181.753 78.0115 181.753 80.2215H176.384C176.423 81.4175 177.294 82.3145 178.529 82.3145C179.621 82.3145 180.232 81.7425 180.544 81.1835L181.701 81.6775C181.168 82.6785 180.102 83.4455 178.503 83.4455ZM176.397 79.1815H180.336C180.271 78.2455 179.647 77.3485 178.438 77.3485C177.281 77.3485 176.54 78.1805 176.397 79.1815ZM183.308 83.2765V77.6215C183.308 77.1405 183.308 76.8935 183.295 76.4385H184.608V76.8415C184.608 76.9845 184.608 77.2185 184.595 77.3615H184.621C184.972 76.7375 185.713 76.2565 186.701 76.2565C187.65 76.2565 188.365 76.6855 188.768 77.5045C189.197 76.7765 189.99 76.2565 191.082 76.2565C192.694 76.2565 193.526 77.2835 193.526 79.1165V83.2765H192.148V79.4285C192.148 78.1805 191.771 77.4395 190.731 77.4395C189.483 77.4395 189.106 78.4795 189.106 79.8055V83.2765H187.728V79.4545C187.728 78.1675 187.325 77.4395 186.324 77.4395C185.115 77.4395 184.686 78.4275 184.686 79.8835V83.2765H183.308ZM198.486 83.4455C196.341 83.4455 195.015 82.0285 195.015 79.8835C195.015 77.8035 196.341 76.2565 198.434 76.2565C200.761 76.2565 201.736 78.0115 201.736 80.2215H196.367C196.406 81.4175 197.277 82.3145 198.512 82.3145C199.604 82.3145 200.215 81.7425 200.527 81.1835L201.684 81.6775C201.151 82.6785 200.085 83.4455 198.486 83.4455ZM196.38 79.1815H200.319C200.254 78.2455 199.63 77.3485 198.421 77.3485C197.264 77.3485 196.523 78.1805 196.38 79.1815ZM203.29 83.2765V77.7905C203.29 77.4395 203.277 76.7765 203.277 76.4385H204.603V76.7245C204.603 76.8805 204.603 77.1795 204.59 77.3485H204.603C205.032 76.7115 205.747 76.2565 206.787 76.2565C208.282 76.2565 209.27 77.1795 209.27 78.9995V83.2765H207.892V79.8575C207.892 78.2715 207.593 77.4395 206.41 77.4395C205.201 77.4395 204.668 78.2715 204.668 79.8965V83.2765H203.29ZM214.008 83.2765H212.279C211.694 82.9515 211.551 82.3665 211.551 81.2095V77.5435H210.407V76.4385H211.551V74.5665H212.903V76.4385H214.307V77.5435H212.903V80.7675C212.903 82.3665 213.293 82.7565 214.008 82.9905V83.2765Z" fill="white"/>
<path d="M49.299 82.3613C47.0952 81.8097 45.1095 81.1031 45.1095 81.1031C45.423 81.0484 45.1368 81.0848 47.1588 80.7065C49.1627 80.3327 49.6217 80.2552 51.3711 80.2278C54.4837 80.1822 54.202 81.5817 54.202 81.5817C54.202 82.4935 53.4886 83.1226 53.4886 83.1226C53.4886 83.1226 51.9027 83.0086 49.299 82.3613ZM22.4033 77.9394C19.1589 77.8436 19.2816 76.4624 19.2816 76.4624C19.2816 75.5506 20.045 74.9899 20.045 74.9899C20.045 74.9899 21.6944 75.072 24.2936 75.6737C26.5019 76.1888 30.1235 77.406 30.1235 77.406C29.8145 77.4653 28.7012 77.675 26.3156 77.8391C24.9842 77.9257 24.4526 77.9622 23.7528 77.9622C23.3939 77.9622 22.9849 77.9622 22.4033 77.9394ZM58.5915 76.704C57.6191 76.5626 56.3967 76.3028 54.9836 75.97C51.5574 75.1768 48.8401 74.2924 48.8401 74.2924C49.2945 74.2286 48.9855 74.1557 51.9436 73.8457C54.82 73.5448 55.3153 73.3078 57.8644 73.3716C62.7856 73.4947 62.4947 75.0948 62.4947 75.0948C62.4947 76.1524 61.3179 76.8954 61.3179 76.8954C61.3179 76.8954 61.2406 76.8954 61.077 76.8954C60.6862 76.8954 59.8365 76.8726 58.6006 76.6949M15.4192 68.7218C12.0157 68.3935 12.2157 67.0442 12.2157 67.0442C12.2157 65.9182 13.279 65.4076 13.279 65.4076C13.279 65.4076 13.279 65.1888 17.3776 65.8407C20.4312 66.3285 26.5337 68.2887 26.5337 68.2887C26.2202 68.3571 22.4078 68.7856 20.0222 68.8448C19.0953 68.8676 18.5909 68.8904 18.0865 68.8904C17.4549 68.8904 16.8324 68.8494 15.4192 68.7172M58.5006 66.5655C52.6525 64.8606 52.2435 64.7421 52.2435 64.7421C52.2435 64.7421 58.4779 63.8166 62.4175 63.689C66.3526 63.5659 67.225 63.7392 68.1475 64.1905C69.0653 64.6372 69.7333 65.3164 69.2244 66.4151C68.72 67.5183 68.1247 67.7918 67.7748 67.965C67.7748 67.965 67.5386 67.9924 67.0842 67.9924C65.8073 67.9924 62.8128 67.8237 58.5006 66.5655ZM10.6298 57.863C7.13098 57.3889 7.1537 55.839 7.1537 55.839C7.1537 54.2845 8.43964 53.8241 8.43964 53.8241C8.43964 53.8241 8.15337 53.6053 12.3838 54.1796C17.005 54.8042 25.3341 57.3889 25.3341 57.3889C25.0206 57.4436 21.2037 57.7582 18.8226 57.936C17.5412 58.0272 16.1599 58.1274 14.6785 58.1274C13.4017 58.1274 12.0521 58.0545 10.6253 57.863M63.7852 55.8983C59.5048 54.8452 54.7064 53.122 54.7064 53.122C55.2198 53.0218 57.2692 52.6206 60.6045 52.2605C63.9306 51.8912 64.7849 51.8183 67.6158 51.8046C73.9001 51.7681 73.5866 53.9426 73.5866 53.9426C73.7274 55.7478 71.51 57.0197 71.51 57.0197C71.51 57.0197 68.1066 56.9559 63.7807 55.8983M9.11669 45.7279C5.49969 45.4544 5.20433 43.5033 5.20433 43.5033C5.20433 41.5522 7.18551 40.5493 7.18551 40.5493C7.18551 40.5493 6.84016 40.2985 11.8294 40.996C16.8233 41.7026 26.4928 45.0487 26.4928 45.0487C26.1202 45.1262 21.8444 45.5683 19.0362 45.8008C17.773 45.9011 16.3689 45.9513 14.8739 45.9513C13.0563 45.9513 11.0979 45.8738 9.11215 45.7233M64.7486 43.362C60.8862 42.4639 55.0199 40.531 55.0199 40.531C57.2056 40.1162 64.9939 39.3822 65.8255 39.3822C69.1017 39.3822 73.4639 39.1133 74.4681 40.8319C75.0498 41.8257 74.4363 42.938 73.7138 43.6264C73.2322 44.0913 72.6914 44.3785 72.6914 44.3785C72.5142 44.3968 72.3188 44.3968 72.0962 44.3968C70.6148 44.3968 68.0884 44.1369 64.7486 43.362ZM6.71748 31.5414C5.75415 29.7407 8.34422 28.1679 8.34422 28.1679C9.58018 28.2318 11.2751 28.2774 16.4916 29.4398C20.1994 30.274 26.82 32.5443 26.82 32.5443C24.5571 32.9226 19.2134 33.3238 15.5237 33.4605C15.2011 33.4697 14.8421 33.4788 14.4468 33.4788C11.7477 33.4788 7.58083 33.146 6.71748 31.5414ZM64.3578 30.5065C60.8998 29.8273 55.5425 28.2454 55.5425 28.2454C59.6729 27.6118 62.6492 27.5662 65.2211 27.3337C69.2925 26.9508 71.7735 27.5844 72.4824 28.5782C73.014 29.3167 72.546 30.1738 72.0416 30.7208C71.6736 31.122 71.2692 31.318 71.2692 31.318C71.1101 31.3271 70.9329 31.3317 70.7421 31.3317C69.4516 31.3317 67.3841 31.1037 64.3532 30.5111M14.7967 21.7129C13.1972 21.5442 11.7022 21.102 11.0979 20.2359C10.1527 18.8865 12.2702 17.3594 12.2702 17.3594C13.3244 17.4186 15.0239 17.405 19.736 18.4352C22.9077 19.1236 28.6785 20.9379 28.6785 20.9379C26.7428 21.2616 21.9489 21.6172 18.9862 21.7402C18.4137 21.7585 17.6185 21.8041 16.7597 21.8041C16.1235 21.8041 15.451 21.7858 14.7967 21.7174M60.9407 19.233C58.2734 18.7862 54.0339 17.4779 54.0339 17.4779C55.597 17.1725 59.3458 16.7576 61.6359 16.7075C63.9352 16.6573 66.707 16.7713 67.4113 17.7058C68.1929 18.7634 66.3526 19.9077 66.3526 19.9077C66.2299 19.9213 66.089 19.9259 65.9391 19.9259C64.9485 19.9259 63.3717 19.6478 60.9407 19.233ZM17.9956 10.8268C17.3595 9.68715 18.7363 8.61587 18.7363 8.61587C19.536 8.66145 21.8035 8.7663 24.4662 9.34525C26.8791 9.86494 31.3594 11.3693 31.3594 11.3693C29.8781 11.6702 26.0612 11.9163 23.8801 12.0303C23.512 12.0485 23.1212 12.0577 22.7213 12.0577C20.7356 12.0577 18.5227 11.7796 17.9956 10.8268ZM55.0517 9.81479C53.1841 9.36804 50.0261 8.3697 50.0261 8.3697C51.1621 8.06427 53.8703 7.6859 55.5379 7.54002C57.1965 7.39415 59.2322 7.46708 59.732 8.41984C60.2318 9.36349 59.1549 10.3846 59.1549 10.3846C59.0413 10.4029 58.905 10.412 58.7505 10.412C57.9417 10.412 56.5876 10.184 55.0472 9.81479M26.6292 4.3672C26.1975 3.45091 27.1245 2.45712 27.1245 2.45712C27.6516 2.47535 29.0375 2.73976 30.6279 3.09989C32.2183 3.45547 34.9446 4.4219 34.9446 4.4219C33.9677 4.72277 31.6457 5.08747 30.2189 5.22422C29.8781 5.26069 29.5146 5.28349 29.1602 5.28349C28.0378 5.28349 26.9609 5.06923 26.6292 4.3672ZM49.5126 0.314551C48.2403 0.69292 44.9005 1.72773 44.1144 1.95567C43.3283 2.1836 41.8378 2.63491 40.9018 2.89475C39.9748 3.15459 38.1754 3.62869 38.0982 3.65149C38.0982 3.65149 35.9625 2.91754 35.3718 2.75343C34.7765 2.58932 33.2088 2.11066 31.6094 1.89641C30.0144 1.68671 28.6694 1.65024 27.5516 1.78244C26.4383 1.92376 24.7298 2.21095 24.0391 2.68961C23.3439 3.16371 22.9894 3.71531 22.8758 4.44014C22.8758 4.44014 22.8213 4.99629 23.303 5.41113C23.7846 5.81685 24.748 6.06758 25.784 6.0539C26.82 6.03567 28.524 5.94449 29.6873 5.78038C30.8551 5.61171 32.9953 5.25614 33.5814 5.14217C34.1631 5.0282 35.6898 4.69542 35.6898 4.69542C35.6898 4.69542 38.7025 5.88523 39.475 6.2089C40.8291 6.78784 43.1192 7.7634 43.4919 7.91383C43.8917 8.07794 45.573 8.78454 45.573 8.78454L35.6898 10.7448C35.6898 10.7448 31.2595 9.24496 28.3195 8.60675C25.3887 7.96398 22.1215 7.52179 18.8317 7.99133C15.5419 8.46543 14.215 9.26775 13.7334 10.4712C13.2472 11.6747 14.6422 12.9056 18.5545 12.9739C18.5545 12.9739 22.4305 13.1061 30.8233 11.9437L32.3637 11.7203C32.3637 11.7203 38.5934 13.9677 40.202 14.5968C41.8469 15.2487 48.4448 17.8289 48.4448 17.8289L33.845 20.2496C33.845 20.2496 29.56 18.8273 25.007 17.6967C20.4494 16.5753 16.3234 16.1969 13.4471 16.557C10.5571 16.9081 6.79927 17.5508 6.2858 19.853C5.76779 22.1642 9.92552 22.7249 11.6341 22.7477C13.3426 22.7659 19.8677 22.5745 23.6665 22.1688C27.4653 21.7539 30.1144 21.3938 30.1144 21.3938C30.1144 21.3938 38.8388 24.5028 40.9336 25.296C43.0511 26.0983 49.499 28.6238 49.499 28.6238L32.5409 31.7738C32.5409 31.7738 25.5159 29.262 21.2673 28.3229C17.0187 27.3839 13.5925 27.0875 10.3754 27.2927C7.16733 27.5024 2.6279 28.3229 1.40103 30.8393C1.40103 30.8393 0.505865 32.8998 3.4231 33.9027C6.34033 34.8965 15.0738 34.3905 15.3329 34.3723C15.5873 34.354 25.2114 33.5244 27.7515 33.0822C27.8015 33.0731 28.0832 33.0366 28.1287 33.032C28.1287 33.032 32.5409 34.6595 34.6811 35.4755C37.4075 36.5376 43.8008 39.2364 44.7642 39.6056C45.782 40.0022 48.3584 41.0416 48.3584 41.0416L32.1092 44.2053C32.1092 44.2053 22.2397 40.531 15.092 39.7424C7.93072 38.9355 0.365002 40.7362 0.0196598 43.6264C-0.321138 46.5165 3.82296 46.8904 8.23971 47.0043C12.6564 47.1183 23.5665 46.1792 27.5334 45.427L48.0086 53.6053L30.537 56.7234C30.537 56.7234 18.4909 52.7801 12.6883 52.8531C6.89015 52.9351 2.85056 53.9426 2.46886 56.3906C2.46886 56.3906 2.30073 59.2398 9.17122 59.0483C16.0417 58.8614 21.1491 58.8249 26.3247 57.8813L26.7382 57.8083C26.7382 57.8083 34.1949 60.3612 38.1027 61.8655C42.0014 63.3699 46.4863 65.0885 46.4863 65.0885L31.0913 67.6778C31.0913 67.6778 19.9041 63.5933 13.588 64.7557C13.588 64.7557 8.33967 65.1295 8.02614 67.6778C7.71715 70.2352 18.1774 69.6654 21.3536 69.3235C24.5299 68.9862 27.5652 68.6488 27.5652 68.6488L43.3101 74.5432L33.4724 76.6082C33.4724 76.6082 25.5295 73.6406 21.0083 74.2788C21.0083 74.2788 15.5555 74.5067 15.6555 77.169C15.6555 77.169 15.5373 78.9924 21.5944 78.7098C27.6516 78.4317 29.9826 77.6978 30.9323 77.716C30.9323 77.716 34.3676 78.9924 35.9216 79.617C37.4756 80.2324 40.9609 81.5635 40.9609 81.5635C40.9609 81.5635 34.5402 83.2183 33.0362 83.6468C31.5367 84.0799 28.1514 84.905 28.2059 85.1147C28.2559 85.3198 30.2098 84.9825 30.9959 84.7774C31.7911 84.5722 41.3744 81.8735 41.7515 81.8507C41.7515 81.8507 47.536 83.9705 50.9849 83.8519C54.4337 83.7425 56.1468 83.2365 56.8375 82.6713C57.5282 82.1105 57.8917 81.4359 57.8235 80.7019C57.7554 79.968 56.2377 79.3161 53.893 79.4802C51.5438 79.6534 49.4899 79.8039 44.3461 80.8159L34.7129 77.0687L44.3461 74.9443C44.3461 74.9443 48.4539 76.2208 50.6395 76.7131C52.8388 77.1917 56.5421 77.985 59.5457 77.6659C62.5538 77.3467 65.8846 76.9912 66.5571 74.5523C66.5571 74.5523 67.3523 71.9493 58.8232 72.6787C50.2987 73.4081 47.8086 73.9323 47.8086 73.9323L33.1725 68.3981L47.3815 65.5672C47.3815 65.5672 55.5061 68.12 59.1004 68.5485C62.6901 68.9725 65.7073 69.3235 70.1423 68.1428C74.5817 66.9667 74.0546 64.7694 73.9183 64.4685C73.782 64.1677 73.2276 63.2423 70.5376 62.8639C67.8475 62.4901 63.7262 62.7636 61.6359 62.987C59.5412 63.2149 51.1848 64.2634 51.003 64.3363C51.003 64.3363 35.2582 58.2049 31.8547 57.161L49.2309 54.0292C49.2309 54.0292 57.1011 56.8054 61.8222 57.5576C66.5389 58.3098 69.4607 58.2049 73.8138 57.2795C78.1624 56.3541 78.7849 54.0566 78.7122 52.999C78.644 51.955 76.7628 50.4005 71.1192 50.7287C65.4801 51.0524 59.523 51.4809 53.4886 52.6525L33.2815 44.6247L50.1261 41.6205L54.3838 42.9243C62.622 45.6276 69.0881 45.5273 69.0881 45.5273C74.9316 45.2812 78.1306 44.0275 79.5801 41.7755C81.0342 39.5236 77.3263 38.5754 77.3263 38.5754C73.8501 37.8688 65.93 38.5252 63.4035 38.7532C60.8725 38.9765 53.6476 40.0797 53.6476 40.0797C51.7392 39.4871 46.4727 37.1394 41.5334 35.1655C37.3938 33.5335 33.7178 32.1978 33.7178 32.1978L50.6077 29.0204C50.6077 29.0204 55.3698 30.4701 60.4545 31.5459C65.5392 32.6218 69.9151 32.5716 73.941 31.4C77.9761 30.2239 77.3263 28.2227 77.3263 28.2227C76.3539 25.7883 70.0287 26.2715 66.2799 26.5177C62.5266 26.7684 54.3383 27.8169 54.3383 27.8169C54.3383 27.8169 50.4441 26.4174 48.3721 25.6197C46.3046 24.8173 35.14 20.669 35.14 20.669L49.4808 18.1617C56.0832 20.0627 59.8592 20.9379 64.5759 20.6917C69.2925 20.441 71.0874 18.9412 71.5691 17.9657C72.0507 16.9901 71.1101 16.3382 69.4107 15.9918C67.7021 15.6408 66.139 15.8413 63.1945 15.9918C60.25 16.1422 52.8615 17.1406 52.8615 17.1406C52.8615 17.1406 48.9037 15.7137 47.8677 15.2897C46.8362 14.8658 36.6168 11.0593 36.6168 11.0593C38.2708 10.7584 46.4227 9.04894 46.4227 9.04894C46.4227 9.04894 51.0485 10.7812 55.5061 11.0867C59.9774 11.383 62.1858 10.1293 62.1858 10.1293C64.1851 8.62954 63.3354 7.80442 63.3354 7.80442C62.413 6.50521 58.9141 6.82887 56.3831 7.02489C53.8567 7.23003 49.1582 8.07794 49.1582 8.07794C48.6311 7.75428 38.9115 3.95236 38.9115 3.95236C38.9115 3.95236 41.3471 3.31871 41.697 3.22753C42.0469 3.1318 44.9596 2.3158 45.991 2.00581C47.0271 1.68215 47.5133 1.56818 48.7992 1.1579C50.0897 0.747624 50.0352 0.825121 50.894 0.547043C51.7528 0.268965 51.8255 0.214261 51.8573 0.141322C51.8891 0.063825 51.4438 0.00912113 51.3438 0.00456247C51.3166 0.00456247 51.2711 3.8147e-06 51.1984 3.8147e-06C50.9667 3.8147e-06 50.4669 0.0410317 49.5126 0.323669" fill="white"/>
</svg>
