<svg width="141" height="93" viewBox="0 0 141 93" fill="none" xmlns="http://www.w3.org/2000/svg">
<path d="M34.884 8.616V9.148C32.224 9.3 31.464 10.022 31.464 12.074V30.998C31.464 32.442 32.3 33.126 34.884 33.468V34H22.914V33.468C25.498 33.164 26.296 32.404 26.296 30.998V13.974L16.568 33.962H15.39L5.7 13.404V30.998C5.7 32.404 6.536 33.126 9.158 33.468V34H1.254V33.468C3.8 33.164 4.636 32.442 4.636 30.998V12.074C4.636 10.022 3.876 9.3 1.216 9.148V8.616H9.158L18.278 27.996L27.664 8.616H34.884ZM36.5634 34V33.468C38.8814 33.202 39.9074 32.67 39.9074 30.846V11.732C39.9074 9.946 38.8814 9.414 36.5634 9.148V8.616H48.4194V9.148C46.1014 9.414 45.0754 9.946 45.0754 11.732V30.846C45.0754 32.67 46.1014 33.202 48.4194 33.468V34H36.5634ZM61.6805 8.616C71.8265 8.616 75.9305 14.316 75.9305 20.472C75.9305 29.022 69.1665 34 62.2125 34H50.0905V33.468C52.4085 33.202 53.4345 32.67 53.4345 30.846V11.732C53.4345 9.946 52.4085 9.414 50.0905 9.148V8.616H61.6805ZM62.2125 32.936C67.1525 32.936 70.4965 28.566 70.4965 21.308C70.4965 15.608 67.0005 9.68 61.0345 9.68H58.6025V30.998C58.6025 32.442 59.4765 32.936 62.2125 32.936ZM88.2461 34.532C83.2681 34.532 79.1641 32.404 77.9481 28.452L82.4321 27.198C83.2301 30.96 85.8141 33.468 88.8161 33.468C91.4761 33.468 93.3001 31.72 93.3001 29.174C93.3001 21.764 78.8221 24.5 78.8221 15.38C78.8221 11.01 82.3941 8.046 88.1321 8.046C92.6541 8.046 96.7581 10.06 98.0121 13.86L93.5661 15.114C92.7681 11.428 90.3361 9.11 87.5621 9.11C85.0541 9.11 83.3441 10.706 83.3441 13.024C83.3441 19.864 98.1641 17.47 98.1641 26.818C98.1641 31.606 94.2501 34.532 88.2461 34.532Z" fill="white"/>
<path d="M5.161 62.4585C2.366 62.4585 0.598 60.4565 0.598 57.5705C0.598 54.6975 2.47 52.6045 5.317 52.6045C7.358 52.6045 8.814 53.6185 9.334 55.1915L7.891 55.5035C7.488 54.5285 6.578 53.8655 5.33 53.8655C3.315 53.8655 2.106 55.4125 2.106 57.5575C2.106 59.7155 3.367 61.2625 5.343 61.2625C7.072 61.2625 7.982 60.1965 8.086 58.4805H4.901V57.2065H9.412V62.2765H8.021V61.9905C8.021 61.7175 8.034 61.4445 8.034 61.2885H8.008C7.631 61.8475 6.513 62.4585 5.161 62.4585ZM14.2116 62.4455C12.0666 62.4455 10.7406 61.0285 10.7406 58.8835C10.7406 56.8035 12.0666 55.2565 14.1596 55.2565C16.4866 55.2565 17.4616 57.0115 17.4616 59.2215H12.0926C12.1316 60.4175 13.0026 61.3145 14.2376 61.3145C15.3296 61.3145 15.9406 60.7425 16.2526 60.1835L17.4096 60.6775C16.8766 61.6785 15.8106 62.4455 14.2116 62.4455ZM12.1056 58.1815H16.0446C15.9796 57.2455 15.3556 56.3485 14.1466 56.3485C12.9896 56.3485 12.2486 57.1805 12.1056 58.1815ZM19.0163 62.2765V56.7905C19.0163 56.4395 19.0033 55.7765 19.0033 55.4385H20.3293V55.7245C20.3293 55.8805 20.3293 56.1795 20.3163 56.3485H20.3293C20.7583 55.7115 21.4733 55.2565 22.5133 55.2565C24.0083 55.2565 24.9963 56.1795 24.9963 57.9995V62.2765H23.6183V58.8575C23.6183 57.2715 23.3193 56.4395 22.1363 56.4395C20.9273 56.4395 20.3943 57.2715 20.3943 58.8965V62.2765H19.0163ZM29.9665 62.4455C27.8215 62.4455 26.4955 61.0285 26.4955 58.8835C26.4955 56.8035 27.8215 55.2565 29.9145 55.2565C32.2415 55.2565 33.2165 57.0115 33.2165 59.2215H27.8475C27.8865 60.4175 28.7575 61.3145 29.9925 61.3145C31.0845 61.3145 31.6955 60.7425 32.0075 60.1835L33.1645 60.6775C32.6315 61.6785 31.5655 62.4455 29.9665 62.4455ZM27.8605 58.1815H31.7995C31.7345 57.2455 31.1105 56.3485 29.9015 56.3485C28.7445 56.3485 28.0035 57.1805 27.8605 58.1815ZM36.3599 62.2765L33.7989 55.4385H35.2939L36.3079 58.4805C36.5679 59.2735 36.8539 60.1055 37.1009 60.8855H37.1399C37.3869 60.1055 37.6599 59.2995 37.9329 58.4805L38.9729 55.4385H40.4159L37.8159 62.2765H36.3599ZM43.4373 62.3935C41.9683 62.3935 40.9803 61.6525 40.9803 60.3915C40.9803 59.0005 42.0333 58.5975 43.5543 58.2855L44.8413 58.0385C45.4003 57.9345 45.5563 57.9475 45.5563 57.5185C45.5563 56.8295 45.0233 56.3875 44.1003 56.3875C43.0993 56.3875 42.6313 56.8815 42.5273 57.6485L41.2143 57.5445C41.3573 56.1925 42.5013 55.3215 44.1003 55.3215C45.8813 55.3215 46.8953 56.1015 46.8953 57.8825V61.9775C46.8953 62.0945 46.9083 62.2115 46.9083 62.2765H45.6473V62.0165C45.6473 61.8735 45.6473 61.7825 45.6603 61.6915C45.6603 61.6525 45.6603 61.6005 45.6733 61.5615H45.6343C45.1533 62.0815 44.4643 62.3935 43.4373 62.3935ZM43.7493 61.4185C44.9063 61.4185 45.5823 60.6905 45.5823 59.5335V59.2475C45.5823 59.1565 45.5953 59.0395 45.6083 58.9485C45.4133 59.0135 45.1793 59.0395 44.9323 59.0915L43.9573 59.2865C42.8783 59.4945 42.3973 59.6505 42.3973 60.3655C42.3973 61.0415 42.9173 61.4185 43.7493 61.4185ZM52.129 62.2765V52.7865H53.585V60.9895H58.005V62.2765H52.129ZM59.3653 62.2765V52.7865H60.8213V60.9895H65.2413V62.2765H59.3653ZM66.2506 62.2765V60.6385H67.7976V62.2765H66.2506ZM69.7882 62.2765V52.7865H72.0112L73.5712 57.2065C73.9742 58.3505 74.3512 59.4945 74.7542 60.6385H74.7932C75.2092 59.3645 75.5082 58.3895 75.9242 57.2325L77.4842 52.7865H79.6812V62.2765H78.2772V57.4535C78.2772 56.1405 78.3032 55.2305 78.3032 53.9825H78.2642C77.9912 54.8795 77.7962 55.3345 77.5622 56.0885L75.4042 62.2765H74.0132L72.0762 56.7645C71.7252 55.7765 71.4262 54.8665 71.1792 53.9825H71.1272C71.1402 54.5935 71.1662 55.1655 71.1662 55.8545V62.2765H69.7882ZM81.6754 62.2765V60.6385H83.2224V62.2765H81.6754ZM1.027 76.2765V69.4385H2.405V76.2765H1.027ZM1.014 68.3855V66.7865H2.418V68.3855H1.014ZM4.45473 76.2765V70.7905C4.45473 70.4395 4.44173 69.7765 4.44173 69.4385H5.76773V69.7245C5.76773 69.8805 5.76773 70.1795 5.75473 70.3485H5.76773C6.19673 69.7115 6.91173 69.2565 7.95173 69.2565C9.44673 69.2565 10.4347 70.1795 10.4347 71.9995V76.2765H9.05673V72.8575C9.05673 71.2715 8.75773 70.4395 7.57473 70.4395C6.36573 70.4395 5.83273 71.2715 5.83273 72.8965V76.2765H4.45473ZM15.6934 76.2765V66.7865H17.1494V76.2765H15.6934ZM19.3463 76.2765V70.7905C19.3463 70.4395 19.3333 69.7765 19.3333 69.4385H20.6593V69.7245C20.6593 69.8805 20.6593 70.1795 20.6463 70.3485H20.6593C21.0883 69.7115 21.8033 69.2565 22.8433 69.2565C24.3383 69.2565 25.3263 70.1795 25.3263 71.9995V76.2765H23.9483V72.8575C23.9483 71.2715 23.6493 70.4395 22.4663 70.4395C21.2573 70.4395 20.7243 71.2715 20.7243 72.8965V76.2765H19.3463ZM30.0644 76.2765H28.3354C27.7504 75.9515 27.6074 75.3665 27.6074 74.2095V70.5435H26.4634V69.4385H27.6074V67.5665H28.9594V69.4385H30.3634V70.5435H28.9594V73.7675C28.9594 75.3665 29.3494 75.7565 30.0644 75.9905V76.2765ZM34.5241 76.4455C32.3791 76.4455 31.0531 75.0285 31.0531 72.8835C31.0531 70.8035 32.3791 69.2565 34.4721 69.2565C36.7991 69.2565 37.7741 71.0115 37.7741 73.2215H32.4051C32.4441 74.4175 33.3151 75.3145 34.5501 75.3145C35.6421 75.3145 36.2531 74.7425 36.5651 74.1835L37.7221 74.6775C37.1891 75.6785 36.1231 76.4455 34.5241 76.4455ZM32.4181 72.1815H36.3571C36.2921 71.2455 35.6681 70.3485 34.4591 70.3485C33.3021 70.3485 32.5611 71.1805 32.4181 72.1815ZM39.3288 76.2765V70.6865C39.3288 70.1275 39.3288 69.8415 39.3158 69.4385H40.6158V69.8025C40.6158 69.9975 40.6158 70.2835 40.6028 70.4785H40.6288C41.0318 69.6985 41.6948 69.2955 42.6308 69.2955C42.7738 69.2955 42.9038 69.3085 43.0078 69.3345L42.9688 70.6475C42.8258 70.6085 42.6828 70.5955 42.5138 70.5955C41.2138 70.5955 40.6678 71.3495 40.6678 72.8965V76.2765H39.3288ZM44.2545 76.2765V70.7905C44.2545 70.4395 44.2415 69.7765 44.2415 69.4385H45.5675V69.7245C45.5675 69.8805 45.5675 70.1795 45.5545 70.3485H45.5675C45.9965 69.7115 46.7115 69.2565 47.7515 69.2565C49.2465 69.2565 50.2345 70.1795 50.2345 71.9995V76.2765H48.8565V72.8575C48.8565 71.2715 48.5575 70.4395 47.3745 70.4395C46.1655 70.4395 45.6325 71.2715 45.6325 72.8965V76.2765H44.2545ZM54.1648 76.3935C52.6958 76.3935 51.7078 75.6525 51.7078 74.3915C51.7078 73.0005 52.7608 72.5975 54.2818 72.2855L55.5688 72.0385C56.1278 71.9345 56.2838 71.9475 56.2838 71.5185C56.2838 70.8295 55.7508 70.3875 54.8278 70.3875C53.8268 70.3875 53.3588 70.8815 53.2548 71.6485L51.9418 71.5445C52.0848 70.1925 53.2288 69.3215 54.8278 69.3215C56.6088 69.3215 57.6228 70.1015 57.6228 71.8825V75.9775C57.6228 76.0945 57.6358 76.2115 57.6358 76.2765H56.3748V76.0165C56.3748 75.8735 56.3748 75.7825 56.3878 75.6915C56.3878 75.6525 56.3878 75.6005 56.4008 75.5615H56.3618C55.8808 76.0815 55.1918 76.3935 54.1648 76.3935ZM54.4768 75.4185C55.6338 75.4185 56.3098 74.6905 56.3098 73.5335V73.2475C56.3098 73.1565 56.3228 73.0395 56.3358 72.9485C56.1408 73.0135 55.9068 73.0395 55.6598 73.0915L54.6848 73.2865C53.6058 73.4945 53.1248 73.6505 53.1248 74.3655C53.1248 75.0415 53.6448 75.4185 54.4768 75.4185ZM62.3359 76.2765H60.6069C60.0219 75.9515 59.8789 75.3665 59.8789 74.2095V70.5435H58.7349V69.4385H59.8789V67.5665H61.2309V69.4385H62.6349V70.5435H61.2309V73.7675C61.2309 75.3665 61.6209 75.7565 62.3359 75.9905V76.2765ZM63.8942 76.2765V69.4385H65.2722V76.2765H63.8942ZM63.8812 68.3855V66.7865H65.2852V68.3855H63.8812ZM70.3249 76.4585C68.2449 76.4585 66.8409 75.0025 66.8409 72.8575C66.8409 70.7255 68.2579 69.2435 70.3509 69.2435C72.4049 69.2435 73.8349 70.7255 73.8349 72.8575C73.8349 74.9895 72.4049 76.4585 70.3249 76.4585ZM70.3249 75.3015C71.6379 75.3015 72.3919 74.3135 72.3919 72.8705C72.3919 71.4665 71.6379 70.4005 70.3379 70.4005C69.0119 70.4005 68.2709 71.4405 68.2709 72.8575C68.2709 74.3135 69.0249 75.3015 70.3249 75.3015ZM75.4088 76.2765V70.7905C75.4088 70.4395 75.3958 69.7765 75.3958 69.4385H76.7218V69.7245C76.7218 69.8805 76.7218 70.1795 76.7088 70.3485H76.7218C77.1508 69.7115 77.8658 69.2565 78.9058 69.2565C80.4008 69.2565 81.3888 70.1795 81.3888 71.9995V76.2765H80.0108V72.8575C80.0108 71.2715 79.7118 70.4395 78.5288 70.4395C77.3198 70.4395 76.7868 71.2715 76.7868 72.8965V76.2765H75.4088ZM85.3191 76.3935C83.8501 76.3935 82.8621 75.6525 82.8621 74.3915C82.8621 73.0005 83.9151 72.5975 85.4361 72.2855L86.7231 72.0385C87.2821 71.9345 87.4381 71.9475 87.4381 71.5185C87.4381 70.8295 86.9051 70.3875 85.9821 70.3875C84.9811 70.3875 84.5131 70.8815 84.4091 71.6485L83.0961 71.5445C83.2391 70.1925 84.3831 69.3215 85.9821 69.3215C87.7631 69.3215 88.7771 70.1015 88.7771 71.8825V75.9775C88.7771 76.0945 88.7901 76.2115 88.7901 76.2765H87.5291V76.0165C87.5291 75.8735 87.5291 75.7825 87.5421 75.6915C87.5421 75.6525 87.5421 75.6005 87.5551 75.5615H87.5161C87.0351 76.0815 86.3461 76.3935 85.3191 76.3935ZM85.6311 75.4185C86.7881 75.4185 87.4641 74.6905 87.4641 73.5335V73.2475C87.4641 73.1565 87.4771 73.0395 87.4901 72.9485C87.2951 73.0135 87.0611 73.0395 86.8141 73.0915L85.8391 73.2865C84.7601 73.4945 84.2791 73.6505 84.2791 74.3655C84.2791 75.0415 84.7991 75.4185 85.6311 75.4185ZM90.7194 76.2765V66.7865H92.0974V76.2765H90.7194ZM1.17 90.2765V80.7865H4.433C7.618 80.7865 9.126 82.5805 9.126 85.4535C9.126 88.1575 7.8 90.2765 4.511 90.2765H1.17ZM2.626 89.0415H4.264C6.344 89.0415 7.631 88.0015 7.631 85.5705C7.631 84.1795 7.28 83.1655 6.396 82.5935C5.655 82.1385 4.784 82.0345 3.367 82.0345H2.626V89.0415ZM10.777 90.2765V83.4385H12.155V90.2765H10.777ZM10.764 82.3855V80.7865H12.168V82.3855H10.764ZM16.5187 90.4325C14.9717 90.4325 13.8927 89.8215 13.5937 88.5215L14.8157 88.1835C15.0757 88.9115 15.6217 89.3665 16.5967 89.3665C17.3377 89.3665 17.9227 89.0025 17.9227 88.4305C17.9227 87.8975 17.4807 87.6765 16.6487 87.4815L15.8687 87.2995C14.6727 87.0265 13.8407 86.5065 13.8407 85.3235C13.8407 84.0105 15.0237 83.2565 16.4797 83.2565C17.8707 83.2565 18.8717 83.8805 19.1447 85.0245L17.9487 85.3625C17.7537 84.7255 17.2597 84.3615 16.4407 84.3615C15.7127 84.3615 15.2317 84.7125 15.2317 85.1935C15.2317 85.7525 15.5957 85.9345 16.4407 86.1295L17.2727 86.3245C18.5337 86.6235 19.3137 87.1305 19.3137 88.2875C19.3137 89.6915 18.1307 90.4325 16.5187 90.4325ZM20.8317 92.7205V84.2185C20.8317 83.9585 20.8187 83.6855 20.8187 83.4385H22.1577V83.7505C22.1577 83.9065 22.1447 84.1665 22.1447 84.3615H22.1707C22.6257 83.7245 23.3927 83.2695 24.4197 83.2695C26.2527 83.2695 27.5787 84.7255 27.5787 86.8575C27.5787 89.0155 26.2527 90.4325 24.4197 90.4325C23.3927 90.4325 22.6647 90.0685 22.1837 89.4055H22.1707C22.2097 89.8345 22.1967 90.2765 22.1967 90.6925V92.7205H20.8317ZM24.1727 89.3015C25.4077 89.3015 26.1487 88.2875 26.1487 86.8965C26.1487 85.4795 25.4077 84.4525 24.1597 84.4525C22.9247 84.4525 22.1447 85.4275 22.1447 86.8835C22.1447 88.3135 22.9247 89.3015 24.1727 89.3015ZM31.5388 90.4325C30.0828 90.4325 29.0688 89.6655 29.0688 87.8585V83.4385H30.4468V87.5075C30.4468 88.7035 30.9408 89.3015 31.9288 89.3015C33.0858 89.3015 33.6318 88.4045 33.6318 87.0655V83.4385H35.0098V89.2625C35.0098 89.6265 35.0098 89.8995 35.0228 90.2765H33.6968V89.9775C33.6968 89.8345 33.6968 89.5615 33.7098 89.4055H33.6838C33.2288 90.0425 32.5268 90.4325 31.5388 90.4325ZM39.916 90.2765H38.187C37.602 89.9515 37.459 89.3665 37.459 88.2095V84.5435H36.315V83.4385H37.459V81.5665H38.811V83.4385H40.215V84.5435H38.811V87.7675C38.811 89.3665 39.201 89.7565 39.916 89.9905V90.2765ZM44.3757 90.4455C42.2307 90.4455 40.9047 89.0285 40.9047 86.8835C40.9047 84.8035 42.2307 83.2565 44.3237 83.2565C46.6507 83.2565 47.6257 85.0115 47.6257 87.2215H42.2567C42.2957 88.4175 43.1667 89.3145 44.4017 89.3145C45.4937 89.3145 46.1047 88.7425 46.4167 88.1835L47.5737 88.6775C47.0407 89.6785 45.9747 90.4455 44.3757 90.4455ZM42.2697 86.1815H46.2087C46.1437 85.2455 45.5197 84.3485 44.3107 84.3485C43.1537 84.3485 42.4127 85.1805 42.2697 86.1815ZM55.3448 90.4585C53.4728 90.4585 52.0428 89.5485 51.7308 87.8975L53.1218 87.5595C53.3428 88.6385 54.1748 89.2495 55.3578 89.2495C56.5408 89.2495 57.3468 88.6645 57.3468 87.7285C57.3468 86.9485 56.7618 86.5845 55.6698 86.2595L54.8898 86.0255C53.1348 85.5055 52.0688 84.8815 52.0688 83.3085C52.0688 81.6835 53.4598 80.6045 55.3968 80.6045C57.1258 80.6045 58.2958 81.4495 58.6468 82.8925L57.3208 83.2435C57.0738 82.3465 56.3978 81.8525 55.3448 81.8525C54.3048 81.8525 53.5898 82.3595 53.5898 83.1915C53.5898 84.0105 54.1228 84.2835 55.4098 84.6995L56.3328 84.9855C57.7888 85.4405 58.8548 85.9865 58.8548 87.5985C58.8548 89.4055 57.3598 90.4585 55.3448 90.4585ZM63.4187 90.4455C61.2737 90.4455 59.9477 89.0285 59.9477 86.8835C59.9477 84.8035 61.2737 83.2565 63.3667 83.2565C65.6937 83.2565 66.6687 85.0115 66.6687 87.2215H61.2997C61.3387 88.4175 62.2097 89.3145 63.4447 89.3145C64.5367 89.3145 65.1477 88.7425 65.4597 88.1835L66.6167 88.6775C66.0837 89.6785 65.0177 90.4455 63.4187 90.4455ZM61.3127 86.1815H65.2517C65.1867 85.2455 64.5627 84.3485 63.3537 84.3485C62.1967 84.3485 61.4557 85.1805 61.3127 86.1815ZM70.9687 90.2765H69.2397C68.6547 89.9515 68.5117 89.3665 68.5117 88.2095V84.5435H67.3677V83.4385H68.5117V81.5665H69.8637V83.4385H71.2677V84.5435H69.8637V87.7675C69.8637 89.3665 70.2537 89.7565 70.9687 89.9905V90.2765ZM75.374 90.2765H73.645C73.06 89.9515 72.917 89.3665 72.917 88.2095V84.5435H71.773V83.4385H72.917V81.5665H74.269V83.4385H75.673V84.5435H74.269V87.7675C74.269 89.3665 74.659 89.7565 75.374 89.9905V90.2765ZM76.9323 90.2765V80.7865H78.3103V90.2765H76.9323ZM83.363 90.4455C81.218 90.4455 79.892 89.0285 79.892 86.8835C79.892 84.8035 81.218 83.2565 83.311 83.2565C85.638 83.2565 86.613 85.0115 86.613 87.2215H81.244C81.283 88.4175 82.154 89.3145 83.389 89.3145C84.481 89.3145 85.092 88.7425 85.404 88.1835L86.561 88.6775C86.028 89.6785 84.962 90.4455 83.363 90.4455ZM81.257 86.1815H85.196C85.131 85.2455 84.507 84.3485 83.298 84.3485C82.141 84.3485 81.4 85.1805 81.257 86.1815ZM88.1676 90.2765V84.6215C88.1676 84.1405 88.1676 83.8935 88.1546 83.4385H89.4676V83.8415C89.4676 83.9845 89.4676 84.2185 89.4546 84.3615H89.4806C89.8316 83.7375 90.5726 83.2565 91.5606 83.2565C92.5096 83.2565 93.2246 83.6855 93.6276 84.5045C94.0566 83.7765 94.8496 83.2565 95.9416 83.2565C97.5536 83.2565 98.3856 84.2835 98.3856 86.1165V90.2765H97.0076V86.4285C97.0076 85.1805 96.6306 84.4395 95.5906 84.4395C94.3426 84.4395 93.9656 85.4795 93.9656 86.8055V90.2765H92.5876V86.4545C92.5876 85.1675 92.1846 84.4395 91.1836 84.4395C89.9746 84.4395 89.5456 85.4275 89.5456 86.8835V90.2765H88.1676ZM103.345 90.4455C101.2 90.4455 99.8744 89.0285 99.8744 86.8835C99.8744 84.8035 101.2 83.2565 103.293 83.2565C105.62 83.2565 106.595 85.0115 106.595 87.2215H101.226C101.265 88.4175 102.136 89.3145 103.371 89.3145C104.463 89.3145 105.074 88.7425 105.386 88.1835L106.543 88.6775C106.01 89.6785 104.944 90.4455 103.345 90.4455ZM101.239 86.1815H105.178C105.113 85.2455 104.489 84.3485 103.28 84.3485C102.123 84.3485 101.382 85.1805 101.239 86.1815ZM108.15 90.2765V84.7905C108.15 84.4395 108.137 83.7765 108.137 83.4385H109.463V83.7245C109.463 83.8805 109.463 84.1795 109.45 84.3485H109.463C109.892 83.7115 110.607 83.2565 111.647 83.2565C113.142 83.2565 114.13 84.1795 114.13 85.9995V90.2765H112.752V86.8575C112.752 85.2715 112.453 84.4395 111.27 84.4395C110.061 84.4395 109.528 85.2715 109.528 86.8965V90.2765H108.15ZM118.868 90.2765H117.139C116.554 89.9515 116.411 89.3665 116.411 88.2095V84.5435H115.267V83.4385H116.411V81.5665H117.763V83.4385H119.167V84.5435H117.763V87.7675C117.763 89.3665 118.153 89.7565 118.868 89.9905V90.2765Z" fill="white"/>
</svg>
