<svg width="236" height="87" viewBox="0 0 236 87" fill="none" xmlns="http://www.w3.org/2000/svg">
<path d="M119.786 0.963999V1.342C117.896 1.45 117.356 1.963 117.356 3.421V16.867C117.356 17.893 117.95 18.379 119.786 18.622V19H111.281V18.622C113.117 18.406 113.684 17.866 113.684 16.867V4.771L106.772 18.973H105.935L99.0495 4.366V16.867C99.0495 17.866 99.6435 18.379 101.507 18.622V19H95.8905V18.622C97.6995 18.406 98.2935 17.893 98.2935 16.867V3.421C98.2935 1.963 97.7535 1.45 95.8635 1.342V0.963999H101.507L107.987 14.734L114.656 0.963999H119.786ZM120.979 19V18.622C122.626 18.433 123.355 18.055 123.355 16.759V3.178C123.355 1.909 122.626 1.531 120.979 1.342V0.963999H129.403V1.342C127.756 1.531 127.027 1.909 127.027 3.178V16.759C127.027 18.055 127.756 18.433 129.403 18.622V19H120.979ZM138.825 0.963999C146.034 0.963999 148.95 5.014 148.95 9.388C148.95 15.463 144.144 19 139.203 19H130.59V18.622C132.237 18.433 132.966 18.055 132.966 16.759V3.178C132.966 1.909 132.237 1.531 130.59 1.342V0.963999H138.825ZM139.203 18.244C142.713 18.244 145.089 15.139 145.089 9.982C145.089 5.932 142.605 1.72 138.366 1.72H136.638V16.867C136.638 17.893 137.259 18.244 139.203 18.244ZM157.701 19.378C154.164 19.378 151.248 17.866 150.384 15.058L153.57 14.167C154.137 16.84 155.973 18.622 158.106 18.622C159.996 18.622 161.292 17.38 161.292 15.571C161.292 10.306 151.005 12.25 151.005 5.77C151.005 2.665 153.543 0.558999 157.62 0.558999C160.833 0.558999 163.749 1.99 164.64 4.69L161.481 5.581C160.914 2.962 159.186 1.315 157.215 1.315C155.433 1.315 154.218 2.449 154.218 4.096C154.218 8.956 164.748 7.255 164.748 13.897C164.748 17.299 161.967 19.378 157.701 19.378Z" fill="white"/>
<path d="M100.314 55.4065C99.0055 55.4065 97.9048 54.9558 97.0121 54.0545C96.1281 53.1532 95.6861 52.0395 95.6861 50.7135C95.6861 49.3962 96.1325 48.2868 97.0251 47.3855C97.9178 46.4928 99.0228 46.0465 100.34 46.0465C101.241 46.0465 102.06 46.2545 102.797 46.6705C103.525 47.0778 104.019 47.6065 104.279 48.2565L103.044 48.8285C102.836 48.3692 102.481 48.0008 101.978 47.7235C101.475 47.4462 100.921 47.3075 100.314 47.3075C99.3695 47.3075 98.5851 47.6325 97.9611 48.2825C97.3371 48.9238 97.0251 49.7342 97.0251 50.7135C97.0251 51.7015 97.3458 52.5205 97.9871 53.1705C98.6285 53.8205 99.4301 54.1455 100.392 54.1455C101.241 54.1455 101.956 53.8768 102.537 53.3395C103.126 52.8022 103.447 52.1175 103.499 51.2855C103.274 51.3982 102.827 51.4545 102.16 51.4545H100.47V50.3235H104.656C104.682 50.5835 104.695 50.8262 104.695 51.0515C104.695 52.3255 104.288 53.3698 103.473 54.1845C102.65 54.9992 101.597 55.4065 100.314 55.4065ZM109.277 55.4195C108.229 55.4195 107.362 55.0815 106.677 54.4055C105.984 53.7208 105.637 52.8498 105.637 51.7925C105.637 50.7612 105.98 49.8988 106.664 49.2055C107.34 48.5122 108.172 48.1655 109.16 48.1655C110.105 48.1655 110.898 48.4818 111.539 49.1145C112.181 49.7558 112.501 50.5445 112.501 51.4805C112.501 51.7318 112.488 51.9225 112.462 52.0525H106.885C106.946 52.7198 107.197 53.2528 107.639 53.6515C108.064 54.0502 108.597 54.2495 109.238 54.2495C110.382 54.2495 111.05 53.8118 111.24 52.9365L112.527 53.0665C112.146 54.6352 111.063 55.4195 109.277 55.4195ZM111.149 50.9735C111.132 50.4882 110.937 50.0895 110.564 49.7775C110.192 49.4568 109.719 49.2965 109.147 49.2965C108.593 49.2965 108.12 49.4482 107.73 49.7515C107.349 50.0548 107.093 50.4622 106.963 50.9735H111.149ZM119.1 51.4155C119.1 50.8175 118.922 50.3235 118.567 49.9335C118.212 49.5522 117.752 49.3615 117.189 49.3615C115.889 49.3615 115.213 50.1848 115.161 51.8315V55.2765H113.9V48.3085H115.031V49.5695C115.594 48.6335 116.405 48.1655 117.462 48.1655C118.32 48.1655 119.018 48.4645 119.555 49.0625C120.084 49.6518 120.348 50.4102 120.348 51.3375V55.2765H119.1V51.4155ZM125.274 55.4195C124.225 55.4195 123.358 55.0815 122.674 54.4055C121.98 53.7208 121.634 52.8498 121.634 51.7925C121.634 50.7612 121.976 49.8988 122.661 49.2055C123.337 48.5122 124.169 48.1655 125.157 48.1655C126.101 48.1655 126.894 48.4818 127.536 49.1145C128.177 49.7558 128.498 50.5445 128.498 51.4805C128.498 51.7318 128.485 51.9225 128.459 52.0525H122.882C122.942 52.7198 123.194 53.2528 123.636 53.6515C124.06 54.0502 124.593 54.2495 125.235 54.2495C126.379 54.2495 127.046 53.8118 127.237 52.9365L128.524 53.0665C128.142 54.6352 127.059 55.4195 125.274 55.4195ZM127.146 50.9735C127.128 50.4882 126.933 50.0895 126.561 49.7775C126.188 49.4568 125.716 49.2965 125.144 49.2965C124.589 49.2965 124.117 49.4482 123.727 49.7515C123.345 50.0548 123.09 50.4622 122.96 50.9735H127.146ZM128.861 48.3085H130.213L131.773 52.1175C132.033 52.7848 132.228 53.3828 132.358 53.9115C132.488 53.3828 132.683 52.7848 132.943 52.1175L134.49 48.3085H135.855L132.995 55.2765H131.721L128.861 48.3085ZM141.147 54.1065C140.653 54.9818 139.873 55.4195 138.807 55.4195C138.087 55.4195 137.515 55.2332 137.091 54.8605C136.666 54.4965 136.454 54.0112 136.454 53.4045C136.454 52.6332 136.783 52.0612 137.442 51.6885C137.866 51.4458 138.62 51.2292 139.704 51.0385C140.215 50.9432 140.644 50.8435 140.991 50.7395C140.956 50.3235 140.783 49.9768 140.471 49.6995C140.15 49.4222 139.76 49.2835 139.301 49.2835C138.807 49.2835 138.412 49.4092 138.118 49.6605C137.814 49.9118 137.654 50.2542 137.637 50.6875L136.35 50.5315C136.428 49.8122 136.731 49.2358 137.26 48.8025C137.788 48.3778 138.469 48.1655 139.301 48.1655C140.193 48.1655 140.93 48.4298 141.511 48.9585C142.091 49.4958 142.382 50.1762 142.382 50.9995V53.3915C142.382 54.3448 142.434 54.9732 142.538 55.2765H141.147V54.1065ZM137.78 53.3265C137.78 53.9852 138.178 54.3145 138.976 54.3145C139.574 54.3145 140.063 54.0762 140.445 53.5995C140.817 53.1315 141.004 52.5205 141.004 51.7665V51.7535C140.813 51.8922 140.375 52.0178 139.691 52.1305C139.032 52.2518 138.573 52.3818 138.313 52.5205C137.957 52.7025 137.78 52.9712 137.78 53.3265ZM147.278 46.1765H148.877L151.659 51.9225C151.954 52.5725 152.184 53.2052 152.348 53.8205C152.513 53.2052 152.743 52.5725 153.037 51.9225L155.819 46.1765H157.418V55.2765H156.105V50.0115C156.105 49.2922 156.136 48.6075 156.196 47.9575C155.98 48.5728 155.728 49.2098 155.442 49.8685L152.881 55.2765H151.802L149.254 49.8685C148.968 49.2098 148.721 48.5728 148.513 47.9575C148.565 48.6075 148.591 49.2922 148.591 50.0115V55.2765H147.278V46.1765ZM163.732 54.1065C163.238 54.9818 162.458 55.4195 161.392 55.4195C160.672 55.4195 160.1 55.2332 159.676 54.8605C159.251 54.4965 159.039 54.0112 159.039 53.4045C159.039 52.6332 159.368 52.0612 160.027 51.6885C160.451 51.4458 161.205 51.2292 162.289 51.0385C162.8 50.9432 163.229 50.8435 163.576 50.7395C163.541 50.3235 163.368 49.9768 163.056 49.6995C162.735 49.4222 162.345 49.2835 161.886 49.2835C161.392 49.2835 160.997 49.4092 160.703 49.6605C160.399 49.9118 160.239 50.2542 160.222 50.6875L158.935 50.5315C159.013 49.8122 159.316 49.2358 159.845 48.8025C160.373 48.3778 161.054 48.1655 161.886 48.1655C162.778 48.1655 163.515 48.4298 164.096 48.9585C164.676 49.4958 164.967 50.1762 164.967 50.9995V53.3915C164.967 54.3448 165.019 54.9732 165.123 55.2765H163.732V54.1065ZM160.365 53.3265C160.365 53.9852 160.763 54.3145 161.561 54.3145C162.159 54.3145 162.648 54.0762 163.03 53.5995C163.402 53.1315 163.589 52.5205 163.589 51.7665V51.7535C163.398 51.8922 162.96 52.0178 162.276 52.1305C161.617 52.2518 161.158 52.3818 160.898 52.5205C160.542 52.7025 160.365 52.9712 160.365 53.3265ZM169.13 55.4195C168.298 55.4195 167.614 55.2115 167.076 54.7955C166.556 54.3882 166.249 53.8465 166.153 53.1705L167.505 53.0535C167.566 53.4435 167.752 53.7512 168.064 53.9765C168.359 54.1932 168.736 54.3015 169.195 54.3015C169.611 54.3015 169.936 54.2105 170.17 54.0285C170.404 53.8552 170.521 53.6212 170.521 53.3265C170.521 52.8325 170.218 52.5118 169.611 52.3645L168.22 52.0265C167.076 51.7405 166.504 51.1512 166.504 50.2585C166.504 49.6345 166.738 49.1275 167.206 48.7375C167.674 48.3562 168.277 48.1655 169.013 48.1655C169.715 48.1655 170.305 48.3345 170.781 48.6725C171.258 49.0105 171.561 49.4785 171.691 50.0765L170.417 50.2455C170.27 49.6042 169.806 49.2835 169.026 49.2835C168.671 49.2835 168.381 49.3658 168.155 49.5305C167.947 49.6865 167.843 49.8815 167.843 50.1155C167.843 50.5488 168.168 50.8435 168.818 50.9995L170.274 51.3635C171.34 51.6235 171.873 52.2128 171.873 53.1315C171.873 53.8335 171.631 54.3882 171.145 54.7955C170.651 55.2115 169.98 55.4195 169.13 55.4195ZM175.813 55.3675C175.129 55.3675 174.6 55.1638 174.227 54.7565C173.837 54.3405 173.642 53.7468 173.642 52.9755V49.3745H172.342V48.3085H173.642V46.4625H174.903V48.3085H176.697V49.3745H174.903V52.8715C174.903 53.7988 175.276 54.2625 176.021 54.2625C176.229 54.2625 176.463 54.2062 176.723 54.0935L176.827 55.1595C176.55 55.2982 176.212 55.3675 175.813 55.3675ZM180.955 55.4195C179.907 55.4195 179.04 55.0815 178.355 54.4055C177.662 53.7208 177.315 52.8498 177.315 51.7925C177.315 50.7612 177.658 49.8988 178.342 49.2055C179.018 48.5122 179.85 48.1655 180.838 48.1655C181.783 48.1655 182.576 48.4818 183.217 49.1145C183.859 49.7558 184.179 50.5445 184.179 51.4805C184.179 51.7318 184.166 51.9225 184.14 52.0525H178.563C178.624 52.7198 178.875 53.2528 179.317 53.6515C179.742 54.0502 180.275 54.2495 180.916 54.2495C182.06 54.2495 182.728 53.8118 182.918 52.9365L184.205 53.0665C183.824 54.6352 182.741 55.4195 180.955 55.4195ZM182.827 50.9735C182.81 50.4882 182.615 50.0895 182.242 49.7775C181.87 49.4568 181.397 49.2965 180.825 49.2965C180.271 49.2965 179.798 49.4482 179.408 49.7515C179.027 50.0548 178.771 50.4622 178.641 50.9735H182.827ZM185.578 48.3085H186.722V49.5825C187.146 48.6378 187.822 48.1655 188.75 48.1655C189.816 48.1655 190.431 48.7982 190.596 50.0635L189.348 50.2975C189.278 49.6822 188.958 49.3745 188.386 49.3745C187.978 49.3745 187.627 49.5998 187.333 50.0505C187.003 50.5532 186.839 51.2205 186.839 52.0525V55.2765H185.578V48.3085ZM196.198 56.8365C195.505 56.2038 194.946 55.3632 194.521 54.3145C194.096 53.2832 193.884 52.2562 193.884 51.2335C193.884 50.2108 194.096 49.1838 194.521 48.1525C194.946 47.1125 195.505 46.2718 196.198 45.6305H197.394C195.895 47.3378 195.145 49.2055 195.145 51.2335C195.145 53.2615 195.895 55.1292 197.394 56.8365H196.198ZM198.466 46.1765H199.779V54.0285H204.043V55.2765H198.466V46.1765ZM205.258 46.1765H206.571V54.0285H210.835V55.2765H205.258V46.1765ZM211.764 53.7295H213.441V55.2765H211.764V53.7295ZM218.156 46.1765H219.755L222.537 51.9225C222.832 52.5725 223.062 53.2052 223.226 53.8205C223.391 53.2052 223.621 52.5725 223.915 51.9225L226.697 46.1765H228.296V55.2765H226.983V50.0115C226.983 49.2922 227.014 48.6075 227.074 47.9575C226.858 48.5728 226.606 49.2098 226.32 49.8685L223.759 55.2765H222.68L220.132 49.8685C219.846 49.2098 219.599 48.5728 219.391 47.9575C219.443 48.6075 219.469 49.2922 219.469 50.0115V55.2765H218.156V46.1765ZM230.071 53.7295H231.748V55.2765H230.071V53.7295ZM232.365 56.8365C233.864 55.1205 234.614 53.2528 234.614 51.2335C234.614 49.2055 233.864 47.3378 232.365 45.6305H233.548C234.241 46.2632 234.804 47.1038 235.238 48.1525C235.662 49.1838 235.875 50.2108 235.875 51.2335C235.875 52.2562 235.662 53.2832 235.238 54.3145C234.804 55.3545 234.241 56.1952 233.548 56.8365H232.365ZM96.1671 60.1765H97.4801V69.2765H96.1671V60.1765ZM104.564 65.4155C104.564 64.8175 104.386 64.3235 104.031 63.9335C103.676 63.5522 103.216 63.3615 102.653 63.3615C101.353 63.3615 100.677 64.1848 100.625 65.8315V69.2765H99.3639V62.3085H100.495V63.5695C101.058 62.6335 101.869 62.1655 102.926 62.1655C103.784 62.1655 104.482 62.4645 105.019 63.0625C105.548 63.6518 105.812 64.4102 105.812 65.3375V69.2765H104.564V65.4155ZM110.064 69.3675C109.38 69.3675 108.851 69.1638 108.478 68.7565C108.088 68.3405 107.893 67.7468 107.893 66.9755V63.3745H106.593V62.3085H107.893V60.4625H109.154V62.3085H110.948V63.3745H109.154V66.8715C109.154 67.7988 109.527 68.2625 110.272 68.2625C110.48 68.2625 110.714 68.2062 110.974 68.0935L111.078 69.1595C110.801 69.2982 110.463 69.3675 110.064 69.3675ZM115.206 69.4195C114.157 69.4195 113.291 69.0815 112.606 68.4055C111.913 67.7208 111.566 66.8498 111.566 65.7925C111.566 64.7612 111.908 63.8988 112.593 63.2055C113.269 62.5122 114.101 62.1655 115.089 62.1655C116.034 62.1655 116.827 62.4818 117.468 63.1145C118.109 63.7558 118.43 64.5445 118.43 65.4805C118.43 65.7318 118.417 65.9225 118.391 66.0525H112.814C112.875 66.7198 113.126 67.2528 113.568 67.6515C113.993 68.0502 114.526 68.2495 115.167 68.2495C116.311 68.2495 116.978 67.8118 117.169 66.9365L118.456 67.0665C118.075 68.6352 116.991 69.4195 115.206 69.4195ZM117.078 64.9735C117.061 64.4882 116.866 64.0895 116.493 63.7775C116.12 63.4568 115.648 63.2965 115.076 63.2965C114.521 63.2965 114.049 63.4482 113.659 63.7515C113.278 64.0548 113.022 64.4622 112.892 64.9735H117.078ZM119.829 62.3085H120.973V63.5825C121.397 62.6378 122.073 62.1655 123.001 62.1655C124.067 62.1655 124.682 62.7982 124.847 64.0635L123.599 64.2975C123.529 63.6822 123.209 63.3745 122.637 63.3745C122.229 63.3745 121.878 63.5998 121.584 64.0505C121.254 64.5532 121.09 65.2205 121.09 66.0525V69.2765H119.829V62.3085ZM131.034 65.4155C131.034 64.8175 130.856 64.3235 130.501 63.9335C130.145 63.5522 129.686 63.3615 129.123 63.3615C127.823 63.3615 127.147 64.1848 127.095 65.8315V69.2765H125.834V62.3085H126.965V63.5695C127.528 62.6335 128.338 62.1655 129.396 62.1655C130.254 62.1655 130.951 62.4645 131.489 63.0625C132.017 63.6518 132.282 64.4102 132.282 65.3375V69.2765H131.034V65.4155ZM138.468 68.1065C137.974 68.9818 137.194 69.4195 136.128 69.4195C135.409 69.4195 134.837 69.2332 134.412 68.8605C133.987 68.4965 133.775 68.0112 133.775 67.4045C133.775 66.6332 134.104 66.0612 134.763 65.6885C135.188 65.4458 135.942 65.2292 137.025 65.0385C137.536 64.9432 137.965 64.8435 138.312 64.7395C138.277 64.3235 138.104 63.9768 137.792 63.6995C137.471 63.4222 137.081 63.2835 136.622 63.2835C136.128 63.2835 135.734 63.4092 135.439 63.6605C135.136 63.9118 134.975 64.2542 134.958 64.6875L133.671 64.5315C133.749 63.8122 134.052 63.2358 134.581 62.8025C135.11 62.3778 135.79 62.1655 136.622 62.1655C137.515 62.1655 138.251 62.4298 138.832 62.9585C139.413 63.4958 139.703 64.1762 139.703 64.9995V67.3915C139.703 68.3448 139.755 68.9732 139.859 69.2765H138.468V68.1065ZM135.101 67.3265C135.101 67.9852 135.5 68.3145 136.297 68.3145C136.895 68.3145 137.385 68.0762 137.766 67.5995C138.139 67.1315 138.325 66.5205 138.325 65.7665V65.7535C138.134 65.8922 137.697 66.0178 137.012 66.1305C136.353 66.2518 135.894 66.3818 135.634 66.5205C135.279 66.7025 135.101 66.9712 135.101 67.3265ZM143.986 69.3675C143.302 69.3675 142.773 69.1638 142.4 68.7565C142.01 68.3405 141.815 67.7468 141.815 66.9755V63.3745H140.515V62.3085H141.815V60.4625H143.076V62.3085H144.87V63.3745H143.076V66.8715C143.076 67.7988 143.449 68.2625 144.194 68.2625C144.402 68.2625 144.636 68.2062 144.896 68.0935L145 69.1595C144.723 69.2982 144.385 69.3675 143.986 69.3675ZM146.235 62.3085H147.496V69.2765H146.235V62.3085ZM146.17 59.5265H147.561V60.9695H146.17V59.5265ZM152.517 69.4195C151.495 69.4195 150.632 69.0728 149.93 68.3795C149.237 67.6862 148.89 66.8282 148.89 65.8055C148.89 64.7742 149.237 63.9075 149.93 63.2055C150.624 62.5122 151.486 62.1655 152.517 62.1655C153.549 62.1655 154.411 62.5122 155.104 63.2055C155.806 63.9075 156.157 64.7742 156.157 65.8055C156.157 66.8282 155.806 67.6862 155.104 68.3795C154.411 69.0728 153.549 69.4195 152.517 69.4195ZM150.151 65.8055C150.151 66.4902 150.377 67.0622 150.827 67.5215C151.287 67.9895 151.85 68.2235 152.517 68.2235C153.185 68.2235 153.748 67.9895 154.207 67.5215C154.667 67.0622 154.896 66.4902 154.896 65.8055C154.896 65.1122 154.667 64.5315 154.207 64.0635C153.748 63.5955 153.185 63.3615 152.517 63.3615C151.85 63.3615 151.287 63.5955 150.827 64.0635C150.377 64.5315 150.151 65.1122 150.151 65.8055ZM162.747 65.4155C162.747 64.8175 162.569 64.3235 162.214 63.9335C161.858 63.5522 161.399 63.3615 160.836 63.3615C159.536 63.3615 158.86 64.1848 158.808 65.8315V69.2765H157.547V62.3085H158.678V63.5695C159.241 62.6335 160.051 62.1655 161.109 62.1655C161.967 62.1655 162.664 62.4645 163.202 63.0625C163.73 63.6518 163.995 64.4102 163.995 65.3375V69.2765H162.747V65.4155ZM170.181 68.1065C169.687 68.9818 168.907 69.4195 167.841 69.4195C167.122 69.4195 166.55 69.2332 166.125 68.8605C165.7 68.4965 165.488 68.0112 165.488 67.4045C165.488 66.6332 165.817 66.0612 166.476 65.6885C166.901 65.4458 167.655 65.2292 168.738 65.0385C169.249 64.9432 169.678 64.8435 170.025 64.7395C169.99 64.3235 169.817 63.9768 169.505 63.6995C169.184 63.4222 168.794 63.2835 168.335 63.2835C167.841 63.2835 167.447 63.4092 167.152 63.6605C166.849 63.9118 166.688 64.2542 166.671 64.6875L165.384 64.5315C165.462 63.8122 165.765 63.2358 166.294 62.8025C166.823 62.3778 167.503 62.1655 168.335 62.1655C169.228 62.1655 169.964 62.4298 170.545 62.9585C171.126 63.4958 171.416 64.1762 171.416 64.9995V67.3915C171.416 68.3448 171.468 68.9732 171.572 69.2765H170.181V68.1065ZM166.814 67.3265C166.814 67.9852 167.213 68.3145 168.01 68.3145C168.608 68.3145 169.098 68.0762 169.479 67.5995C169.852 67.1315 170.038 66.5205 170.038 65.7665V65.7535C169.847 65.8922 169.41 66.0178 168.725 66.1305C168.066 66.2518 167.607 66.3818 167.347 66.5205C166.992 66.7025 166.814 66.9712 166.814 67.3265ZM173.174 59.6305H174.435V67.4045C174.435 68.3838 174.483 69.0078 174.578 69.2765H173.174V59.6305ZM179.436 60.1765H182.361C183.643 60.1765 184.714 60.6012 185.572 61.4505C186.438 62.3172 186.872 63.3962 186.872 64.6875C186.872 65.9962 186.438 67.0882 185.572 67.9635C184.714 68.8388 183.643 69.2765 182.361 69.2765H179.436V60.1765ZM182.439 68.0285C183.331 68.0285 184.068 67.7122 184.649 67.0795C185.238 66.4382 185.533 65.6408 185.533 64.6875C185.533 63.7428 185.242 62.9628 184.662 62.3475C184.081 61.7322 183.34 61.4245 182.439 61.4245H180.749V68.0285H182.439ZM188.282 62.3085H189.543V69.2765H188.282V62.3085ZM188.217 59.5265H189.608V60.9695H188.217V59.5265ZM193.797 69.4195C192.965 69.4195 192.281 69.2115 191.743 68.7955C191.223 68.3882 190.916 67.8465 190.82 67.1705L192.172 67.0535C192.233 67.4435 192.419 67.7512 192.731 67.9765C193.026 68.1932 193.403 68.3015 193.862 68.3015C194.278 68.3015 194.603 68.2105 194.837 68.0285C195.071 67.8552 195.188 67.6212 195.188 67.3265C195.188 66.8325 194.885 66.5118 194.278 66.3645L192.887 66.0265C191.743 65.7405 191.171 65.1512 191.171 64.2585C191.171 63.6345 191.405 63.1275 191.873 62.7375C192.341 62.3562 192.944 62.1655 193.68 62.1655C194.382 62.1655 194.972 62.3345 195.448 62.6725C195.925 63.0105 196.228 63.4785 196.358 64.0765L195.084 64.2455C194.937 63.6042 194.473 63.2835 193.693 63.2835C193.338 63.2835 193.048 63.3658 192.822 63.5305C192.614 63.6865 192.51 63.8815 192.51 64.1155C192.51 64.5488 192.835 64.8435 193.485 64.9995L194.941 65.3635C196.007 65.6235 196.54 66.2128 196.54 67.1315C196.54 67.8335 196.298 68.3882 195.812 68.7955C195.318 69.2115 194.647 69.4195 193.797 69.4195ZM201.766 69.4195C200.639 69.4195 199.777 69.0165 199.179 68.2105V71.5515H197.918V62.3085H199.049V63.5565C199.647 62.6292 200.552 62.1655 201.766 62.1655C202.736 62.1655 203.551 62.5122 204.21 63.2055C204.868 63.9075 205.198 64.7655 205.198 65.7795C205.198 66.8022 204.868 67.6645 204.21 68.3665C203.542 69.0685 202.728 69.4195 201.766 69.4195ZM199.179 65.7795C199.179 66.4902 199.404 67.0752 199.855 67.5345C200.305 68.0025 200.873 68.2365 201.558 68.2365C202.225 68.2365 202.788 67.9982 203.248 67.5215C203.707 67.0448 203.937 66.4642 203.937 65.7795C203.937 65.1035 203.707 64.5315 203.248 64.0635C202.788 63.5955 202.225 63.3615 201.558 63.3615C200.873 63.3615 200.305 63.5912 199.855 64.0505C199.404 64.5098 199.179 65.0862 199.179 65.7795ZM209.383 69.4195C208.534 69.4195 207.841 69.1205 207.303 68.5225C206.766 67.9332 206.497 67.1792 206.497 66.2605V62.3085H207.745V66.1825C207.745 66.7805 207.923 67.2702 208.278 67.6515C208.634 68.0328 209.093 68.2235 209.656 68.2235C210.956 68.2235 211.632 67.4002 211.684 65.7535V62.3085H212.945V69.2765H211.814V68.0285C211.242 68.9558 210.432 69.4195 209.383 69.4195ZM217.429 69.3675C216.744 69.3675 216.215 69.1638 215.843 68.7565C215.453 68.3405 215.258 67.7468 215.258 66.9755V63.3745H213.958V62.3085H215.258V60.4625H216.519V62.3085H218.313V63.3745H216.519V66.8715C216.519 67.7988 216.891 68.2625 217.637 68.2625C217.845 68.2625 218.079 68.2062 218.339 68.0935L218.443 69.1595C218.165 69.2982 217.827 69.3675 217.429 69.3675ZM222.57 69.4195C221.522 69.4195 220.655 69.0815 219.97 68.4055C219.277 67.7208 218.93 66.8498 218.93 65.7925C218.93 64.7612 219.273 63.8988 219.957 63.2055C220.633 62.5122 221.465 62.1655 222.453 62.1655C223.398 62.1655 224.191 62.4818 224.832 63.1145C225.474 63.7558 225.794 64.5445 225.794 65.4805C225.794 65.7318 225.781 65.9225 225.755 66.0525H220.178C220.239 66.7198 220.49 67.2528 220.932 67.6515C221.357 68.0502 221.89 68.2495 222.531 68.2495C223.675 68.2495 224.343 67.8118 224.533 66.9365L225.82 67.0665C225.439 68.6352 224.356 69.4195 222.57 69.4195ZM224.442 64.9735C224.425 64.4882 224.23 64.0895 223.857 63.7775C223.485 63.4568 223.012 63.2965 222.44 63.2965C221.886 63.2965 221.413 63.4482 221.023 63.7515C220.642 64.0548 220.386 64.4622 220.256 64.9735H224.442ZM99.1311 83.4195C98.1518 83.4195 97.3415 83.1768 96.7001 82.6915C96.0415 82.1888 95.6471 81.4868 95.5171 80.5855L96.8951 80.4035C97.0945 81.5735 97.8398 82.1585 99.1311 82.1585C99.6771 82.1585 100.119 82.0242 100.457 81.7555C100.795 81.4868 100.964 81.1358 100.964 80.7025C100.964 80.0438 100.548 79.6018 99.7161 79.3765L98.0651 78.9475C96.6611 78.5662 95.9591 77.7818 95.9591 76.5945C95.9591 75.8405 96.2495 75.2208 96.8301 74.7355C97.4021 74.2675 98.1215 74.0335 98.9881 74.0335C99.7335 74.0335 100.379 74.2112 100.925 74.5665C101.549 74.9738 101.935 75.5632 102.082 76.3345L100.743 76.5425C100.535 75.7105 99.9328 75.2945 98.9361 75.2945C98.4681 75.2945 98.0868 75.4115 97.7921 75.6455C97.4888 75.8708 97.3371 76.1612 97.3371 76.5165C97.3371 77.1145 97.7488 77.5262 98.5721 77.7515L100.21 78.1805C101.64 78.5618 102.355 79.3852 102.355 80.6505C102.355 81.4565 102.06 82.1195 101.471 82.6395C100.873 83.1595 100.093 83.4195 99.1311 83.4195ZM106.954 83.4195C105.906 83.4195 105.039 83.0815 104.354 82.4055C103.661 81.7208 103.314 80.8498 103.314 79.7925C103.314 78.7612 103.657 77.8988 104.341 77.2055C105.017 76.5122 105.849 76.1655 106.837 76.1655C107.782 76.1655 108.575 76.4818 109.216 77.1145C109.858 77.7558 110.178 78.5445 110.178 79.4805C110.178 79.7318 110.165 79.9225 110.139 80.0525H104.562C104.623 80.7198 104.874 81.2528 105.316 81.6515C105.741 82.0502 106.274 82.2495 106.915 82.2495C108.059 82.2495 108.727 81.8118 108.917 80.9365L110.204 81.0665C109.823 82.6352 108.74 83.4195 106.954 83.4195ZM108.826 78.9735C108.809 78.4882 108.614 78.0895 108.241 77.7775C107.869 77.4568 107.396 77.2965 106.824 77.2965C106.27 77.2965 105.797 77.4482 105.407 77.7515C105.026 78.0548 104.77 78.4622 104.64 78.9735H108.826ZM114.076 83.3675C113.391 83.3675 112.863 83.1638 112.49 82.7565C112.1 82.3405 111.905 81.7468 111.905 80.9755V77.3745H110.605V76.3085H111.905V74.4625H113.166V76.3085H114.96V77.3745H113.166V80.8715C113.166 81.7988 113.539 82.2625 114.284 82.2625C114.492 82.2625 114.726 82.2062 114.986 82.0935L115.09 83.1595C114.813 83.2982 114.475 83.3675 114.076 83.3675ZM118.964 83.3675C118.279 83.3675 117.751 83.1638 117.378 82.7565C116.988 82.3405 116.793 81.7468 116.793 80.9755V77.3745H115.493V76.3085H116.793V74.4625H118.054V76.3085H119.848V77.3745H118.054V80.8715C118.054 81.7988 118.427 82.2625 119.172 82.2625C119.38 82.2625 119.614 82.2062 119.874 82.0935L119.978 83.1595C119.701 83.2982 119.363 83.3675 118.964 83.3675ZM121.213 73.6305H122.474V81.4045C122.474 82.3838 122.521 83.0078 122.617 83.2765H121.213V73.6305ZM127.521 83.4195C126.472 83.4195 125.605 83.0815 124.921 82.4055C124.227 81.7208 123.881 80.8498 123.881 79.7925C123.881 78.7612 124.223 77.8988 124.908 77.2055C125.584 76.5122 126.416 76.1655 127.404 76.1655C128.348 76.1655 129.141 76.4818 129.783 77.1145C130.424 77.7558 130.745 78.5445 130.745 79.4805C130.745 79.7318 130.732 79.9225 130.706 80.0525H125.129C125.189 80.7198 125.441 81.2528 125.883 81.6515C126.307 82.0502 126.84 82.2495 127.482 82.2495C128.626 82.2495 129.293 81.8118 129.484 80.9365L130.771 81.0665C130.389 82.6352 129.306 83.4195 127.521 83.4195ZM129.393 78.9735C129.375 78.4882 129.18 78.0895 128.808 77.7775C128.435 77.4568 127.963 77.2965 127.391 77.2965C126.836 77.2965 126.364 77.4482 125.974 77.7515C125.592 78.0548 125.337 78.4622 125.207 78.9735H129.393ZM136.758 79.3245C136.758 78.6832 136.589 78.1848 136.251 77.8295C135.957 77.5175 135.575 77.3615 135.107 77.3615C134.639 77.3615 134.245 77.5392 133.924 77.8945C133.578 78.2932 133.404 78.8392 133.404 79.5325V83.2765H132.143V76.3085H133.274V77.5435C133.682 76.6248 134.423 76.1655 135.497 76.1655C136.511 76.1655 137.235 76.6032 137.668 77.4785C138.171 76.6032 138.964 76.1655 140.047 76.1655C140.827 76.1655 141.451 76.4255 141.919 76.9455C142.387 77.4655 142.621 78.1718 142.621 79.0645V83.2765H141.36V79.3245C141.36 78.7178 141.213 78.2368 140.918 77.8815C140.624 77.5348 140.225 77.3615 139.722 77.3615C139.246 77.3615 138.851 77.5175 138.539 77.8295C138.193 78.1762 138.019 78.6745 138.019 79.3245V83.2765H136.758V79.3245ZM147.554 83.4195C146.505 83.4195 145.638 83.0815 144.954 82.4055C144.26 81.7208 143.914 80.8498 143.914 79.7925C143.914 78.7612 144.256 77.8988 144.941 77.2055C145.617 76.5122 146.449 76.1655 147.437 76.1655C148.381 76.1655 149.174 76.4818 149.816 77.1145C150.457 77.7558 150.778 78.5445 150.778 79.4805C150.778 79.7318 150.765 79.9225 150.739 80.0525H145.162C145.222 80.7198 145.474 81.2528 145.916 81.6515C146.34 82.0502 146.873 82.2495 147.515 82.2495C148.659 82.2495 149.326 81.8118 149.517 80.9365L150.804 81.0665C150.422 82.6352 149.339 83.4195 147.554 83.4195ZM149.426 78.9735C149.408 78.4882 149.213 78.0895 148.841 77.7775C148.468 77.4568 147.996 77.2965 147.424 77.2965C146.869 77.2965 146.397 77.4482 146.007 77.7515C145.625 78.0548 145.37 78.4622 145.24 78.9735H149.426ZM157.376 79.4155C157.376 78.8175 157.199 78.3235 156.843 77.9335C156.488 77.5522 156.029 77.3615 155.465 77.3615C154.165 77.3615 153.489 78.1848 153.437 79.8315V83.2765H152.176V76.3085H153.307V77.5695C153.871 76.6335 154.681 76.1655 155.738 76.1655C156.596 76.1655 157.294 76.4645 157.831 77.0625C158.36 77.6518 158.624 78.4102 158.624 79.3375V83.2765H157.376V79.4155ZM162.877 83.3675C162.192 83.3675 161.664 83.1638 161.291 82.7565C160.901 82.3405 160.706 81.7468 160.706 80.9755V77.3745H159.406V76.3085H160.706V74.4625H161.967V76.3085H163.761V77.3745H161.967V80.8715C161.967 81.7988 162.34 82.2625 163.085 82.2625C163.293 82.2625 163.527 82.2062 163.787 82.0935L163.891 83.1595C163.614 83.2982 163.276 83.3675 162.877 83.3675Z" fill="white"/>
<path d="M49.299 83.3704C47.0952 82.8188 45.1095 82.1122 45.1095 82.1122C45.423 82.0575 45.1368 82.0939 47.1588 81.7156C49.1627 81.3418 49.6217 81.2643 51.3711 81.2369C54.4837 81.1913 54.202 82.5908 54.202 82.5908C54.202 83.5026 53.4886 84.1317 53.4886 84.1317C53.4886 84.1317 51.9027 84.0177 49.299 83.3704ZM22.4033 78.9485C19.1589 78.8527 19.2816 77.4715 19.2816 77.4715C19.2816 76.5597 20.045 75.999 20.045 75.999C20.045 75.999 21.6944 76.0811 24.2936 76.6828C26.5019 77.1979 30.1235 78.4151 30.1235 78.4151C29.8145 78.4744 28.7012 78.6841 26.3156 78.8482C24.9842 78.9348 24.4526 78.9713 23.7528 78.9713C23.3939 78.9713 22.9849 78.9713 22.4033 78.9485ZM58.5915 77.7131C57.6191 77.5717 56.3967 77.3119 54.9836 76.9791C51.5574 76.1859 48.8401 75.3015 48.8401 75.3015C49.2945 75.2377 48.9855 75.1648 51.9436 74.8548C54.82 74.5539 55.3153 74.3169 57.8644 74.3807C62.7856 74.5038 62.4947 76.1039 62.4947 76.1039C62.4947 77.1615 61.3179 77.9045 61.3179 77.9045C61.3179 77.9045 61.2406 77.9045 61.077 77.9045C60.6862 77.9045 59.8365 77.8817 58.6006 77.7039M15.4192 69.7309C12.0157 69.4026 12.2157 68.0533 12.2157 68.0533C12.2157 66.9273 13.279 66.4167 13.279 66.4167C13.279 66.4167 13.279 66.1979 17.3776 66.8498C20.4312 67.3376 26.5337 69.2978 26.5337 69.2978C26.2202 69.3662 22.4078 69.7947 20.0222 69.8539C19.0953 69.8767 18.5909 69.8995 18.0865 69.8995C17.4549 69.8995 16.8324 69.8585 15.4192 69.7263M58.5006 67.5746C52.6525 65.8697 52.2435 65.7512 52.2435 65.7512C52.2435 65.7512 58.4779 64.8257 62.4175 64.6981C66.3526 64.575 67.225 64.7482 68.1475 65.1996C69.0653 65.6463 69.7333 66.3255 69.2244 67.4242C68.72 68.5274 68.1247 68.8009 67.7748 68.9741C67.7748 68.9741 67.5386 69.0015 67.0842 69.0015C65.8073 69.0015 62.8128 68.8328 58.5006 67.5746ZM10.6298 58.8721C7.13098 58.398 7.1537 56.8481 7.1537 56.8481C7.1537 55.2936 8.43964 54.8332 8.43964 54.8332C8.43964 54.8332 8.15337 54.6144 12.3838 55.1887C17.005 55.8133 25.3341 58.398 25.3341 58.398C25.0206 58.4527 21.2037 58.7673 18.8226 58.9451C17.5412 59.0363 16.1599 59.1365 14.6785 59.1365C13.4017 59.1365 12.0521 59.0636 10.6253 58.8721M63.7852 56.9074C59.5048 55.8543 54.7064 54.1311 54.7064 54.1311C55.2198 54.0308 57.2692 53.6297 60.6045 53.2696C63.9306 52.9003 64.7849 52.8274 67.6158 52.8137C73.9001 52.7772 73.5866 54.9517 73.5866 54.9517C73.7274 56.7569 71.51 58.0288 71.51 58.0288C71.51 58.0288 68.1066 57.965 63.7807 56.9074M9.11669 46.737C5.49969 46.4635 5.20433 44.5124 5.20433 44.5124C5.20433 42.5613 7.18551 41.5584 7.18551 41.5584C7.18551 41.5584 6.84016 41.3076 11.8294 42.0051C16.8233 42.7117 26.4928 46.0578 26.4928 46.0578C26.1202 46.1353 21.8444 46.5774 19.0362 46.8099C17.773 46.9102 16.3689 46.9604 14.8739 46.9604C13.0563 46.9604 11.0979 46.8829 9.11215 46.7324M64.7486 44.3711C60.8862 43.473 55.0199 41.5401 55.0199 41.5401C57.2056 41.1253 64.9939 40.3913 65.8255 40.3913C69.1017 40.3913 73.4639 40.1224 74.4681 41.841C75.0498 42.8348 74.4363 43.9471 73.7138 44.6355C73.2322 45.1004 72.6914 45.3876 72.6914 45.3876C72.5142 45.4059 72.3188 45.4059 72.0962 45.4059C70.6148 45.4059 68.0884 45.146 64.7486 44.3711ZM6.71748 32.5505C5.75415 30.7498 8.34422 29.177 8.34422 29.177C9.58018 29.2409 11.2751 29.2865 16.4916 30.4489C20.1994 31.2831 26.82 33.5534 26.82 33.5534C24.5571 33.9317 19.2134 34.3329 15.5237 34.4696C15.2011 34.4788 14.8421 34.4879 14.4468 34.4879C11.7477 34.4879 7.58083 34.1551 6.71748 32.5505ZM64.3578 31.5156C60.8998 30.8364 55.5425 29.2545 55.5425 29.2545C59.6729 28.6209 62.6492 28.5753 65.2211 28.3428C69.2925 27.9599 71.7735 28.5935 72.4824 29.5873C73.014 30.3258 72.546 31.1829 72.0416 31.7299C71.6736 32.1311 71.2692 32.3271 71.2692 32.3271C71.1101 32.3362 70.9329 32.3408 70.7421 32.3408C69.4516 32.3408 67.3841 32.1128 64.3532 31.5202M14.7967 22.722C13.1972 22.5533 11.7022 22.1111 11.0979 21.245C10.1527 19.8956 12.2702 18.3685 12.2702 18.3685C13.3244 18.4277 15.0239 18.4141 19.736 19.4443C22.9077 20.1327 28.6785 21.947 28.6785 21.947C26.7428 22.2707 21.9489 22.6263 18.9862 22.7493C18.4137 22.7676 17.6185 22.8132 16.7597 22.8132C16.1235 22.8132 15.451 22.7949 14.7967 22.7265M60.9407 20.2421C58.2734 19.7953 54.0339 18.487 54.0339 18.487C55.597 18.1816 59.3458 17.7667 61.6359 17.7166C63.9352 17.6664 66.707 17.7804 67.4113 18.7149C68.1929 19.7725 66.3526 20.9168 66.3526 20.9168C66.2299 20.9304 66.089 20.935 65.9391 20.935C64.9485 20.935 63.3717 20.6569 60.9407 20.2421ZM17.9956 11.8359C17.3595 10.6962 18.7363 9.62496 18.7363 9.62496C19.536 9.67055 21.8035 9.7754 24.4662 10.3543C26.8791 10.874 31.3594 12.3784 31.3594 12.3784C29.8781 12.6793 26.0612 12.9254 23.8801 13.0394C23.512 13.0576 23.1212 13.0668 22.7213 13.0668C20.7356 13.0668 18.5227 12.7887 17.9956 11.8359ZM55.0517 10.8239C53.1841 10.3771 50.0261 9.3788 50.0261 9.3788C51.1621 9.07337 53.8703 8.695 55.5379 8.54912C57.1965 8.40324 59.2322 8.47618 59.732 9.42894C60.2318 10.3726 59.1549 11.3937 59.1549 11.3937C59.0413 11.412 58.905 11.4211 58.7505 11.4211C57.9417 11.4211 56.5876 11.1931 55.0472 10.8239M26.6292 5.3763C26.1975 4.46001 27.1245 3.46622 27.1245 3.46622C27.6516 3.48445 29.0375 3.74886 30.6279 4.10899C32.2183 4.46456 34.9446 5.431 34.9446 5.431C33.9677 5.73187 31.6457 6.09656 30.2189 6.23332C29.8781 6.26979 29.5146 6.29259 29.1602 6.29259C28.0378 6.29259 26.9609 6.07833 26.6292 5.3763ZM49.5126 1.32365C48.2403 1.70202 44.9005 2.73683 44.1144 2.96477C43.3283 3.1927 41.8378 3.64401 40.9018 3.90385C39.9748 4.16369 38.1754 4.63779 38.0982 4.66059C38.0982 4.66059 35.9625 3.92664 35.3718 3.76253C34.7765 3.59842 33.2088 3.11976 31.6094 2.9055C30.0144 2.69581 28.6694 2.65934 27.5516 2.79154C26.4383 2.93286 24.7298 3.22005 24.0391 3.69871C23.3439 4.17281 22.9894 4.72441 22.8758 5.44923C22.8758 5.44923 22.8213 6.00539 23.303 6.42023C23.7846 6.82595 24.748 7.07667 25.784 7.063C26.82 7.04476 28.524 6.95359 29.6873 6.78948C30.8551 6.62081 32.9953 6.26523 33.5814 6.15127C34.1631 6.0373 35.6898 5.70452 35.6898 5.70452C35.6898 5.70452 38.7025 6.89433 39.475 7.21799C40.8291 7.79694 43.1192 8.77249 43.4919 8.92293C43.8917 9.08704 45.573 9.79364 45.573 9.79364L35.6898 11.7539C35.6898 11.7539 31.2595 10.2541 28.3195 9.61585C25.3887 8.97308 22.1215 8.53089 18.8317 9.00043C15.5419 9.47453 14.215 10.2769 13.7334 11.4803C13.2472 12.6838 14.6422 13.9147 18.5545 13.983C18.5545 13.983 22.4305 14.1152 30.8233 12.9528L32.3637 12.7294C32.3637 12.7294 38.5934 14.9768 40.202 15.6059C41.8469 16.2578 48.4448 18.838 48.4448 18.838L33.845 21.2587C33.845 21.2587 29.56 19.8364 25.007 18.7058C20.4494 17.5844 16.3234 17.206 13.4471 17.5661C10.5571 17.9172 6.79927 18.5599 6.2858 20.8621C5.76779 23.1733 9.92552 23.734 11.6341 23.7568C13.3426 23.775 19.8677 23.5836 23.6665 23.1779C27.4653 22.763 30.1144 22.4029 30.1144 22.4029C30.1144 22.4029 38.8388 25.5119 40.9336 26.3051C43.0511 27.1074 49.499 29.6329 49.499 29.6329L32.5409 32.7829C32.5409 32.7829 25.5159 30.2711 21.2673 29.332C17.0187 28.393 13.5925 28.0966 10.3754 28.3018C7.16733 28.5115 2.6279 29.332 1.40103 31.8484C1.40103 31.8484 0.505865 33.9089 3.4231 34.9118C6.34033 35.9056 15.0738 35.3996 15.3329 35.3814C15.5873 35.3631 25.2114 34.5335 27.7515 34.0913C27.8015 34.0822 28.0832 34.0457 28.1287 34.0411C28.1287 34.0411 32.5409 35.6686 34.6811 36.4846C37.4075 37.5467 43.8008 40.2455 44.7642 40.6147C45.782 41.0113 48.3584 42.0507 48.3584 42.0507L32.1092 45.2144C32.1092 45.2144 22.2397 41.5401 15.092 40.7515C7.93072 39.9446 0.365002 41.7453 0.0196598 44.6355C-0.321138 47.5256 3.82296 47.8995 8.23971 48.0134C12.6564 48.1274 23.5665 47.1883 27.5334 46.4361L48.0086 54.6144L30.537 57.7325C30.537 57.7325 18.4909 53.7892 12.6883 53.8622C6.89015 53.9442 2.85056 54.9517 2.46886 57.3997C2.46886 57.3997 2.30073 60.2489 9.17122 60.0574C16.0417 59.8705 21.1491 59.834 26.3247 58.8904L26.7382 58.8174C26.7382 58.8174 34.1949 61.3703 38.1027 62.8746C42.0014 64.379 46.4863 66.0976 46.4863 66.0976L31.0913 68.6869C31.0913 68.6869 19.9041 64.6024 13.588 65.7648C13.588 65.7648 8.33967 66.1386 8.02614 68.6869C7.71715 71.2443 18.1774 70.6745 21.3536 70.3326C24.5299 69.9953 27.5652 69.6579 27.5652 69.6579L43.3101 75.5523L33.4724 77.6173C33.4724 77.6173 25.5295 74.6497 21.0083 75.2879C21.0083 75.2879 15.5555 75.5158 15.6555 78.1781C15.6555 78.1781 15.5373 80.0015 21.5944 79.7189C27.6516 79.4408 29.9826 78.7069 30.9323 78.7251C30.9323 78.7251 34.3676 80.0015 35.9216 80.6261C37.4756 81.2415 40.9609 82.5726 40.9609 82.5726C40.9609 82.5726 34.5402 84.2274 33.0362 84.6559C31.5367 85.089 28.1514 85.9141 28.2059 86.1238C28.2559 86.3289 30.2098 85.9916 30.9959 85.7865C31.7911 85.5813 41.3744 82.8826 41.7515 82.8598C41.7515 82.8598 47.536 84.9796 50.9849 84.861C54.4337 84.7516 56.1468 84.2456 56.8375 83.6804C57.5282 83.1196 57.8917 82.445 57.8235 81.711C57.7554 80.9771 56.2377 80.3252 53.893 80.4893C51.5438 80.6625 49.4899 80.813 44.3461 81.825L34.7129 78.0778L44.3461 75.9534C44.3461 75.9534 48.4539 77.2299 50.6395 77.7222C52.8388 78.2008 56.5421 78.994 59.5457 78.6749C62.5538 78.3558 65.8846 78.0003 66.5571 75.5614C66.5571 75.5614 67.3523 72.9584 58.8232 73.6878C50.2987 74.4172 47.8086 74.9414 47.8086 74.9414L33.1725 69.4072L47.3815 66.5763C47.3815 66.5763 55.5061 69.1291 59.1004 69.5576C62.6901 69.9816 65.7073 70.3326 70.1423 69.1519C74.5817 67.9758 74.0546 65.7785 73.9183 65.4776C73.782 65.1768 73.2276 64.2514 70.5376 63.873C67.8475 63.4992 63.7262 63.7727 61.6359 63.9961C59.5412 64.224 51.1848 65.2725 51.003 65.3454C51.003 65.3454 35.2582 59.214 31.8547 58.1701L49.2309 55.0383C49.2309 55.0383 57.1011 57.8145 61.8222 58.5667C66.5389 59.3189 69.4607 59.214 73.8138 58.2886C78.1624 57.3632 78.7849 55.0657 78.7122 54.0081C78.644 52.9641 76.7628 51.4096 71.1192 51.7378C65.4801 52.0615 59.523 52.49 53.4886 53.6616L33.2815 45.6338L50.1261 42.6296L54.3838 43.9334C62.622 46.6367 69.0881 46.5364 69.0881 46.5364C74.9316 46.2902 78.1306 45.0366 79.5801 42.7846C81.0342 40.5327 77.3263 39.5845 77.3263 39.5845C73.8501 38.8779 65.93 39.5343 63.4035 39.7622C60.8725 39.9856 53.6476 41.0888 53.6476 41.0888C51.7392 40.4962 46.4727 38.1485 41.5334 36.1746C37.3938 34.5426 33.7178 33.2069 33.7178 33.2069L50.6077 30.0295C50.6077 30.0295 55.3698 31.4792 60.4545 32.555C65.5392 33.6309 69.9151 33.5807 73.941 32.4091C77.9761 31.233 77.3263 29.2318 77.3263 29.2318C76.3539 26.7974 70.0287 27.2806 66.2799 27.5268C62.5266 27.7775 54.3383 28.826 54.3383 28.826C54.3383 28.826 50.4441 27.4265 48.3721 26.6288C46.3046 25.8264 35.14 21.6781 35.14 21.6781L49.4808 19.1708C56.0832 21.0718 59.8592 21.947 64.5759 21.7008C69.2925 21.4501 71.0874 19.9503 71.5691 18.9748C72.0507 17.9992 71.1101 17.3473 69.4107 17.0009C67.7021 16.6499 66.139 16.8504 63.1945 17.0009C60.25 17.1513 52.8615 18.1497 52.8615 18.1497C52.8615 18.1497 48.9037 16.7228 47.8677 16.2988C46.8362 15.8749 36.6168 12.0684 36.6168 12.0684C38.2708 11.7675 46.4227 10.058 46.4227 10.058C46.4227 10.058 51.0485 11.7903 55.5061 12.0958C59.9774 12.3921 62.1858 11.1384 62.1858 11.1384C64.1851 9.63864 63.3354 8.81352 63.3354 8.81352C62.413 7.51431 58.9141 7.83797 56.3831 8.03399C53.8567 8.23913 49.1582 9.08704 49.1582 9.08704C48.6311 8.76338 38.9115 4.96146 38.9115 4.96146C38.9115 4.96146 41.3471 4.3278 41.697 4.23663C42.0469 4.1409 44.9596 3.3249 45.991 3.01491C47.0271 2.69125 47.5133 2.57728 48.7992 2.167C50.0897 1.75672 50.0352 1.83422 50.894 1.55614C51.7528 1.27806 51.8255 1.22336 51.8573 1.15042C51.8891 1.07292 51.4438 1.01822 51.3438 1.01366C51.3166 1.01366 51.2711 1.0091 51.1984 1.0091C50.9667 1.0091 50.4669 1.05013 49.5126 1.33277" fill="white"/>
</svg>
