<svg width="471" height="172" viewBox="0 0 471 172" fill="none" xmlns="http://www.w3.org/2000/svg">
<path d="M200.602 109.739C195.012 109.739 191.476 105.735 191.476 99.9635C191.476 94.2175 195.22 90.0315 200.914 90.0315C204.996 90.0315 207.908 92.0595 208.948 95.2055L206.062 95.8295C205.256 93.8795 203.436 92.5535 200.94 92.5535C196.91 92.5535 194.492 95.6475 194.492 99.9375C194.492 104.253 197.014 107.347 200.966 107.347C204.424 107.347 206.244 105.215 206.452 101.783H200.082V99.2355H209.104V109.375H206.322V108.803C206.322 108.257 206.348 107.711 206.348 107.399H206.296C205.542 108.517 203.306 109.739 200.602 109.739ZM218.704 109.713C214.414 109.713 211.762 106.879 211.762 102.589C211.762 98.4295 214.414 95.3355 218.6 95.3355C223.254 95.3355 225.204 98.8455 225.204 103.265H214.466C214.544 105.657 216.286 107.451 218.756 107.451C220.94 107.451 222.162 106.307 222.786 105.189L225.1 106.177C224.034 108.179 221.902 109.713 218.704 109.713ZM214.492 101.185H222.37C222.24 99.3135 220.992 97.5195 218.574 97.5195C216.26 97.5195 214.778 99.1835 214.492 101.185ZM228.313 109.375V98.4035C228.313 97.7015 228.287 96.3755 228.287 95.6995H230.939V96.2715C230.939 96.5835 230.939 97.1815 230.913 97.5195H230.939C231.797 96.2455 233.227 95.3355 235.307 95.3355C238.297 95.3355 240.273 97.1815 240.273 100.821V109.375H237.517V102.537C237.517 99.3655 236.919 97.7015 234.553 97.7015C232.135 97.7015 231.069 99.3655 231.069 102.615V109.375H228.313ZM250.213 109.713C245.923 109.713 243.271 106.879 243.271 102.589C243.271 98.4295 245.923 95.3355 250.109 95.3355C254.763 95.3355 256.713 98.8455 256.713 103.265H245.975C246.053 105.657 247.795 107.451 250.265 107.451C252.449 107.451 253.671 106.307 254.295 105.189L256.609 106.177C255.543 108.179 253.411 109.713 250.213 109.713ZM246.001 101.185H253.879C253.749 99.3135 252.501 97.5195 250.083 97.5195C247.769 97.5195 246.287 99.1835 246.001 101.185ZM263 109.375L257.878 95.6995H260.868L262.896 101.783C263.416 103.369 263.988 105.033 264.482 106.593H264.56C265.054 105.033 265.6 103.421 266.146 101.783L268.226 95.6995H271.112L265.912 109.375H263ZM277.155 109.609C274.217 109.609 272.241 108.127 272.241 105.605C272.241 102.823 274.347 102.017 277.389 101.393L279.963 100.899C281.081 100.691 281.393 100.717 281.393 99.8595C281.393 98.4815 280.327 97.5975 278.481 97.5975C276.479 97.5975 275.543 98.5855 275.335 100.119L272.709 99.9115C272.995 97.2075 275.283 95.4655 278.481 95.4655C282.043 95.4655 284.071 97.0255 284.071 100.587V108.777C284.071 109.011 284.097 109.245 284.097 109.375H281.575V108.855C281.575 108.569 281.575 108.387 281.601 108.205C281.601 108.127 281.601 108.023 281.627 107.945H281.549C280.587 108.985 279.209 109.609 277.155 109.609ZM277.779 107.659C280.093 107.659 281.445 106.203 281.445 103.889V103.317C281.445 103.135 281.471 102.901 281.497 102.719C281.107 102.849 280.639 102.901 280.145 103.005L278.195 103.395C276.037 103.811 275.075 104.123 275.075 105.553C275.075 106.905 276.115 107.659 277.779 107.659ZM294.538 109.375V90.3955H298.984L302.104 99.2355C302.91 101.523 303.664 103.811 304.47 106.099H304.548C305.38 103.551 305.978 101.601 306.81 99.2875L309.93 90.3955H314.324V109.375H311.516V99.7295C311.516 97.1035 311.568 95.2835 311.568 92.7875H311.49C310.944 94.5815 310.554 95.4915 310.086 96.9995L305.77 109.375H302.988L299.114 98.3515C298.412 96.3755 297.814 94.5555 297.32 92.7875H297.216C297.242 94.0095 297.294 95.1535 297.294 96.5315V109.375H294.538ZM322.655 109.609C319.717 109.609 317.741 108.127 317.741 105.605C317.741 102.823 319.847 102.017 322.889 101.393L325.463 100.899C326.581 100.691 326.893 100.717 326.893 99.8595C326.893 98.4815 325.827 97.5975 323.981 97.5975C321.979 97.5975 321.043 98.5855 320.835 100.119L318.209 99.9115C318.495 97.2075 320.783 95.4655 323.981 95.4655C327.543 95.4655 329.571 97.0255 329.571 100.587V108.777C329.571 109.011 329.597 109.245 329.597 109.375H327.075V108.855C327.075 108.569 327.075 108.387 327.101 108.205C327.101 108.127 327.101 108.023 327.127 107.945H327.049C326.087 108.985 324.709 109.609 322.655 109.609ZM323.279 107.659C325.593 107.659 326.945 106.203 326.945 103.889V103.317C326.945 103.135 326.971 102.901 326.997 102.719C326.607 102.849 326.139 102.901 325.645 103.005L323.695 103.395C321.537 103.811 320.575 104.123 320.575 105.553C320.575 106.905 321.615 107.659 323.279 107.659ZM338.083 109.687C334.989 109.687 332.831 108.465 332.233 105.865L334.677 105.189C335.197 106.645 336.289 107.555 338.239 107.555C339.721 107.555 340.891 106.827 340.891 105.683C340.891 104.617 340.007 104.175 338.343 103.785L336.783 103.421C334.391 102.875 332.727 101.835 332.727 99.4695C332.727 96.8435 335.093 95.3355 338.005 95.3355C340.787 95.3355 342.789 96.5835 343.335 98.8715L340.943 99.5475C340.553 98.2735 339.565 97.5455 337.927 97.5455C336.471 97.5455 335.509 98.2475 335.509 99.2095C335.509 100.327 336.237 100.691 337.927 101.081L339.591 101.471C342.113 102.069 343.673 103.083 343.673 105.397C343.673 108.205 341.307 109.687 338.083 109.687ZM352.276 109.375H348.818C347.648 108.725 347.362 107.555 347.362 105.241V97.9095H345.074V95.6995H347.362V91.9555H350.066V95.6995H352.874V97.9095H350.066V104.357C350.066 107.555 350.846 108.335 352.276 108.803V109.375ZM361.196 109.713C356.906 109.713 354.254 106.879 354.254 102.589C354.254 98.4295 356.906 95.3355 361.092 95.3355C365.746 95.3355 367.696 98.8455 367.696 103.265H356.958C357.036 105.657 358.778 107.451 361.248 107.451C363.432 107.451 364.654 106.307 365.278 105.189L367.592 106.177C366.526 108.179 364.394 109.713 361.196 109.713ZM356.984 101.185H364.862C364.732 99.3135 363.484 97.5195 361.066 97.5195C358.752 97.5195 357.27 99.1835 356.984 101.185ZM370.805 109.375V98.1955C370.805 97.0775 370.805 96.5055 370.779 95.6995H373.379V96.4275C373.379 96.8175 373.379 97.3895 373.353 97.7795H373.405C374.211 96.2195 375.537 95.4135 377.409 95.4135C377.695 95.4135 377.955 95.4395 378.163 95.4915L378.085 98.1175C377.799 98.0395 377.513 98.0135 377.175 98.0135C374.575 98.0135 373.483 99.5215 373.483 102.615V109.375H370.805ZM391.624 113.171L389.466 113.353C386.736 109.635 385.358 105.735 385.358 101.653C385.358 97.5975 386.736 93.6715 389.44 90.0055L391.598 90.1875C389.336 93.7495 388.218 97.5715 388.218 101.653C388.218 105.839 389.362 109.609 391.624 113.171ZM394.552 109.375V90.3955H397.464V106.801H406.304V109.375H394.552ZM409.025 109.375V90.3955H411.937V106.801H420.777V109.375H409.025ZM422.795 109.375V106.099H425.889V109.375H422.795ZM435.431 109.375V90.3955H439.877L442.997 99.2355C443.803 101.523 444.557 103.811 445.363 106.099H445.441C446.273 103.551 446.871 101.601 447.703 99.2875L450.823 90.3955H455.217V109.375H452.409V99.7295C452.409 97.1035 452.461 95.2835 452.461 92.7875H452.383C451.837 94.5815 451.447 95.4915 450.979 96.9995L446.663 109.375H443.881L440.007 98.3515C439.305 96.3755 438.707 94.5555 438.213 92.7875H438.109C438.135 94.0095 438.187 95.1535 438.187 96.5315V109.375H435.431ZM459.205 109.375V106.099H462.299V109.375H459.205ZM465.96 113.327L463.802 113.171C466.064 109.557 467.208 105.839 467.208 101.679C467.208 97.5975 466.09 93.7495 463.828 90.1875L465.986 90.0315C468.69 93.6975 470.068 97.5975 470.068 101.679C470.068 105.735 468.69 109.661 465.96 113.327ZM192.62 138.375V119.395H195.532V138.375H192.62ZM199.926 138.375V127.403C199.926 126.701 199.9 125.375 199.9 124.699H202.552V125.271C202.552 125.583 202.552 126.181 202.526 126.519H202.552C203.41 125.245 204.84 124.335 206.92 124.335C209.91 124.335 211.886 126.181 211.886 129.821V138.375H209.13V131.537C209.13 128.365 208.532 126.701 206.166 126.701C203.748 126.701 202.682 128.365 202.682 131.615V138.375H199.926ZM221.362 138.375H217.904C216.734 137.725 216.448 136.555 216.448 134.241V126.909H214.16V124.699H216.448V120.955H219.152V124.699H221.96V126.909H219.152V133.357C219.152 136.555 219.932 137.335 221.362 137.803V138.375ZM230.282 138.713C225.992 138.713 223.34 135.879 223.34 131.589C223.34 127.429 225.992 124.335 230.178 124.335C234.832 124.335 236.782 127.845 236.782 132.265H226.044C226.122 134.657 227.864 136.451 230.334 136.451C232.518 136.451 233.74 135.307 234.364 134.189L236.678 135.177C235.612 137.179 233.48 138.713 230.282 138.713ZM226.07 130.185H233.948C233.818 128.313 232.57 126.519 230.152 126.519C227.838 126.519 226.356 128.183 226.07 130.185ZM239.891 138.375V127.195C239.891 126.077 239.891 125.505 239.865 124.699H242.465V125.427C242.465 125.817 242.465 126.389 242.439 126.779H242.491C243.297 125.219 244.623 124.413 246.495 124.413C246.781 124.413 247.041 124.439 247.249 124.491L247.171 127.117C246.885 127.039 246.599 127.013 246.261 127.013C243.661 127.013 242.569 128.521 242.569 131.615V138.375H239.891ZM249.742 138.375V127.403C249.742 126.701 249.716 125.375 249.716 124.699H252.368V125.271C252.368 125.583 252.368 126.181 252.342 126.519H252.368C253.226 125.245 254.656 124.335 256.736 124.335C259.726 124.335 261.702 126.181 261.702 129.821V138.375H258.946V131.537C258.946 128.365 258.348 126.701 255.982 126.701C253.564 126.701 252.498 128.365 252.498 131.615V138.375H249.742ZM269.563 138.609C266.625 138.609 264.649 137.127 264.649 134.605C264.649 131.823 266.755 131.017 269.797 130.393L272.371 129.899C273.489 129.691 273.801 129.717 273.801 128.859C273.801 127.481 272.735 126.597 270.889 126.597C268.887 126.597 267.951 127.585 267.743 129.119L265.117 128.911C265.403 126.207 267.691 124.465 270.889 124.465C274.451 124.465 276.479 126.025 276.479 129.587V137.777C276.479 138.011 276.505 138.245 276.505 138.375H273.983V137.855C273.983 137.569 273.983 137.387 274.009 137.205C274.009 137.127 274.009 137.023 274.035 136.945H273.957C272.995 137.985 271.617 138.609 269.563 138.609ZM270.187 136.659C272.501 136.659 273.853 135.203 273.853 132.889V132.317C273.853 132.135 273.879 131.901 273.905 131.719C273.515 131.849 273.047 131.901 272.553 132.005L270.603 132.395C268.445 132.811 267.483 133.123 267.483 134.553C267.483 135.905 268.523 136.659 270.187 136.659ZM285.905 138.375H282.447C281.277 137.725 280.991 136.555 280.991 134.241V126.909H278.703V124.699H280.991V120.955H283.695V124.699H286.503V126.909H283.695V133.357C283.695 136.555 284.475 137.335 285.905 137.803V138.375ZM289.022 138.375V124.699H291.778V138.375H289.022ZM288.996 122.593V119.395H291.804V122.593H288.996ZM301.883 138.739C297.723 138.739 294.915 135.827 294.915 131.537C294.915 127.273 297.749 124.309 301.935 124.309C306.043 124.309 308.903 127.273 308.903 131.537C308.903 135.801 306.043 138.739 301.883 138.739ZM301.883 136.425C304.509 136.425 306.017 134.449 306.017 131.563C306.017 128.755 304.509 126.623 301.909 126.623C299.257 126.623 297.775 128.703 297.775 131.537C297.775 134.449 299.283 136.425 301.883 136.425ZM312.051 138.375V127.403C312.051 126.701 312.025 125.375 312.025 124.699H314.677V125.271C314.677 125.583 314.677 126.181 314.651 126.519H314.677C315.535 125.245 316.965 124.335 319.045 124.335C322.035 124.335 324.011 126.181 324.011 129.821V138.375H321.255V131.537C321.255 128.365 320.657 126.701 318.291 126.701C315.873 126.701 314.807 128.365 314.807 131.615V138.375H312.051ZM331.872 138.609C328.934 138.609 326.958 137.127 326.958 134.605C326.958 131.823 329.064 131.017 332.106 130.393L334.68 129.899C335.798 129.691 336.11 129.717 336.11 128.859C336.11 127.481 335.044 126.597 333.198 126.597C331.196 126.597 330.26 127.585 330.052 129.119L327.426 128.911C327.712 126.207 330 124.465 333.198 124.465C336.76 124.465 338.788 126.025 338.788 129.587V137.777C338.788 138.011 338.814 138.245 338.814 138.375H336.292V137.855C336.292 137.569 336.292 137.387 336.318 137.205C336.318 137.127 336.318 137.023 336.344 136.945H336.266C335.304 137.985 333.926 138.609 331.872 138.609ZM332.496 136.659C334.81 136.659 336.162 135.203 336.162 132.889V132.317C336.162 132.135 336.188 131.901 336.214 131.719C335.824 131.849 335.356 131.901 334.862 132.005L332.912 132.395C330.754 132.811 329.792 133.123 329.792 134.553C329.792 135.905 330.832 136.659 332.496 136.659ZM342.672 138.375V119.395H345.428V138.375H342.672ZM356.111 138.375V119.395H362.637C369.007 119.395 372.023 122.983 372.023 128.729C372.023 134.137 369.371 138.375 362.793 138.375H356.111ZM359.023 135.905H362.299C366.459 135.905 369.033 133.825 369.033 128.963C369.033 126.181 368.331 124.153 366.563 123.009C365.081 122.099 363.339 121.891 360.505 121.891H359.023V135.905ZM375.325 138.375V124.699H378.081V138.375H375.325ZM375.299 122.593V119.395H378.107V122.593H375.299ZM386.808 138.687C383.714 138.687 381.556 137.465 380.958 134.865L383.402 134.189C383.922 135.645 385.014 136.555 386.964 136.555C388.446 136.555 389.616 135.827 389.616 134.683C389.616 133.617 388.732 133.175 387.068 132.785L385.508 132.421C383.116 131.875 381.452 130.835 381.452 128.469C381.452 125.843 383.818 124.335 386.73 124.335C389.512 124.335 391.514 125.583 392.06 127.871L389.668 128.547C389.278 127.273 388.29 126.545 386.652 126.545C385.196 126.545 384.234 127.247 384.234 128.209C384.234 129.327 384.962 129.691 386.652 130.081L388.316 130.471C390.838 131.069 392.398 132.083 392.398 134.397C392.398 137.205 390.032 138.687 386.808 138.687ZM395.434 143.263V126.259C395.434 125.739 395.408 125.193 395.408 124.699H398.086V125.323C398.086 125.635 398.06 126.155 398.06 126.545H398.112C399.022 125.271 400.556 124.361 402.61 124.361C406.276 124.361 408.928 127.273 408.928 131.537C408.928 135.853 406.276 138.687 402.61 138.687C400.556 138.687 399.1 137.959 398.138 136.633H398.112C398.19 137.491 398.164 138.375 398.164 139.207V143.263H395.434ZM402.116 136.425C404.586 136.425 406.068 134.397 406.068 131.615C406.068 128.781 404.586 126.727 402.09 126.727C399.62 126.727 398.06 128.677 398.06 131.589C398.06 134.449 399.62 136.425 402.116 136.425ZM416.848 138.687C413.936 138.687 411.908 137.153 411.908 133.539V124.699H414.664V132.837C414.664 135.229 415.652 136.425 417.628 136.425C419.942 136.425 421.034 134.631 421.034 131.953V124.699H423.79V136.347C423.79 137.075 423.79 137.621 423.816 138.375H421.164V137.777C421.164 137.491 421.164 136.945 421.19 136.633H421.138C420.228 137.907 418.824 138.687 416.848 138.687ZM433.602 138.375H430.144C428.974 137.725 428.688 136.555 428.688 134.241V126.909H426.4V124.699H428.688V120.955H431.392V124.699H434.2V126.909H431.392V133.357C431.392 136.555 432.172 137.335 433.602 137.803V138.375ZM442.522 138.713C438.232 138.713 435.58 135.879 435.58 131.589C435.58 127.429 438.232 124.335 442.418 124.335C447.072 124.335 449.022 127.845 449.022 132.265H438.284C438.362 134.657 440.104 136.451 442.574 136.451C444.758 136.451 445.98 135.307 446.604 134.189L448.918 135.177C447.852 137.179 445.72 138.713 442.522 138.713ZM438.31 130.185H446.188C446.058 128.313 444.81 126.519 442.392 126.519C440.078 126.519 438.596 128.183 438.31 130.185ZM198.366 167.739C194.622 167.739 191.762 165.919 191.138 162.617L193.92 161.941C194.362 164.099 196.026 165.321 198.392 165.321C200.758 165.321 202.37 164.151 202.37 162.279C202.37 160.719 201.2 159.991 199.016 159.341L197.456 158.873C193.946 157.833 191.814 156.585 191.814 153.439C191.814 150.189 194.596 148.031 198.47 148.031C201.928 148.031 204.268 149.721 204.97 152.607L202.318 153.309C201.824 151.515 200.472 150.527 198.366 150.527C196.286 150.527 194.856 151.541 194.856 153.205C194.856 154.843 195.922 155.389 198.496 156.221L200.342 156.793C203.254 157.703 205.386 158.795 205.386 162.019C205.386 165.633 202.396 167.739 198.366 167.739ZM214.514 167.713C210.224 167.713 207.572 164.879 207.572 160.589C207.572 156.429 210.224 153.335 214.41 153.335C219.064 153.335 221.014 156.845 221.014 161.265H210.276C210.354 163.657 212.096 165.451 214.566 165.451C216.75 165.451 217.972 164.307 218.596 163.189L220.91 164.177C219.844 166.179 217.712 167.713 214.514 167.713ZM210.302 159.185H218.18C218.05 157.313 216.802 155.519 214.384 155.519C212.07 155.519 210.588 157.183 210.302 159.185ZM229.614 167.375H226.156C224.986 166.725 224.7 165.555 224.7 163.241V155.909H222.412V153.699H224.7V149.955H227.404V153.699H230.212V155.909H227.404V162.357C227.404 165.555 228.184 166.335 229.614 166.803V167.375ZM238.425 167.375H234.967C233.797 166.725 233.511 165.555 233.511 163.241V155.909H231.223V153.699H233.511V149.955H236.215V153.699H239.023V155.909H236.215V162.357C236.215 165.555 236.995 166.335 238.425 166.803V167.375ZM241.541 167.375V148.395H244.297V167.375H241.541ZM254.403 167.713C250.113 167.713 247.461 164.879 247.461 160.589C247.461 156.429 250.113 153.335 254.299 153.335C258.953 153.335 260.903 156.845 260.903 161.265H250.165C250.243 163.657 251.985 165.451 254.455 165.451C256.639 165.451 257.861 164.307 258.485 163.189L260.799 164.177C259.733 166.179 257.601 167.713 254.403 167.713ZM250.191 159.185H258.069C257.939 157.313 256.691 155.519 254.273 155.519C251.959 155.519 250.477 157.183 250.191 159.185ZM264.012 167.375V156.065C264.012 155.103 264.012 154.609 263.986 153.699H266.612V154.505C266.612 154.791 266.612 155.259 266.586 155.545H266.638C267.34 154.297 268.822 153.335 270.798 153.335C272.696 153.335 274.126 154.193 274.932 155.831C275.79 154.375 277.376 153.335 279.56 153.335C282.784 153.335 284.448 155.389 284.448 159.055V167.375H281.692V159.679C281.692 157.183 280.938 155.701 278.858 155.701C276.362 155.701 275.608 157.781 275.608 160.433V167.375H272.852V159.731C272.852 157.157 272.046 155.701 270.044 155.701C267.626 155.701 266.768 157.677 266.768 160.589V167.375H264.012ZM294.368 167.713C290.078 167.713 287.426 164.879 287.426 160.589C287.426 156.429 290.078 153.335 294.264 153.335C298.918 153.335 300.868 156.845 300.868 161.265H290.13C290.208 163.657 291.95 165.451 294.42 165.451C296.604 165.451 297.826 164.307 298.45 163.189L300.764 164.177C299.698 166.179 297.566 167.713 294.368 167.713ZM290.156 159.185H298.034C297.904 157.313 296.656 155.519 294.238 155.519C291.924 155.519 290.442 157.183 290.156 159.185ZM303.977 167.375V156.403C303.977 155.701 303.951 154.375 303.951 153.699H306.603V154.271C306.603 154.583 306.603 155.181 306.577 155.519H306.603C307.461 154.245 308.891 153.335 310.971 153.335C313.961 153.335 315.937 155.181 315.937 158.821V167.375H313.181V160.537C313.181 157.365 312.583 155.701 310.217 155.701C307.799 155.701 306.733 157.365 306.733 160.615V167.375H303.977ZM325.413 167.375H321.955C320.785 166.725 320.499 165.555 320.499 163.241V155.909H318.211V153.699H320.499V149.955H323.203V153.699H326.011V155.909H323.203V162.357C323.203 165.555 323.983 166.335 325.413 166.803V167.375Z" fill="#182B3A"/>
<path d="M239.572 0.927998V1.684C235.792 1.9 234.712 2.926 234.712 5.842V32.734C234.712 34.786 235.9 35.758 239.572 36.244V37H222.562V36.244C226.234 35.812 227.368 34.732 227.368 32.734V8.542L213.544 36.946H211.87L198.1 7.732V32.734C198.1 34.732 199.288 35.758 203.014 36.244V37H191.782V36.244C195.4 35.812 196.588 34.786 196.588 32.734V5.842C196.588 2.926 195.508 1.9 191.728 1.684V0.927998H203.014L215.974 28.468L229.312 0.927998H239.572ZM241.959 37V36.244C245.253 35.866 246.711 35.11 246.711 32.518V5.356C246.711 2.818 245.253 2.062 241.959 1.684V0.927998H258.807V1.684C255.513 2.062 254.055 2.818 254.055 5.356V32.518C254.055 35.11 255.513 35.866 258.807 36.244V37H241.959ZM277.651 0.927998C292.069 0.927998 297.901 9.028 297.901 17.776C297.901 29.926 288.289 37 278.407 37H261.181V36.244C264.475 35.866 265.933 35.11 265.933 32.518V5.356C265.933 2.818 264.475 2.062 261.181 1.684V0.927998H277.651ZM278.407 35.488C285.427 35.488 290.179 29.278 290.179 18.964C290.179 10.864 285.211 2.44 276.733 2.44H273.277V32.734C273.277 34.786 274.519 35.488 278.407 35.488ZM315.402 37.756C308.328 37.756 302.496 34.732 300.768 29.116L307.14 27.334C308.274 32.68 311.946 36.244 316.212 36.244C319.992 36.244 322.584 33.76 322.584 30.142C322.584 19.612 302.01 23.5 302.01 10.54C302.01 4.33 307.086 0.117998 315.24 0.117998C321.666 0.117998 327.498 2.98 329.28 8.38L322.962 10.162C321.828 4.924 318.372 1.63 314.43 1.63C310.866 1.63 308.436 3.898 308.436 7.192C308.436 16.912 329.496 13.51 329.496 26.794C329.496 33.598 323.934 37.756 315.402 37.756Z" fill="#182B3A"/>
<path d="M98.5981 165.741C94.1904 164.637 90.219 163.224 90.219 163.224C90.8461 163.115 90.2735 163.188 94.3177 162.431C98.3255 161.683 99.2433 161.528 102.742 161.474C108.967 161.383 108.404 164.182 108.404 164.182C108.404 166.005 106.977 167.263 106.977 167.263C106.977 167.263 103.805 167.035 98.5981 165.741ZM44.8065 156.897C38.3177 156.705 38.5631 153.943 38.5631 153.943C38.5631 152.119 40.0899 150.998 40.0899 150.998C40.0899 150.998 43.3888 151.162 48.5871 152.365C53.0039 153.396 60.247 155.83 60.247 155.83C59.629 155.949 57.4024 156.368 52.6313 156.696C49.9685 156.869 48.9052 156.942 47.5057 156.942C46.7877 156.942 45.9698 156.942 44.8065 156.897ZM117.183 154.426C115.238 154.143 112.793 153.624 109.967 152.958C103.115 151.372 97.6802 149.603 97.6802 149.603C98.589 149.475 97.971 149.329 103.887 148.709C109.64 148.108 110.631 147.634 115.729 147.761C125.571 148.007 124.989 151.208 124.989 151.208C124.989 153.323 122.636 154.809 122.636 154.809C122.636 154.809 122.481 154.809 122.154 154.809C121.372 154.809 119.673 154.763 117.201 154.408M30.8384 138.462C24.0315 137.805 24.4314 135.106 24.4314 135.106C24.4314 132.854 26.5579 131.833 26.5579 131.833C26.5579 131.833 26.5579 131.396 34.7553 132.699C40.8624 133.675 53.0675 137.595 53.0675 137.595C52.4404 137.732 44.8156 138.589 40.0445 138.708C38.1905 138.753 37.1818 138.799 36.173 138.799C34.9098 138.799 33.6647 138.717 30.8384 138.452M117.001 134.149C105.305 130.739 104.487 130.502 104.487 130.502C104.487 130.502 116.956 128.651 124.835 128.396C132.705 128.15 134.45 128.496 136.295 129.399C138.131 130.292 139.467 131.651 138.449 133.848C137.44 136.055 136.249 136.602 135.55 136.948C135.55 136.948 135.077 137.003 134.168 137.003C131.615 137.003 125.626 136.665 117.001 134.149ZM21.2597 116.744C14.262 115.796 14.3074 112.696 14.3074 112.696C14.3074 109.587 16.8793 108.666 16.8793 108.666C16.8793 108.666 16.3067 108.229 24.7676 109.377C34.0101 110.626 50.6683 115.796 50.6683 115.796C50.0412 115.905 42.4073 116.534 37.6452 116.89C35.0824 117.072 32.3197 117.273 29.357 117.273C26.8033 117.273 24.1042 117.127 21.2506 116.744M127.57 112.815C119.01 110.708 109.413 107.262 109.413 107.262C110.44 107.062 114.538 106.259 121.209 105.539C127.861 104.8 129.57 104.655 135.232 104.627C147.8 104.554 147.173 108.903 147.173 108.903C147.455 112.514 143.02 115.057 143.02 115.057C143.02 115.057 136.213 114.93 127.561 112.815M18.2334 92.4739C10.9994 91.9268 10.4087 88.0246 10.4087 88.0246C10.4087 84.1224 14.371 82.1166 14.371 82.1166C14.371 82.1166 13.6803 81.6151 23.6589 83.0101C33.6465 84.4233 52.9857 91.1154 52.9857 91.1154C52.2405 91.2704 43.6887 92.1547 38.0724 92.6197C35.5459 92.8203 32.7378 92.9206 29.7478 92.9206C26.1126 92.9206 22.1957 92.7656 18.2243 92.4647M129.497 87.742C121.772 85.9459 110.04 82.0801 110.04 82.0801C114.411 81.2504 129.988 79.7826 131.651 79.7826C138.203 79.7826 146.928 79.2446 148.936 82.6819C150.099 84.6694 148.873 86.8941 147.428 88.2708C146.464 89.2007 145.383 89.7751 145.383 89.7751C145.028 89.8116 144.638 89.8116 144.192 89.8116C141.23 89.8116 136.177 89.2919 129.497 87.742ZM13.435 64.1008C11.5083 60.4994 16.6884 57.354 16.6884 57.354C19.1604 57.4816 22.5502 57.5728 32.9831 59.8977C40.3989 61.5662 53.64 66.1066 53.64 66.1066C49.1142 66.8633 38.4268 67.6656 31.0474 67.9392C30.4021 67.9574 29.6842 67.9756 28.8936 67.9756C23.4953 67.9756 15.1617 67.3101 13.435 64.1008ZM128.716 62.0311C121.8 60.6727 111.085 57.5089 111.085 57.5089C119.346 56.2416 125.298 56.1505 130.442 55.6855C138.585 54.9196 143.547 56.1869 144.965 58.1745C146.028 59.6515 145.092 61.3656 144.083 62.4597C143.347 63.262 142.538 63.654 142.538 63.654C142.22 63.6723 141.866 63.6814 141.484 63.6814C138.903 63.6814 134.768 63.2255 128.706 62.0403M29.5933 44.4438C26.3944 44.1065 23.4044 43.2221 22.1957 41.4898C20.3054 38.7911 24.5404 35.7368 24.5404 35.7368C26.6488 35.8553 30.0477 35.828 39.4719 37.8885C45.8153 39.2652 57.357 42.8939 57.357 42.8939C53.4855 43.5412 43.8977 44.2524 37.9724 44.4985C36.8273 44.535 35.2369 44.6262 33.5193 44.6262C32.247 44.6262 30.902 44.5897 29.5933 44.453M121.881 39.484C116.547 38.5905 108.068 35.9739 108.068 35.9739C111.194 35.363 118.692 34.5333 123.272 34.433C127.87 34.3327 133.414 34.5607 134.823 36.4297C136.386 38.5449 132.705 40.8334 132.705 40.8334C132.46 40.8607 132.178 40.8698 131.878 40.8698C129.897 40.8698 126.743 40.3137 121.881 39.484ZM35.9912 22.6717C34.7189 20.3924 37.4726 18.2498 37.4726 18.2498C39.072 18.341 43.6069 18.5507 48.9325 19.7086C53.7582 20.7479 62.7189 23.7566 62.7189 23.7566C59.7562 24.3584 52.1223 24.8507 47.7601 25.0787C47.024 25.1151 46.2424 25.1334 45.4427 25.1334C41.4713 25.1334 37.0454 24.5772 35.9912 22.6717ZM110.103 20.6476C106.368 19.7541 100.052 17.7575 100.052 17.7575C102.324 17.1466 107.741 16.3899 111.076 16.0981C114.393 15.8064 118.464 15.9522 119.464 17.8577C120.464 19.745 118.31 21.7873 118.31 21.7873C118.083 21.8238 117.81 21.842 117.501 21.842C115.883 21.842 113.175 21.3861 110.094 20.6476M53.2583 9.75245C52.395 7.91987 54.2489 5.9323 54.2489 5.9323C55.3031 5.96877 58.0749 6.49757 61.2557 7.21784C64.4365 7.92899 69.8893 9.86186 69.8893 9.86186C67.9354 10.4636 63.2914 11.193 60.4378 11.4665C59.7562 11.5394 59.0292 11.585 58.3203 11.585C56.0756 11.585 53.9218 11.1565 53.2583 9.75245ZM99.0252 1.64716C96.4806 2.4039 89.801 4.47353 88.2288 4.92939C86.6565 5.38526 83.6757 6.28787 81.8036 6.80756C79.9496 7.32725 76.3508 8.27545 76.1963 8.32103C76.1963 8.32103 71.925 6.85315 70.7435 6.52492C69.553 6.1967 66.4177 5.23938 63.2187 4.81087C60.0289 4.39147 57.3388 4.31853 55.1032 4.58294C52.8766 4.86557 49.4596 5.43996 48.0782 6.39728C46.6877 7.34548 45.9789 8.44868 45.7517 9.89833C45.7517 9.89833 45.6426 11.0106 46.606 11.8403C47.5693 12.6518 49.4959 13.1532 51.568 13.1259C53.64 13.0894 57.048 12.907 59.3745 12.5788C61.7101 12.2415 65.9905 11.5303 67.1629 11.3024C68.3262 11.0745 71.3797 10.4089 71.3797 10.4089C71.3797 10.4089 77.405 12.7885 78.95 13.4358C81.6582 14.5937 86.2385 16.5449 86.9837 16.8457C87.7834 17.1739 91.146 18.5871 91.146 18.5871L71.3797 22.5076C71.3797 22.5076 62.519 19.508 56.639 18.2316C50.7773 16.946 44.2431 16.0616 37.6634 17.0007C31.0837 17.9489 28.4301 19.5536 27.4667 21.9605C26.4943 24.3675 29.2843 26.8292 37.1091 26.9659C37.1091 26.9659 44.8611 27.2303 61.6465 24.9054L64.7273 24.4587C64.7273 24.4587 77.1869 28.9535 80.404 30.2117C83.6939 31.5155 96.8896 36.6759 96.8896 36.6759L67.69 41.5172C67.69 41.5172 59.1201 38.6726 50.0139 36.4115C40.8987 34.1686 32.6469 33.4119 26.8942 34.1322C21.1143 34.8342 13.5985 36.1197 12.5716 40.724C11.5356 45.3465 19.851 46.4679 23.2681 46.5135C26.6852 46.5499 39.7355 46.167 47.333 45.3556C54.9305 44.5259 60.2288 43.8056 60.2288 43.8056C60.2288 43.8056 77.6776 50.0236 81.8672 51.61C86.1022 53.2147 98.998 58.2657 98.998 58.2657L65.0818 64.5658C65.0818 64.5658 51.0318 59.5421 42.5346 57.6639C34.0373 55.7858 27.185 55.1932 20.7507 55.6034C14.3347 56.0228 5.2558 57.6639 2.80206 62.6967C2.80206 62.6967 1.01173 66.8177 6.84619 68.8235C12.6807 70.8111 30.1477 69.7991 30.6657 69.7626C31.1746 69.7262 50.4229 68.0668 55.5031 67.1824C55.603 67.1642 56.1665 67.0913 56.2574 67.0821C56.2574 67.0821 65.0818 70.337 69.3622 71.969C74.8149 74.0933 87.6017 79.4908 89.5283 80.2293C91.564 81.0225 96.7169 83.1013 96.7169 83.1013L64.2184 89.4287C64.2184 89.4287 44.4794 82.0801 30.184 80.5028C15.8614 78.8891 0.730004 82.4904 0.0393196 88.2708C-0.642276 94.0512 7.64593 94.7988 16.4794 95.0267C25.3129 95.2546 47.1331 93.3765 55.0668 91.8721L96.0171 108.229L61.074 114.465C61.074 114.465 36.9818 106.578 25.3765 106.724C13.7803 106.888 5.70111 108.903 4.93772 113.799C4.93772 113.799 4.60147 119.498 18.3424 119.115C32.0834 118.741 42.2983 118.668 52.6494 116.781L53.4764 116.635C53.4764 116.635 68.3898 121.74 76.2054 124.749C84.0029 127.758 92.9727 131.195 92.9727 131.195L62.1827 136.374C62.1827 136.374 39.8082 128.205 27.1759 130.53C27.1759 130.53 16.6793 131.277 16.0523 136.374C15.4343 141.489 36.3548 140.349 42.7072 139.665C49.0597 138.99 55.1305 138.316 55.1305 138.316L86.6202 150.104L66.9448 154.235C66.9448 154.235 51.059 148.299 42.0165 149.576C42.0165 149.576 31.111 150.031 31.3109 155.356C31.3109 155.356 31.0747 159.003 43.1889 158.438C55.3031 157.881 59.9652 156.414 61.8646 156.45C61.8646 156.45 68.7351 159.003 71.8432 160.252C74.9513 161.483 81.9217 164.145 81.9217 164.145C81.9217 164.145 69.0804 167.455 66.0723 168.312C63.0733 169.178 56.3028 170.828 56.4119 171.247C56.5118 171.658 60.4196 170.983 61.9918 170.573C63.5822 170.162 82.7487 164.765 83.503 164.719C83.503 164.719 95.072 168.959 101.97 168.722C108.867 168.503 112.294 167.491 113.675 166.361C115.056 165.239 115.783 163.89 115.647 162.422C115.511 160.954 112.475 159.65 107.786 159.978C103.088 160.325 98.9798 160.626 88.6922 162.65L69.4258 155.155L88.6922 150.907C88.6922 150.907 96.9077 153.46 101.279 154.444C105.678 155.402 113.084 156.988 119.091 156.35C125.108 155.712 131.769 155 133.114 150.123C133.114 150.123 134.705 144.917 117.646 146.375C100.597 147.834 95.6173 148.883 95.6173 148.883L66.345 137.814L94.763 132.152C94.763 132.152 111.012 137.258 118.201 138.115C125.38 138.963 131.415 139.665 140.285 137.304C149.163 134.951 148.109 130.557 147.837 129.955C147.564 129.353 146.455 127.503 141.075 126.746C135.695 125.998 127.452 126.545 123.272 126.992C119.082 127.448 102.37 129.545 102.006 129.691C102.006 129.691 70.5163 117.428 63.7095 115.34L98.4618 109.076C98.4618 109.076 114.202 114.629 123.644 116.133C133.078 117.638 138.921 117.428 147.628 115.577C156.325 113.726 157.57 109.131 157.424 107.016C157.288 104.928 153.526 101.819 142.238 102.476C130.96 103.123 119.046 103.98 106.977 106.323L66.5631 90.2675L100.252 84.2592L108.768 86.8667C125.244 92.2733 138.176 92.0727 138.176 92.0727C149.863 91.5804 156.261 89.0731 159.16 84.5691C162.068 80.0652 154.653 78.1688 154.653 78.1688C147.7 76.7556 131.86 78.0685 126.807 78.5244C121.745 78.9711 107.295 81.1775 107.295 81.1775C103.478 79.9923 92.9454 75.2968 83.0668 71.349C74.7877 68.085 67.4355 65.4137 67.4355 65.4137L101.215 59.0589C101.215 59.0589 110.74 61.9582 120.909 64.1099C131.078 66.2616 139.83 66.1613 147.882 63.8181C155.952 61.4659 154.653 57.4634 154.653 57.4634C152.708 52.5947 140.057 53.5611 132.56 54.0535C125.053 54.5549 108.677 56.6519 108.677 56.6519C108.677 56.6519 100.888 53.8529 96.7442 52.2574C92.6091 50.6527 70.2801 42.356 70.2801 42.356L98.9616 37.3414C112.166 41.1434 119.718 42.8939 129.152 42.4016C138.585 41.9001 142.175 38.9005 143.138 36.9494C144.101 34.9983 142.22 33.6945 138.821 33.0016C135.404 32.2996 132.278 32.7007 126.389 33.0016C120.5 33.3025 105.723 35.2992 105.723 35.2992C105.723 35.2992 97.8074 32.4455 95.7354 31.5975C93.6724 30.7496 73.2336 23.1367 73.2336 23.1367C76.5417 22.5349 92.8454 19.1159 92.8454 19.1159C92.8454 19.1159 102.097 22.5805 111.012 23.1914C119.955 23.784 124.372 21.2767 124.372 21.2767C128.37 18.2771 126.671 16.6269 126.671 16.6269C124.826 14.0285 117.828 14.6758 112.766 15.0678C107.713 15.4781 98.3164 17.1739 98.3164 17.1739C97.2622 16.5266 77.8231 8.92278 77.8231 8.92278C77.8231 8.92278 82.6942 7.65547 83.394 7.47313C84.0937 7.28166 89.9191 5.64966 91.9821 5.02969C94.0541 4.38236 95.0265 4.15442 97.5984 3.33386C100.179 2.51331 100.07 2.6683 101.788 2.11214C103.506 1.55599 103.651 1.44658 103.715 1.3007C103.778 1.14571 102.888 1.0363 102.688 1.02718C102.633 1.02718 102.542 1.01807 102.397 1.01807C101.933 1.01807 100.934 1.10012 99.0252 1.6654" fill="#182B3A"/>
</svg>
