<svg width="471" height="177" viewBox="0 0 471 177" fill="none" xmlns="http://www.w3.org/2000/svg">
<path d="M239.785 0.927998V1.684C236.005 1.9 234.925 2.926 234.925 5.842V32.734C234.925 34.786 236.113 35.758 239.785 36.244V37H222.775V36.244C226.447 35.812 227.581 34.732 227.581 32.734V8.542L213.757 36.946H212.083L198.313 7.732V32.734C198.313 34.732 199.501 35.758 203.227 36.244V37H191.995V36.244C195.613 35.812 196.801 34.786 196.801 32.734V5.842C196.801 2.926 195.721 1.9 191.941 1.684V0.927998H203.227L216.187 28.468L229.525 0.927998H239.785ZM242.171 37V36.244C245.465 35.866 246.923 35.11 246.923 32.518V5.356C246.923 2.818 245.465 2.062 242.171 1.684V0.927998H259.019V1.684C255.725 2.062 254.267 2.818 254.267 5.356V32.518C254.267 35.11 255.725 35.866 259.019 36.244V37H242.171ZM277.864 0.927998C292.282 0.927998 298.114 9.028 298.114 17.776C298.114 29.926 288.502 37 278.62 37H261.394V36.244C264.688 35.866 266.146 35.11 266.146 32.518V5.356C266.146 2.818 264.688 2.062 261.394 1.684V0.927998H277.864ZM278.62 35.488C285.64 35.488 290.392 29.278 290.392 18.964C290.392 10.864 285.424 2.44 276.946 2.44H273.49V32.734C273.49 34.786 274.732 35.488 278.62 35.488ZM315.615 37.756C308.541 37.756 302.709 34.732 300.981 29.116L307.353 27.334C308.487 32.68 312.159 36.244 316.425 36.244C320.205 36.244 322.797 33.76 322.797 30.142C322.797 19.612 302.223 23.5 302.223 10.54C302.223 4.33 307.299 0.117998 315.453 0.117998C321.879 0.117998 327.711 2.98 329.493 8.38L323.175 10.162C322.041 4.924 318.585 1.63 314.643 1.63C311.079 1.63 308.649 3.898 308.649 7.192C308.649 16.912 329.709 13.51 329.709 26.794C329.709 33.598 324.147 37.756 315.615 37.756Z" fill="#182B3A"/>
<path d="M200.816 113.917C195.226 113.917 191.69 109.913 191.69 104.141C191.69 98.3947 195.434 94.2087 201.128 94.2087C205.21 94.2087 208.122 96.2367 209.162 99.3827L206.276 100.007C205.47 98.0567 203.65 96.7307 201.154 96.7307C197.124 96.7307 194.706 99.8247 194.706 104.115C194.706 108.431 197.228 111.525 201.18 111.525C204.638 111.525 206.458 109.393 206.666 105.961H200.296V103.413H209.318V113.553H206.536V112.981C206.536 112.435 206.562 111.889 206.562 111.577H206.51C205.756 112.695 203.52 113.917 200.816 113.917ZM218.917 113.891C214.627 113.891 211.975 111.057 211.975 106.767C211.975 102.607 214.627 99.5127 218.813 99.5127C223.467 99.5127 225.417 103.023 225.417 107.443H214.679C214.757 109.835 216.499 111.629 218.969 111.629C221.153 111.629 222.375 110.485 222.999 109.367L225.313 110.355C224.247 112.357 222.115 113.891 218.917 113.891ZM214.705 105.363H222.583C222.453 103.491 221.205 101.697 218.787 101.697C216.473 101.697 214.991 103.361 214.705 105.363ZM228.527 113.553V102.581C228.527 101.879 228.501 100.553 228.501 99.8767H231.153V100.449C231.153 100.761 231.153 101.359 231.127 101.697H231.153C232.011 100.423 233.441 99.5127 235.521 99.5127C238.511 99.5127 240.487 101.359 240.487 104.999V113.553H237.731V106.715C237.731 103.543 237.133 101.879 234.767 101.879C232.349 101.879 231.283 103.543 231.283 106.793V113.553H228.527ZM250.427 113.891C246.137 113.891 243.485 111.057 243.485 106.767C243.485 102.607 246.137 99.5127 250.323 99.5127C254.977 99.5127 256.927 103.023 256.927 107.443H246.189C246.267 109.835 248.009 111.629 250.479 111.629C252.663 111.629 253.885 110.485 254.509 109.367L256.823 110.355C255.757 112.357 253.625 113.891 250.427 113.891ZM246.215 105.363H254.093C253.963 103.491 252.715 101.697 250.297 101.697C247.983 101.697 246.501 103.361 246.215 105.363ZM263.214 113.553L258.092 99.8767H261.082L263.11 105.961C263.63 107.547 264.202 109.211 264.696 110.771H264.774C265.268 109.211 265.814 107.599 266.36 105.961L268.44 99.8767H271.326L266.126 113.553H263.214ZM277.369 113.787C274.431 113.787 272.455 112.305 272.455 109.783C272.455 107.001 274.561 106.195 277.603 105.571L280.177 105.077C281.295 104.869 281.607 104.895 281.607 104.037C281.607 102.659 280.541 101.775 278.695 101.775C276.693 101.775 275.757 102.763 275.549 104.297L272.923 104.089C273.209 101.385 275.497 99.6427 278.695 99.6427C282.257 99.6427 284.285 101.203 284.285 104.765V112.955C284.285 113.189 284.311 113.423 284.311 113.553H281.789V113.033C281.789 112.747 281.789 112.565 281.815 112.383C281.815 112.305 281.815 112.201 281.841 112.123H281.763C280.801 113.163 279.423 113.787 277.369 113.787ZM277.993 111.837C280.307 111.837 281.659 110.381 281.659 108.067V107.495C281.659 107.313 281.685 107.079 281.711 106.897C281.321 107.027 280.853 107.079 280.359 107.183L278.409 107.573C276.251 107.989 275.289 108.301 275.289 109.731C275.289 111.083 276.329 111.837 277.993 111.837ZM294.752 113.553V94.5727H299.198L302.318 103.413C303.124 105.701 303.878 107.989 304.684 110.277H304.762C305.594 107.729 306.192 105.779 307.024 103.465L310.144 94.5727H314.538V113.553H311.73V103.907C311.73 101.281 311.782 99.4607 311.782 96.9647H311.704C311.158 98.7587 310.768 99.6687 310.3 101.177L305.984 113.553H303.202L299.328 102.529C298.626 100.553 298.028 98.7327 297.534 96.9647H297.43C297.456 98.1867 297.508 99.3307 297.508 100.709V113.553H294.752ZM322.869 113.787C319.931 113.787 317.955 112.305 317.955 109.783C317.955 107.001 320.061 106.195 323.103 105.571L325.677 105.077C326.795 104.869 327.107 104.895 327.107 104.037C327.107 102.659 326.041 101.775 324.195 101.775C322.193 101.775 321.257 102.763 321.049 104.297L318.423 104.089C318.709 101.385 320.997 99.6427 324.195 99.6427C327.757 99.6427 329.785 101.203 329.785 104.765V112.955C329.785 113.189 329.811 113.423 329.811 113.553H327.289V113.033C327.289 112.747 327.289 112.565 327.315 112.383C327.315 112.305 327.315 112.201 327.341 112.123H327.263C326.301 113.163 324.923 113.787 322.869 113.787ZM323.493 111.837C325.807 111.837 327.159 110.381 327.159 108.067V107.495C327.159 107.313 327.185 107.079 327.211 106.897C326.821 107.027 326.353 107.079 325.859 107.183L323.909 107.573C321.751 107.989 320.789 108.301 320.789 109.731C320.789 111.083 321.829 111.837 323.493 111.837ZM338.297 113.865C335.203 113.865 333.045 112.643 332.447 110.043L334.891 109.367C335.411 110.823 336.503 111.733 338.453 111.733C339.935 111.733 341.105 111.005 341.105 109.861C341.105 108.795 340.221 108.353 338.557 107.963L336.997 107.599C334.605 107.053 332.941 106.013 332.941 103.647C332.941 101.021 335.307 99.5127 338.219 99.5127C341.001 99.5127 343.003 100.761 343.549 103.049L341.157 103.725C340.767 102.451 339.779 101.723 338.141 101.723C336.685 101.723 335.723 102.425 335.723 103.387C335.723 104.505 336.451 104.869 338.141 105.259L339.805 105.649C342.327 106.247 343.887 107.261 343.887 109.575C343.887 112.383 341.521 113.865 338.297 113.865ZM352.49 113.553H349.032C347.862 112.903 347.576 111.733 347.576 109.419V102.087H345.288V99.8767H347.576V96.1327H350.28V99.8767H353.088V102.087H350.28V108.535C350.28 111.733 351.06 112.513 352.49 112.981V113.553ZM361.41 113.891C357.12 113.891 354.468 111.057 354.468 106.767C354.468 102.607 357.12 99.5127 361.306 99.5127C365.96 99.5127 367.91 103.023 367.91 107.443H357.172C357.25 109.835 358.992 111.629 361.462 111.629C363.646 111.629 364.868 110.485 365.492 109.367L367.806 110.355C366.74 112.357 364.608 113.891 361.41 113.891ZM357.198 105.363H365.076C364.946 103.491 363.698 101.697 361.28 101.697C358.966 101.697 357.484 103.361 357.198 105.363ZM371.019 113.553V102.373C371.019 101.255 371.019 100.683 370.993 99.8767H373.593V100.605C373.593 100.995 373.593 101.567 373.567 101.957H373.619C374.425 100.397 375.751 99.5907 377.623 99.5907C377.909 99.5907 378.169 99.6167 378.377 99.6687L378.299 102.295C378.013 102.217 377.727 102.191 377.389 102.191C374.789 102.191 373.697 103.699 373.697 106.793V113.553H371.019ZM391.838 117.349L389.68 117.531C386.95 113.813 385.572 109.913 385.572 105.831C385.572 101.775 386.95 97.8487 389.654 94.1827L391.812 94.3647C389.55 97.9267 388.432 101.749 388.432 105.831C388.432 110.017 389.576 113.787 391.838 117.349ZM394.766 113.553V94.5727H397.678V110.979H406.518V113.553H394.766ZM409.238 113.553V94.5727H412.15V110.979H420.99V113.553H409.238ZM423.009 113.553V110.277H426.103V113.553H423.009ZM435.645 113.553V94.5727H440.091L443.211 103.413C444.017 105.701 444.771 107.989 445.577 110.277H445.655C446.487 107.729 447.085 105.779 447.917 103.465L451.037 94.5727H455.431V113.553H452.623V103.907C452.623 101.281 452.675 99.4607 452.675 96.9647H452.597C452.051 98.7587 451.661 99.6687 451.193 101.177L446.877 113.553H444.095L440.221 102.529C439.519 100.553 438.921 98.7327 438.427 96.9647H438.323C438.349 98.1867 438.401 99.3307 438.401 100.709V113.553H435.645ZM459.419 113.553V110.277H462.513V113.553H459.419ZM466.174 117.505L464.016 117.349C466.278 113.735 467.422 110.017 467.422 105.857C467.422 101.775 466.304 97.9267 464.042 94.3647L466.2 94.2087C468.904 97.8747 470.282 101.775 470.282 105.857C470.282 109.913 468.904 113.839 466.174 117.505ZM192.834 142.553V123.573H195.746V142.553H192.834ZM200.14 142.553V131.581C200.14 130.879 200.114 129.553 200.114 128.877H202.766V129.449C202.766 129.761 202.766 130.359 202.74 130.697H202.766C203.624 129.423 205.054 128.513 207.134 128.513C210.124 128.513 212.1 130.359 212.1 133.999V142.553H209.344V135.715C209.344 132.543 208.746 130.879 206.38 130.879C203.962 130.879 202.896 132.543 202.896 135.793V142.553H200.14ZM221.576 142.553H218.118C216.948 141.903 216.662 140.733 216.662 138.419V131.087H214.374V128.877H216.662V125.133H219.366V128.877H222.174V131.087H219.366V137.535C219.366 140.733 220.146 141.513 221.576 141.981V142.553ZM230.496 142.891C226.206 142.891 223.554 140.057 223.554 135.767C223.554 131.607 226.206 128.513 230.392 128.513C235.046 128.513 236.996 132.023 236.996 136.443H226.258C226.336 138.835 228.078 140.629 230.548 140.629C232.732 140.629 233.954 139.485 234.578 138.367L236.892 139.355C235.826 141.357 233.694 142.891 230.496 142.891ZM226.284 134.363H234.162C234.032 132.491 232.784 130.697 230.366 130.697C228.052 130.697 226.57 132.361 226.284 134.363ZM240.105 142.553V131.373C240.105 130.255 240.105 129.683 240.079 128.877H242.679V129.605C242.679 129.995 242.679 130.567 242.653 130.957H242.705C243.511 129.397 244.837 128.591 246.709 128.591C246.995 128.591 247.255 128.617 247.463 128.669L247.385 131.295C247.099 131.217 246.813 131.191 246.475 131.191C243.875 131.191 242.783 132.699 242.783 135.793V142.553H240.105ZM249.956 142.553V131.581C249.956 130.879 249.93 129.553 249.93 128.877H252.582V129.449C252.582 129.761 252.582 130.359 252.556 130.697H252.582C253.44 129.423 254.87 128.513 256.95 128.513C259.94 128.513 261.916 130.359 261.916 133.999V142.553H259.16V135.715C259.16 132.543 258.562 130.879 256.196 130.879C253.778 130.879 252.712 132.543 252.712 135.793V142.553H249.956ZM269.777 142.787C266.839 142.787 264.863 141.305 264.863 138.783C264.863 136.001 266.969 135.195 270.011 134.571L272.585 134.077C273.703 133.869 274.015 133.895 274.015 133.037C274.015 131.659 272.949 130.775 271.103 130.775C269.101 130.775 268.165 131.763 267.957 133.297L265.331 133.089C265.617 130.385 267.905 128.643 271.103 128.643C274.665 128.643 276.693 130.203 276.693 133.765V141.955C276.693 142.189 276.719 142.423 276.719 142.553H274.197V142.033C274.197 141.747 274.197 141.565 274.223 141.383C274.223 141.305 274.223 141.201 274.249 141.123H274.171C273.209 142.163 271.831 142.787 269.777 142.787ZM270.401 140.837C272.715 140.837 274.067 139.381 274.067 137.067V136.495C274.067 136.313 274.093 136.079 274.119 135.897C273.729 136.027 273.261 136.079 272.767 136.183L270.817 136.573C268.659 136.989 267.697 137.301 267.697 138.731C267.697 140.083 268.737 140.837 270.401 140.837ZM286.119 142.553H282.661C281.491 141.903 281.205 140.733 281.205 138.419V131.087H278.917V128.877H281.205V125.133H283.909V128.877H286.717V131.087H283.909V137.535C283.909 140.733 284.689 141.513 286.119 141.981V142.553ZM289.236 142.553V128.877H291.992V142.553H289.236ZM289.21 126.771V123.573H292.018V126.771H289.21ZM302.097 142.917C297.937 142.917 295.129 140.005 295.129 135.715C295.129 131.451 297.963 128.487 302.149 128.487C306.257 128.487 309.117 131.451 309.117 135.715C309.117 139.979 306.257 142.917 302.097 142.917ZM302.097 140.603C304.723 140.603 306.231 138.627 306.231 135.741C306.231 132.933 304.723 130.801 302.123 130.801C299.471 130.801 297.989 132.881 297.989 135.715C297.989 138.627 299.497 140.603 302.097 140.603ZM312.265 142.553V131.581C312.265 130.879 312.239 129.553 312.239 128.877H314.891V129.449C314.891 129.761 314.891 130.359 314.865 130.697H314.891C315.749 129.423 317.179 128.513 319.259 128.513C322.249 128.513 324.225 130.359 324.225 133.999V142.553H321.469V135.715C321.469 132.543 320.871 130.879 318.505 130.879C316.087 130.879 315.021 132.543 315.021 135.793V142.553H312.265ZM332.085 142.787C329.147 142.787 327.171 141.305 327.171 138.783C327.171 136.001 329.277 135.195 332.319 134.571L334.893 134.077C336.011 133.869 336.323 133.895 336.323 133.037C336.323 131.659 335.257 130.775 333.411 130.775C331.409 130.775 330.473 131.763 330.265 133.297L327.639 133.089C327.925 130.385 330.213 128.643 333.411 128.643C336.973 128.643 339.001 130.203 339.001 133.765V141.955C339.001 142.189 339.027 142.423 339.027 142.553H336.505V142.033C336.505 141.747 336.505 141.565 336.531 141.383C336.531 141.305 336.531 141.201 336.557 141.123H336.479C335.517 142.163 334.139 142.787 332.085 142.787ZM332.709 140.837C335.023 140.837 336.375 139.381 336.375 137.067V136.495C336.375 136.313 336.401 136.079 336.427 135.897C336.037 136.027 335.569 136.079 335.075 136.183L333.125 136.573C330.967 136.989 330.005 137.301 330.005 138.731C330.005 140.083 331.045 140.837 332.709 140.837ZM342.886 142.553V123.573H345.642V142.553H342.886ZM356.324 142.553V123.573H362.85C369.22 123.573 372.236 127.161 372.236 132.907C372.236 138.315 369.584 142.553 363.006 142.553H356.324ZM359.236 140.083H362.512C366.672 140.083 369.246 138.003 369.246 133.141C369.246 130.359 368.544 128.331 366.776 127.187C365.294 126.277 363.552 126.069 360.718 126.069H359.236V140.083ZM375.538 142.553V128.877H378.294V142.553H375.538ZM375.512 126.771V123.573H378.32V126.771H375.512ZM387.022 142.865C383.928 142.865 381.77 141.643 381.172 139.043L383.616 138.367C384.136 139.823 385.228 140.733 387.178 140.733C388.66 140.733 389.83 140.005 389.83 138.861C389.83 137.795 388.946 137.353 387.282 136.963L385.722 136.599C383.33 136.053 381.666 135.013 381.666 132.647C381.666 130.021 384.032 128.513 386.944 128.513C389.726 128.513 391.728 129.761 392.274 132.049L389.882 132.725C389.492 131.451 388.504 130.723 386.866 130.723C385.41 130.723 384.448 131.425 384.448 132.387C384.448 133.505 385.176 133.869 386.866 134.259L388.53 134.649C391.052 135.247 392.612 136.261 392.612 138.575C392.612 141.383 390.246 142.865 387.022 142.865ZM395.648 147.441V130.437C395.648 129.917 395.622 129.371 395.622 128.877H398.3V129.501C398.3 129.813 398.274 130.333 398.274 130.723H398.326C399.236 129.449 400.77 128.539 402.824 128.539C406.49 128.539 409.142 131.451 409.142 135.715C409.142 140.031 406.49 142.865 402.824 142.865C400.77 142.865 399.314 142.137 398.352 140.811H398.326C398.404 141.669 398.378 142.553 398.378 143.385V147.441H395.648ZM402.33 140.603C404.8 140.603 406.282 138.575 406.282 135.793C406.282 132.959 404.8 130.905 402.304 130.905C399.834 130.905 398.274 132.855 398.274 135.767C398.274 138.627 399.834 140.603 402.33 140.603ZM417.062 142.865C414.15 142.865 412.122 141.331 412.122 137.717V128.877H414.878V137.015C414.878 139.407 415.866 140.603 417.842 140.603C420.156 140.603 421.248 138.809 421.248 136.131V128.877H424.004V140.525C424.004 141.253 424.004 141.799 424.03 142.553H421.378V141.955C421.378 141.669 421.378 141.123 421.404 140.811H421.352C420.442 142.085 419.038 142.865 417.062 142.865ZM433.816 142.553H430.358C429.188 141.903 428.902 140.733 428.902 138.419V131.087H426.614V128.877H428.902V125.133H431.606V128.877H434.414V131.087H431.606V137.535C431.606 140.733 432.386 141.513 433.816 141.981V142.553ZM442.736 142.891C438.446 142.891 435.794 140.057 435.794 135.767C435.794 131.607 438.446 128.513 442.632 128.513C447.286 128.513 449.236 132.023 449.236 136.443H438.498C438.576 138.835 440.318 140.629 442.788 140.629C444.972 140.629 446.194 139.485 446.818 138.367L449.132 139.355C448.066 141.357 445.934 142.891 442.736 142.891ZM438.524 134.363H446.402C446.272 132.491 445.024 130.697 442.606 130.697C440.292 130.697 438.81 132.361 438.524 134.363ZM198.58 171.917C194.836 171.917 191.976 170.097 191.352 166.795L194.134 166.119C194.576 168.277 196.24 169.499 198.606 169.499C200.972 169.499 202.584 168.329 202.584 166.457C202.584 164.897 201.414 164.169 199.23 163.519L197.67 163.051C194.16 162.011 192.028 160.763 192.028 157.617C192.028 154.367 194.81 152.209 198.684 152.209C202.142 152.209 204.482 153.899 205.184 156.785L202.532 157.487C202.038 155.693 200.686 154.705 198.58 154.705C196.5 154.705 195.07 155.719 195.07 157.383C195.07 159.021 196.136 159.567 198.71 160.399L200.556 160.971C203.468 161.881 205.6 162.973 205.6 166.197C205.6 169.811 202.61 171.917 198.58 171.917ZM214.728 171.891C210.438 171.891 207.786 169.057 207.786 164.767C207.786 160.607 210.438 157.513 214.624 157.513C219.278 157.513 221.228 161.023 221.228 165.443H210.49C210.568 167.835 212.31 169.629 214.78 169.629C216.964 169.629 218.186 168.485 218.81 167.367L221.124 168.355C220.058 170.357 217.926 171.891 214.728 171.891ZM210.516 163.363H218.394C218.264 161.491 217.016 159.697 214.598 159.697C212.284 159.697 210.802 161.361 210.516 163.363ZM229.828 171.553H226.37C225.2 170.903 224.914 169.733 224.914 167.419V160.087H222.626V157.877H224.914V154.133H227.618V157.877H230.426V160.087H227.618V166.535C227.618 169.733 228.398 170.513 229.828 170.981V171.553ZM238.639 171.553H235.181C234.011 170.903 233.725 169.733 233.725 167.419V160.087H231.437V157.877H233.725V154.133H236.429V157.877H239.237V160.087H236.429V166.535C236.429 169.733 237.209 170.513 238.639 170.981V171.553ZM241.755 171.553V152.573H244.511V171.553H241.755ZM254.617 171.891C250.327 171.891 247.675 169.057 247.675 164.767C247.675 160.607 250.327 157.513 254.513 157.513C259.167 157.513 261.117 161.023 261.117 165.443H250.379C250.457 167.835 252.199 169.629 254.669 169.629C256.853 169.629 258.075 168.485 258.699 167.367L261.013 168.355C259.947 170.357 257.815 171.891 254.617 171.891ZM250.405 163.363H258.283C258.153 161.491 256.905 159.697 254.487 159.697C252.173 159.697 250.691 161.361 250.405 163.363ZM264.226 171.553V160.243C264.226 159.281 264.226 158.787 264.2 157.877H266.826V158.683C266.826 158.969 266.826 159.437 266.8 159.723H266.852C267.554 158.475 269.036 157.513 271.012 157.513C272.91 157.513 274.34 158.371 275.146 160.009C276.004 158.553 277.59 157.513 279.774 157.513C282.998 157.513 284.662 159.567 284.662 163.233V171.553H281.906V163.857C281.906 161.361 281.152 159.879 279.072 159.879C276.576 159.879 275.822 161.959 275.822 164.611V171.553H273.066V163.909C273.066 161.335 272.26 159.879 270.258 159.879C267.84 159.879 266.982 161.855 266.982 164.767V171.553H264.226ZM294.581 171.891C290.291 171.891 287.639 169.057 287.639 164.767C287.639 160.607 290.291 157.513 294.477 157.513C299.131 157.513 301.081 161.023 301.081 165.443H290.343C290.421 167.835 292.163 169.629 294.633 169.629C296.817 169.629 298.039 168.485 298.663 167.367L300.977 168.355C299.911 170.357 297.779 171.891 294.581 171.891ZM290.369 163.363H298.247C298.117 161.491 296.869 159.697 294.451 159.697C292.137 159.697 290.655 161.361 290.369 163.363ZM304.191 171.553V160.581C304.191 159.879 304.165 158.553 304.165 157.877H306.817V158.449C306.817 158.761 306.817 159.359 306.791 159.697H306.817C307.675 158.423 309.105 157.513 311.185 157.513C314.175 157.513 316.151 159.359 316.151 162.999V171.553H313.395V164.715C313.395 161.543 312.797 159.879 310.431 159.879C308.013 159.879 306.947 161.543 306.947 164.793V171.553H304.191ZM325.627 171.553H322.169C320.999 170.903 320.713 169.733 320.713 167.419V160.087H318.425V157.877H320.713V154.133H323.417V157.877H326.225V160.087H323.417V166.535C323.417 169.733 324.197 170.513 325.627 170.981V171.553Z" fill="#182B3A"/>
<path d="M98.8129 169.723C94.4053 168.619 90.4339 167.206 90.4339 167.206C91.0609 167.097 90.4884 167.17 94.5325 166.413C98.5403 165.665 99.4582 165.51 102.957 165.456C109.182 165.364 108.619 168.163 108.619 168.163C108.619 169.987 107.192 171.245 107.192 171.245C107.192 171.245 104.02 171.017 98.8129 169.723ZM45.0214 160.879C38.5326 160.687 38.778 157.925 38.778 157.925C38.778 156.101 40.3047 154.98 40.3047 154.98C40.3047 154.98 43.6037 155.144 48.802 156.347C53.2187 157.378 60.4618 159.812 60.4618 159.812C59.8438 159.931 57.6173 160.35 52.8461 160.678C50.1833 160.851 49.1201 160.924 47.7205 160.924C47.0026 160.924 46.1846 160.924 45.0214 160.879ZM117.398 158.408C115.453 158.125 113.008 157.606 110.182 156.94C103.33 155.354 97.8951 153.585 97.8951 153.585C98.8039 153.457 98.1859 153.311 104.102 152.691C109.855 152.09 110.845 151.616 115.944 151.743C125.786 151.989 125.204 155.19 125.204 155.19C125.204 157.305 122.851 158.791 122.851 158.791C122.851 158.791 122.696 158.791 122.369 158.791C121.587 158.791 119.888 158.745 117.416 158.39M31.0532 142.444C24.2463 141.787 24.6462 139.088 24.6462 139.088C24.6462 136.836 26.7728 135.815 26.7728 135.815C26.7728 135.815 26.7728 135.378 34.9701 136.681C41.0772 137.657 53.2823 141.577 53.2823 141.577C52.6553 141.714 45.0305 142.571 40.2593 142.69C38.4054 142.735 37.3966 142.781 36.3878 142.781C35.1246 142.781 33.8796 142.699 31.0532 142.434M117.216 138.131C105.52 134.721 104.702 134.484 104.702 134.484C104.702 134.484 117.171 132.633 125.05 132.378C132.92 132.132 134.665 132.478 136.51 133.381C138.346 134.274 139.681 135.633 138.664 137.83C137.655 140.037 136.464 140.584 135.765 140.93C135.765 140.93 135.292 140.985 134.383 140.985C131.829 140.985 125.84 140.647 117.216 138.131ZM21.4745 120.726C14.4768 119.778 14.5222 116.678 14.5222 116.678C14.5222 113.569 17.0941 112.648 17.0941 112.648C17.0941 112.648 16.5216 112.211 24.9825 113.359C34.2249 114.608 50.8831 119.778 50.8831 119.778C50.256 119.887 42.6222 120.516 37.8601 120.872C35.2973 121.054 32.5345 121.255 29.5719 121.255C27.0182 121.255 24.319 121.109 21.4654 120.726M127.785 116.797C119.224 114.69 109.628 111.244 109.628 111.244C110.655 111.043 114.753 110.241 121.424 109.521C128.076 108.782 129.785 108.637 135.446 108.609C148.015 108.536 147.388 112.885 147.388 112.885C147.67 116.496 143.235 119.039 143.235 119.039C143.235 119.039 136.428 118.912 127.776 116.797M18.4482 96.4558C11.2142 95.9088 10.6235 92.0065 10.6235 92.0065C10.6235 88.1043 14.5859 86.0985 14.5859 86.0985C14.5859 86.0985 13.8952 85.5971 23.8737 86.992C33.8614 88.4052 53.2005 95.0973 53.2005 95.0973C52.4553 95.2523 43.9036 96.1367 38.2872 96.6017C35.7608 96.8022 32.9526 96.9025 29.9627 96.9025C26.3275 96.9025 22.4106 96.7475 18.4391 96.4467M129.712 91.7239C121.987 89.9278 110.255 86.062 110.255 86.062C114.626 85.2324 130.203 83.7645 131.866 83.7645C138.418 83.7645 147.143 83.2266 149.151 86.6638C150.314 88.6514 149.087 90.876 147.642 92.2527C146.679 93.1827 145.598 93.7571 145.598 93.7571C145.243 93.7935 144.852 93.7935 144.407 93.7935C141.445 93.7935 136.392 93.2738 129.712 91.7239ZM13.6498 68.0827C11.7232 64.4814 16.9033 61.3359 16.9033 61.3359C19.3752 61.4635 22.765 61.5547 33.198 63.8796C40.6137 65.5481 53.8549 70.0885 53.8549 70.0885C49.3291 70.8453 38.6416 71.6476 31.2622 71.9211C30.617 71.9393 29.899 71.9576 29.1084 71.9576C23.7102 71.9576 15.3765 71.292 13.6498 68.0827ZM128.93 66.0131C122.014 64.6546 111.3 61.4909 111.3 61.4909C119.561 60.2236 125.513 60.1324 130.657 59.6674C138.8 58.9016 143.762 60.1689 145.18 62.1564C146.243 63.6334 145.307 65.3475 144.298 66.4416C143.562 67.2439 142.753 67.636 142.753 67.636C142.435 67.6542 142.081 67.6633 141.699 67.6633C139.118 67.6633 134.983 67.2074 128.921 66.0222M29.8082 48.4258C26.6092 48.0884 23.6193 47.204 22.4106 45.4718C20.5203 42.773 24.7553 39.7187 24.7553 39.7187C26.8637 39.8373 30.2626 39.8099 39.6868 41.8704C46.0302 43.2471 57.5718 46.8758 57.5718 46.8758C53.7004 47.5232 44.1126 48.2343 38.1873 48.4805C37.0422 48.5169 35.4518 48.6081 33.7342 48.6081C32.4618 48.6081 31.1168 48.5716 29.8082 48.4349M122.096 43.466C116.762 42.5725 108.283 39.9558 108.283 39.9558C111.409 39.3449 118.906 38.5152 123.487 38.415C128.085 38.3147 133.629 38.5426 135.038 40.4117C136.601 42.5269 132.92 44.8153 132.92 44.8153C132.675 44.8427 132.393 44.8518 132.093 44.8518C130.112 44.8518 126.958 44.2956 122.096 43.466ZM36.2061 26.6536C34.9338 24.3743 37.6874 22.2317 37.6874 22.2317C39.2869 22.3229 43.8218 22.5326 49.1473 23.6905C53.973 24.7299 62.9337 27.7386 62.9337 27.7386C59.9711 28.3403 52.3372 28.8327 47.975 29.0606C47.2388 29.0971 46.4573 29.1153 45.6575 29.1153C41.6861 29.1153 37.2603 28.5591 36.2061 26.6536ZM110.318 24.6296C106.583 23.7361 100.267 21.7394 100.267 21.7394C102.539 21.1285 107.955 20.3718 111.291 20.08C114.608 19.7883 118.679 19.9342 119.679 21.8397C120.679 23.727 118.525 25.7692 118.525 25.7692C118.297 25.8057 118.025 25.8239 117.716 25.8239C116.098 25.8239 113.39 25.3681 110.309 24.6296M53.4732 13.7344C52.6098 11.9018 54.4638 9.91423 54.4638 9.91423C55.518 9.9507 58.2898 10.4795 61.4706 11.1998C64.6514 11.9109 70.1041 13.8438 70.1041 13.8438C68.1502 14.4455 63.5063 15.1749 60.6527 15.4484C59.9711 15.5214 59.244 15.567 58.5352 15.567C56.2904 15.567 54.1366 15.1385 53.4732 13.7344ZM99.2401 5.62909C96.6954 6.38583 90.0158 8.45546 88.4436 8.91133C86.8714 9.36719 83.8905 10.2698 82.0184 10.7895C80.1645 11.3092 76.5656 12.2574 76.4111 12.303C76.4111 12.303 72.1398 10.8351 70.9584 10.5069C69.7679 10.1786 66.6325 9.22132 63.4336 8.7928C60.2437 8.37341 57.5537 8.30047 55.318 8.56487C53.0915 8.84751 49.6744 9.4219 48.293 10.3792C46.9026 11.3274 46.1937 12.4306 45.9665 13.8803C45.9665 13.8803 45.8575 14.9926 46.8208 15.8223C47.7841 16.6337 49.7108 17.1351 51.7828 17.1078C53.8549 17.0713 57.2629 16.889 59.5894 16.5608C61.925 16.2234 66.2054 15.5123 67.3777 15.2843C68.541 15.0564 71.5945 14.3908 71.5945 14.3908C71.5945 14.3908 77.6199 16.7705 79.1648 17.4178C81.873 18.5757 86.4533 20.5268 87.1985 20.8277C87.9983 21.1559 91.3608 22.5691 91.3608 22.5691L71.5945 26.4895C71.5945 26.4895 62.7338 23.4899 56.8539 22.2135C50.9922 20.9279 44.4579 20.0436 37.8783 20.9827C31.2986 21.9309 28.6449 23.5355 27.6816 25.9425C26.7092 28.3494 29.4992 30.8111 37.3239 30.9479C37.3239 30.9479 45.0759 31.2123 61.8614 28.8874L64.9422 28.4406C64.9422 28.4406 77.4017 32.9355 80.6189 34.1936C83.9087 35.4974 97.1044 40.6578 97.1044 40.6578L67.9048 45.4991C67.9048 45.4991 59.3349 42.6545 50.2288 40.3934C41.1136 38.1506 32.8617 37.3938 27.109 38.1141C21.3291 38.8161 13.8134 40.1017 12.7864 44.7059C11.7504 49.3284 20.0659 50.4498 23.483 50.4954C26.9 50.5319 39.9503 50.1489 47.5478 49.3375C55.1454 48.5078 60.4436 47.7876 60.4436 47.7876C60.4436 47.7876 77.8925 54.0056 82.082 55.592C86.317 57.1966 99.2128 62.2476 99.2128 62.2476L65.2966 68.5477C65.2966 68.5477 51.2466 63.524 42.7494 61.6459C34.2522 59.7677 27.3999 59.1751 20.9656 59.5854C14.5495 60.0048 5.47064 61.6459 3.0169 66.6786C3.0169 66.6786 1.22657 70.7997 7.06104 72.8055C12.8955 74.793 30.3625 73.781 30.8805 73.7446C31.3895 73.7081 50.6377 72.0487 55.7179 71.1644C55.8179 71.1461 56.3813 71.0732 56.4722 71.0641C56.4722 71.0641 65.2966 74.3189 69.577 75.9509C75.0298 78.0753 87.8165 83.4727 89.7432 84.2112C91.7789 85.0044 96.9317 87.0832 96.9317 87.0832L64.4332 93.4106C64.4332 93.4106 44.6942 86.062 30.3989 84.4847C16.0763 82.871 0.944847 86.4723 0.254163 92.2527C-0.427433 98.0331 7.86077 98.7807 16.6943 99.0086C25.5277 99.2366 47.3479 97.3584 55.2817 95.854L96.232 112.211L61.2888 118.447C61.2888 118.447 37.1967 110.56 25.5914 110.706C13.9951 110.87 5.91595 112.885 5.15257 117.781C5.15257 117.781 4.81631 123.48 18.5573 123.097C32.2983 122.723 42.5131 122.65 52.8643 120.763L53.6913 120.617C53.6913 120.617 68.6046 125.722 76.4202 128.731C84.2177 131.74 93.1875 135.177 93.1875 135.177L62.3975 140.356C62.3975 140.356 40.023 132.187 27.3908 134.511C27.3908 134.511 16.8942 135.259 16.2671 140.356C15.6491 145.47 36.5696 144.331 42.9221 143.647C49.2745 142.972 55.3453 142.298 55.3453 142.298L86.835 154.086L67.1596 158.216C67.1596 158.216 51.2739 152.281 42.2314 153.558C42.2314 153.558 31.3259 154.013 31.5258 159.338C31.5258 159.338 31.2895 162.985 43.4037 162.42C55.518 161.863 60.1801 160.396 62.0795 160.432C62.0795 160.432 68.95 162.985 72.058 164.234C75.1661 165.465 82.1366 168.127 82.1366 168.127C82.1366 168.127 69.2953 171.437 66.2872 172.294C63.2882 173.16 56.5176 174.81 56.6267 175.229C56.7267 175.64 60.6345 174.965 62.2067 174.555C63.7971 174.144 82.9636 168.747 83.7179 168.701C83.7179 168.701 95.2868 172.941 102.185 172.704C109.082 172.485 112.508 171.473 113.89 170.342C115.271 169.221 115.998 167.872 115.862 166.404C115.726 164.936 112.69 163.632 108.001 163.96C103.302 164.307 99.1946 164.608 88.9071 166.632L69.6406 159.137L88.9071 154.889C88.9071 154.889 97.1226 157.441 101.494 158.426C105.892 159.383 113.299 160.97 119.306 160.332C125.322 159.693 131.984 158.982 133.329 154.105C133.329 154.105 134.919 148.899 117.861 150.357C100.812 151.816 95.8321 152.865 95.8321 152.865L66.5598 141.796L94.9778 136.134C94.9778 136.134 111.227 141.24 118.416 142.097C125.595 142.945 131.63 143.647 140.499 141.286C149.378 138.933 148.324 134.539 148.051 133.937C147.779 133.335 146.67 131.485 141.29 130.728C135.91 129.98 127.667 130.527 123.487 130.974C119.297 131.43 102.584 133.527 102.221 133.673C102.221 133.673 70.7312 121.41 63.9243 119.322L98.6766 113.058C98.6766 113.058 114.417 118.611 123.859 120.115C133.293 121.62 139.136 121.41 147.842 119.559C156.54 117.708 157.785 113.113 157.639 110.998C157.503 108.91 153.74 105.801 142.453 106.457C131.175 107.105 119.261 107.962 107.192 110.305L66.7779 94.2494L100.467 88.2411L108.982 90.8486C125.459 96.2552 138.391 96.0546 138.391 96.0546C150.078 95.5623 156.476 93.055 159.375 88.5511C162.283 84.0471 154.867 82.1507 154.867 82.1507C147.915 80.7375 132.075 82.0504 127.022 82.5063C121.96 82.953 107.51 85.1594 107.51 85.1594C103.693 83.9742 93.1602 79.2788 83.2816 75.331C75.0025 72.067 67.6504 69.3956 67.6504 69.3956L101.43 63.0408C101.43 63.0408 110.954 65.9401 121.124 68.0918C131.293 70.2435 140.045 70.1432 148.097 67.8001C156.167 65.4478 154.867 61.4453 154.867 61.4453C152.923 56.5766 140.272 57.5431 132.775 58.0354C125.268 58.5369 108.891 60.6339 108.891 60.6339C108.891 60.6339 101.103 57.8348 96.959 56.2393C92.824 54.6347 70.4949 46.3379 70.4949 46.3379L99.1765 41.3234C112.381 45.1253 119.933 46.8758 129.367 46.3835C138.8 45.882 142.39 42.8824 143.353 40.9313C144.316 38.9802 142.435 37.6765 139.036 36.9835C135.619 36.2815 132.493 36.6827 126.604 36.9835C120.715 37.2844 105.938 39.2811 105.938 39.2811C105.938 39.2811 98.0223 36.4274 95.9502 35.5795C93.8873 34.7316 73.4485 27.1186 73.4485 27.1186C76.7565 26.5169 93.0603 23.0979 93.0603 23.0979C93.0603 23.0979 102.312 26.5624 111.227 27.1733C120.17 27.7659 124.586 25.2587 124.586 25.2587C128.585 22.2591 126.886 20.6088 126.886 20.6088C125.041 18.0104 118.043 18.6577 112.981 19.0498C107.928 19.4601 98.5312 21.1559 98.5312 21.1559C97.477 20.5086 78.0379 12.9047 78.0379 12.9047C78.0379 12.9047 82.909 11.6374 83.6088 11.4551C84.3086 11.2636 90.1339 9.6316 92.1969 9.01162C94.269 8.36429 95.2414 8.13636 97.8133 7.3158C100.394 6.49524 100.285 6.65023 102.003 6.09408C103.72 5.53792 103.866 5.42851 103.929 5.28264C103.993 5.12764 103.102 5.01823 102.903 5.00912C102.848 5.00912 102.757 5 102.612 5C102.148 5 101.149 5.08206 99.2401 5.64733" fill="#182B3A"/>
</svg>
