<svg width="162" height="101" viewBox="0 0 162 101" fill="none" xmlns="http://www.w3.org/2000/svg">
<path d="M11.2975 27.0825C5.68705 27.0825 1.73356 22.8093 1.73356 17.3732C1.67542 11.3849 5.30914 6.79183 11.501 6.79183C15.3091 6.79183 18.2743 8.44881 19.2045 11.2686L15.5998 12.3442C15.0766 9.49532 13.4487 7.60579 11.2103 7.60579C7.98356 7.60579 5.77425 10.8907 5.80332 15.8325C5.83239 20.8325 8.91379 24.1465 13.0417 24.1465C15.9777 24.1465 18.2743 22.5186 19.1463 19.9895L19.5533 20.0767C18.7394 24.35 15.5708 27.0825 11.2975 27.0825ZM20.6225 26.6465V26.2395C22.3958 26.036 23.1807 25.629 23.1807 24.2337V9.6116C23.1807 8.24532 22.3958 7.83835 20.6225 7.63486V7.22788H29.6923V7.63486C27.9191 7.83835 27.1342 8.24532 27.1342 9.6116V24.2337C27.1342 25.629 27.9191 26.036 29.6923 26.2395V26.6465H20.6225ZM39.837 7.22788C47.5986 7.22788 50.7381 11.5883 50.7381 16.2976C50.7381 22.8383 45.5637 26.6465 40.244 26.6465H30.9707V26.2395C32.744 26.036 33.5288 25.629 33.5288 24.2337V9.6116C33.5288 8.24532 32.744 7.83835 30.9707 7.63486V7.22788H39.837ZM40.244 25.8325C44.023 25.8325 46.5812 22.4895 46.5812 16.9372C46.5812 12.5767 43.9067 8.04183 39.3428 8.04183H37.4823V24.35C37.4823 25.4546 38.1509 25.8325 40.244 25.8325ZM60.1595 27.0535C56.3513 27.0535 53.2118 25.4256 52.2816 22.4023L55.7118 21.443C56.3223 24.3209 58.299 26.2395 60.5955 26.2395C62.6304 26.2395 64.0257 24.9023 64.0257 22.9546C64.0257 17.286 52.9502 19.379 52.9502 12.4023C52.9502 9.05928 55.6827 6.79183 60.0723 6.79183C63.5316 6.79183 66.6711 8.33253 67.6304 11.2395L64.2292 12.1988C63.6188 9.37904 61.7583 7.60579 59.6362 7.60579C57.7176 7.60579 56.4095 8.82672 56.4095 10.6C56.4095 15.8325 67.7467 14.0011 67.7467 21.1523C67.7467 24.8151 64.7525 27.0535 60.1595 27.0535Z" fill="white"/>
<path d="M7.01922 61.8679C3.55847 61.8679 1.36935 59.3891 1.36935 55.8156C1.36935 52.2583 3.68724 49.6668 7.21238 49.6668C9.73953 49.6668 11.5423 50.9223 12.1862 52.87L10.3995 53.2563C9.90049 52.0491 8.77374 51.2281 7.22847 51.2281C4.73352 51.2281 3.23654 53.1436 3.23654 55.7995C3.23654 58.4716 4.7979 60.3871 7.24457 60.3871C9.38541 60.3871 10.5122 59.0671 10.6409 56.9424H6.69729V55.3649H12.2828V61.6426H10.5605V61.2885C10.5605 60.9504 10.5765 60.6124 10.5765 60.4192H10.5444C10.0776 61.1114 8.69326 61.8679 7.01922 61.8679ZM18.2257 61.8518C15.5697 61.8518 13.9279 60.0973 13.9279 57.4414C13.9279 54.8659 15.5697 52.9505 18.1613 52.9505C21.0425 52.9505 22.2498 55.1235 22.2498 57.8599H15.6019C15.6502 59.3408 16.7287 60.4514 18.2578 60.4514C19.61 60.4514 20.3665 59.7432 20.7528 59.051L22.1854 59.6627C21.5254 60.9021 20.2055 61.8518 18.2257 61.8518ZM15.618 56.5722H20.4953C20.4148 55.4132 19.6421 54.3026 18.1452 54.3026C16.7126 54.3026 15.7951 55.3327 15.618 56.5722ZM24.1747 61.6426V54.8499C24.1747 54.4152 24.1586 53.5943 24.1586 53.1758H25.8004V53.5299C25.8004 53.7231 25.8004 54.0933 25.7843 54.3026H25.8004C26.3316 53.5138 27.2169 52.9505 28.5047 52.9505C30.3558 52.9505 31.5791 54.0933 31.5791 56.3468V61.6426H29.8729V57.4092C29.8729 55.4454 29.5026 54.4152 28.0379 54.4152C26.5409 54.4152 25.8809 55.4454 25.8809 57.4575V61.6426H24.1747ZM37.7332 61.8518C35.0773 61.8518 33.4355 60.0973 33.4355 57.4414C33.4355 54.8659 35.0773 52.9505 37.6688 52.9505C40.5501 52.9505 41.7574 55.1235 41.7574 57.8599H35.1095C35.1578 59.3408 36.2363 60.4514 37.7654 60.4514C39.1175 60.4514 39.8741 59.7432 40.2604 59.051L41.693 59.6627C41.033 60.9021 39.7131 61.8518 37.7332 61.8518ZM35.1256 56.5722H40.0028C39.9224 55.4132 39.1497 54.3026 37.6528 54.3026C36.2202 54.3026 35.3027 55.3327 35.1256 56.5722ZM43.6823 61.6426V54.7211C43.6823 54.0289 43.6823 53.6748 43.6662 53.1758H45.2758V53.6265C45.2758 53.868 45.2758 54.2221 45.2597 54.4635H45.2919C45.7909 53.4977 46.6118 52.9988 47.7708 52.9988C47.9478 52.9988 48.1088 53.0149 48.2376 53.047L48.1893 54.6728C48.0122 54.6245 47.8352 54.6084 47.6259 54.6084C46.0163 54.6084 45.3402 55.542 45.3402 57.4575V61.6426H43.6823ZM52.0547 61.7874C50.2358 61.7874 49.0125 60.8699 49.0125 59.3086C49.0125 57.5863 50.3163 57.0873 52.1996 56.701L53.7931 56.3951C54.4853 56.2663 54.6785 56.2824 54.6785 55.7513C54.6785 54.8981 54.0185 54.3509 52.8756 54.3509C51.6362 54.3509 51.0567 54.9625 50.928 55.9122L49.3022 55.7835C49.4793 54.1094 50.8958 53.0309 52.8756 53.0309C55.0809 53.0309 56.3364 53.9967 56.3364 56.202V61.2724C56.3364 61.4172 56.3525 61.5621 56.3525 61.6426H54.7911V61.3206C54.7911 61.1436 54.7911 61.0309 54.8072 60.9182C54.8072 60.8699 54.8072 60.8056 54.8233 60.7573H54.775C54.1795 61.4011 53.3263 61.7874 52.0547 61.7874ZM52.441 60.5802C53.8736 60.5802 54.7106 59.6788 54.7106 58.2462V57.8921C54.7106 57.7794 54.7267 57.6345 54.7428 57.5219C54.5014 57.6024 54.2117 57.6345 53.9058 57.6989L52.6986 57.9404C51.3626 58.1979 50.767 58.3911 50.767 59.2764C50.767 60.1134 51.4109 60.5802 52.441 60.5802ZM58.7413 61.6426V49.8921H60.4475V61.6426H58.7413ZM72.0669 61.8679C68.5579 61.8679 66.3527 59.3247 66.3527 55.7835C66.3527 52.2422 68.5901 49.6668 72.0669 49.6668C74.578 49.6668 76.3969 50.9223 76.9925 53.0953L75.2058 53.3851C74.6424 51.9686 73.5961 51.2281 72.0026 51.2281C69.6203 51.2281 68.2199 53.2402 68.2199 55.7674C68.2199 58.3911 69.733 60.3388 72.1152 60.3388C73.6605 60.3388 74.739 59.4374 75.238 58.0853L77.0569 58.3589C76.4291 60.4997 74.6585 61.8679 72.0669 61.8679ZM82.5016 61.8518C79.8457 61.8518 78.2039 60.0973 78.2039 57.4414C78.2039 54.8659 79.8457 52.9505 82.4372 52.9505C85.3185 52.9505 86.5258 55.1235 86.5258 57.8599H79.8779C79.9262 59.3408 81.0047 60.4514 82.5338 60.4514C83.8859 60.4514 84.6425 59.7432 85.0288 59.051L86.4614 59.6627C85.8014 60.9021 84.4815 61.8518 82.5016 61.8518ZM79.894 56.5722H84.7712C84.6908 55.4132 83.9181 54.3026 82.4212 54.3026C80.9886 54.3026 80.0711 55.3327 79.894 56.5722ZM88.4507 61.6426V54.8499C88.4507 54.4152 88.4346 53.5943 88.4346 53.1758H90.0764V53.5299C90.0764 53.7231 90.0764 54.0933 90.0603 54.3026H90.0764C90.6076 53.5138 91.4929 52.9505 92.7806 52.9505C94.6317 52.9505 95.8551 54.0933 95.8551 56.3468V61.6426H94.1488V57.4092C94.1488 55.4454 93.7786 54.4152 92.3138 54.4152C90.8169 54.4152 90.1569 55.4454 90.1569 57.4575V61.6426H88.4507ZM101.722 61.6426H99.5809C98.8566 61.2402 98.6795 60.5158 98.6795 59.0832V54.544H97.263V53.1758H98.6795V50.8579H100.354V53.1758H102.092V54.544H100.354V58.536C100.354 60.5158 100.836 60.9987 101.722 61.2885V61.6426ZM107.244 61.8518C104.588 61.8518 102.946 60.0973 102.946 57.4414C102.946 54.8659 104.588 52.9505 107.179 52.9505C110.061 52.9505 111.268 55.1235 111.268 57.8599H104.62C104.668 59.3408 105.747 60.4514 107.276 60.4514C108.628 60.4514 109.385 59.7432 109.771 59.051L111.203 59.6627C110.544 60.9021 109.224 61.8518 107.244 61.8518ZM104.636 56.5722H109.513C109.433 55.4132 108.66 54.3026 107.163 54.3026C105.731 54.3026 104.813 55.3327 104.636 56.5722ZM113.193 61.6426V54.7211C113.193 54.0289 113.193 53.6748 113.177 53.1758H114.786V53.6265C114.786 53.868 114.786 54.2221 114.77 54.4635H114.802C115.301 53.4977 116.122 52.9988 117.281 52.9988C117.458 52.9988 117.619 53.0149 117.748 53.047L117.7 54.6728C117.523 54.6245 117.346 54.6084 117.136 54.6084C115.527 54.6084 114.851 55.542 114.851 57.4575V61.6426H113.193ZM123.281 61.6426V54.544H121.913V53.1758H123.281V52.4354C123.281 50.4877 124.15 49.7956 125.889 49.7956C126.259 49.7956 126.565 49.8277 126.87 49.876L126.79 51.3086C126.581 51.2281 126.339 51.1959 126.082 51.1959C125.229 51.1959 124.955 51.5984 124.955 52.4515V53.1758H126.774V54.544H124.955V61.6426H123.281ZM131.844 61.8679C129.269 61.8679 127.53 60.0651 127.53 57.4092C127.53 54.7694 129.285 52.9344 131.877 52.9344C134.42 52.9344 136.19 54.7694 136.19 57.4092C136.19 60.049 134.42 61.8679 131.844 61.8679ZM131.844 60.4353C133.47 60.4353 134.404 59.212 134.404 57.4253C134.404 55.6869 133.47 54.367 131.86 54.367C130.219 54.367 129.301 55.6547 129.301 57.4092C129.301 59.212 130.235 60.4353 131.844 60.4353ZM138.139 61.6426V54.7211C138.139 54.0289 138.139 53.6748 138.123 53.1758H139.733V53.6265C139.733 53.868 139.733 54.2221 139.717 54.4635H139.749C140.248 53.4977 141.069 52.9988 142.228 52.9988C142.405 52.9988 142.566 53.0149 142.695 53.047L142.646 54.6728C142.469 54.6245 142.292 54.6084 142.083 54.6084C140.473 54.6084 139.797 55.542 139.797 57.4575V61.6426H138.139ZM2.07759 79.6426V67.8921H3.8804V79.6426H2.07759ZM6.60058 79.6426V72.8499C6.60058 72.4152 6.58449 71.5943 6.58449 71.1758H8.22633V71.5299C8.22633 71.7231 8.22633 72.0933 8.21023 72.3026H8.22633C8.75752 71.5138 9.64282 70.9505 10.9305 70.9505C12.7816 70.9505 14.005 72.0933 14.005 74.3468V79.6426H12.2987V75.4092C12.2987 73.4454 11.9285 72.4152 10.4637 72.4152C8.96677 72.4152 8.30681 73.4454 8.30681 75.4575V79.6426H6.60058ZM19.8716 79.6426H17.7308C17.0065 79.2402 16.8294 78.5158 16.8294 77.0832V72.544H15.4129V71.1758H16.8294V68.8579H18.5034V71.1758H20.2419V72.544H18.5034V76.536C18.5034 78.5158 18.9863 78.9987 19.8716 79.2885V79.6426ZM25.3936 79.8518C22.7377 79.8518 21.0959 78.0973 21.0959 75.4414C21.0959 72.8659 22.7377 70.9505 25.3292 70.9505C28.2105 70.9505 29.4178 73.1235 29.4178 75.8599H22.7699C22.8182 77.3408 23.8967 78.4514 25.4258 78.4514C26.7779 78.4514 27.5345 77.7432 27.9208 77.051L29.3534 77.6627C28.6934 78.9021 27.3735 79.8518 25.3936 79.8518ZM22.786 74.5722H27.6632C27.5828 73.4132 26.8101 72.3026 25.3131 72.3026C23.8806 72.3026 22.9631 73.3327 22.786 74.5722ZM31.3427 79.6426V72.7211C31.3427 72.0289 31.3427 71.6748 31.3266 71.1758H32.9362V71.6265C32.9362 71.868 32.9362 72.2221 32.9201 72.4635H32.9523C33.4513 71.4977 34.2722 70.9988 35.4312 70.9988C35.6082 70.9988 35.7692 71.0149 35.898 71.047L35.8497 72.6728C35.6726 72.6245 35.4956 72.6084 35.2863 72.6084C33.6767 72.6084 33.0006 73.542 33.0006 75.4575V79.6426H31.3427ZM37.4417 79.6426V72.8499C37.4417 72.4152 37.4256 71.5943 37.4256 71.1758H39.0675V71.5299C39.0675 71.7231 39.0675 72.0933 39.0514 72.3026H39.0675C39.5987 71.5138 40.484 70.9505 41.7717 70.9505C43.6228 70.9505 44.8461 72.0933 44.8461 74.3468V79.6426H43.1399V75.4092C43.1399 73.4454 42.7697 72.4152 41.3049 72.4152C39.8079 72.4152 39.148 73.4454 39.148 75.4575V79.6426H37.4417ZM49.7126 79.7874C47.8937 79.7874 46.6703 78.8699 46.6703 77.3086C46.6703 75.5863 47.9741 75.0873 49.8574 74.701L51.451 74.3951C52.1431 74.2663 52.3363 74.2824 52.3363 73.7513C52.3363 72.8981 51.6763 72.3509 50.5335 72.3509C49.294 72.3509 48.7146 72.9625 48.5858 73.9122L46.9601 73.7835C47.1371 72.1094 48.5536 71.0309 50.5335 71.0309C52.7387 71.0309 53.9942 71.9967 53.9942 74.202V79.2724C53.9942 79.4172 54.0103 79.5621 54.0103 79.6426H52.449V79.3206C52.449 79.1436 52.449 79.0309 52.4651 78.9182C52.4651 78.8699 52.4651 78.8056 52.4812 78.7573H52.4329C51.8373 79.4011 50.9842 79.7874 49.7126 79.7874ZM50.0989 78.5802C51.5315 78.5802 52.3685 77.6788 52.3685 76.2462V75.8921C52.3685 75.7794 52.3846 75.6345 52.4007 75.5219C52.1592 75.6024 51.8695 75.6345 51.5637 75.6989L50.3564 75.9404C49.0204 76.1979 48.4248 76.3911 48.4248 77.2764C48.4248 78.1134 49.0687 78.5802 50.0989 78.5802ZM59.83 79.6426H57.6891C56.9648 79.2402 56.7877 78.5158 56.7877 77.0832V72.544H55.3712V71.1758H56.7877V68.8579H58.4618V71.1758H60.2002V72.544H58.4618V76.536C58.4618 78.5158 58.9447 78.9987 59.83 79.2885V79.6426ZM61.7594 79.6426V71.1758H63.4656V79.6426H61.7594ZM61.7433 69.872V67.8921H63.4817V69.872H61.7433ZM69.7219 79.8679C67.1465 79.8679 65.408 78.0651 65.408 75.4092C65.408 72.7694 67.1626 70.9344 69.7541 70.9344C72.2973 70.9344 74.068 72.7694 74.068 75.4092C74.068 78.049 72.2973 79.8679 69.7219 79.8679ZM69.7219 78.4353C71.3476 78.4353 72.2812 77.212 72.2812 75.4253C72.2812 73.6869 71.3476 72.367 69.738 72.367C68.0961 72.367 67.1786 73.6547 67.1786 75.4092C67.1786 77.212 68.1122 78.4353 69.7219 78.4353ZM76.0168 79.6426V72.8499C76.0168 72.4152 76.0007 71.5943 76.0007 71.1758H77.6425V71.5299C77.6425 71.7231 77.6425 72.0933 77.6264 72.3026H77.6425C78.1737 71.5138 79.059 70.9505 80.3467 70.9505C82.1978 70.9505 83.4211 72.0933 83.4211 74.3468V79.6426H81.7149V75.4092C81.7149 73.4454 81.3447 72.4152 79.8799 72.4152C78.3829 72.4152 77.723 73.4454 77.723 75.4575V79.6426H76.0168ZM88.2876 79.7874C86.4687 79.7874 85.2453 78.8699 85.2453 77.3086C85.2453 75.5863 86.5492 75.0873 88.4324 74.701L90.026 74.3951C90.7181 74.2663 90.9113 74.2824 90.9113 73.7513C90.9113 72.8981 90.2514 72.3509 89.1085 72.3509C87.8691 72.3509 87.2896 72.9625 87.1608 73.9122L85.5351 73.7835C85.7121 72.1094 87.1286 71.0309 89.1085 71.0309C91.3137 71.0309 92.5692 71.9967 92.5692 74.202V79.2724C92.5692 79.4172 92.5853 79.5621 92.5853 79.6426H91.024V79.3206C91.024 79.1436 91.024 79.0309 91.0401 78.9182C91.0401 78.8699 91.0401 78.8056 91.0562 78.7573H91.0079C90.4123 79.4011 89.5592 79.7874 88.2876 79.7874ZM88.6739 78.5802C90.1065 78.5802 90.9435 77.6788 90.9435 76.2462V75.8921C90.9435 75.7794 90.9596 75.6345 90.9757 75.5219C90.7342 75.6024 90.4445 75.6345 90.1387 75.6989L88.9314 75.9404C87.5954 76.1979 86.9999 76.3911 86.9999 77.2764C86.9999 78.1134 87.6437 78.5802 88.6739 78.5802ZM94.9742 79.6426V67.8921H96.6804V79.6426H94.9742ZM103.294 79.6426V67.8921H107.334C111.278 67.8921 113.145 70.1134 113.145 73.6708C113.145 77.0188 111.503 79.6426 107.431 79.6426H103.294ZM105.097 78.1134H107.125C109.7 78.1134 111.294 76.8257 111.294 73.8156C111.294 72.0933 110.859 70.8378 109.765 70.1295C108.847 69.5662 107.769 69.4374 106.014 69.4374H105.097V78.1134ZM115.189 79.6426V71.1758H116.895V79.6426H115.189ZM115.173 69.872V67.8921H116.911V69.872H115.173ZM122.298 79.8357C120.383 79.8357 119.047 79.0792 118.677 77.4695L120.19 77.051C120.512 77.9524 121.188 78.5158 122.395 78.5158C123.313 78.5158 124.037 78.0651 124.037 77.3569C124.037 76.6969 123.49 76.4233 122.459 76.1818L121.494 75.9565C120.013 75.6185 118.983 74.9746 118.983 73.5098C118.983 71.8841 120.447 70.9505 122.25 70.9505C123.973 70.9505 125.212 71.7231 125.55 73.1396L124.069 73.5581C123.828 72.7694 123.216 72.3187 122.202 72.3187C121.301 72.3187 120.705 72.7533 120.705 73.3488C120.705 74.041 121.156 74.2663 122.202 74.5078L123.232 74.7492C124.793 75.1195 125.759 75.7472 125.759 77.1798C125.759 78.9182 124.294 79.8357 122.298 79.8357ZM127.639 82.6687V72.1416C127.639 71.8197 127.623 71.4817 127.623 71.1758H129.281V71.5621C129.281 71.7553 129.264 72.0772 129.264 72.3187H129.297C129.86 71.5299 130.81 70.9666 132.081 70.9666C134.351 70.9666 135.993 72.7694 135.993 75.4092C135.993 78.0812 134.351 79.8357 132.081 79.8357C130.81 79.8357 129.908 79.385 129.313 78.5641H129.297C129.345 79.0953 129.329 79.6426 129.329 80.1577V82.6687H127.639ZM131.776 78.4353C133.305 78.4353 134.222 77.1798 134.222 75.4575C134.222 73.703 133.305 72.4313 131.759 72.4313C130.23 72.4313 129.264 73.6386 129.264 75.4414C129.264 77.212 130.23 78.4353 131.776 78.4353ZM140.896 79.8357C139.093 79.8357 137.838 78.886 137.838 76.6486V71.1758H139.544V76.214C139.544 77.6949 140.156 78.4353 141.379 78.4353C142.812 78.4353 143.488 77.3247 143.488 75.6667V71.1758H145.194V78.3871C145.194 78.8378 145.194 79.1758 145.21 79.6426H143.568V79.2724C143.568 79.0953 143.568 78.7573 143.584 78.5641H143.552C142.989 79.3528 142.12 79.8357 140.896 79.8357ZM151.269 79.6426H149.128C148.404 79.2402 148.227 78.5158 148.227 77.0832V72.544H146.81V71.1758H148.227V68.8579H149.901V71.1758H151.639V72.544H149.901V76.536C149.901 78.5158 150.383 78.9987 151.269 79.2885V79.6426ZM156.791 79.8518C154.135 79.8518 152.493 78.0973 152.493 75.4414C152.493 72.8659 154.135 70.9505 156.726 70.9505C159.608 70.9505 160.815 73.1235 160.815 75.8599H154.167C154.215 77.3408 155.294 78.4514 156.823 78.4514C158.175 78.4514 158.932 77.7432 159.318 77.051L160.751 77.6627C160.091 78.9021 158.771 79.8518 156.791 79.8518ZM154.183 74.5722H159.06C158.98 73.4132 158.207 72.3026 156.71 72.3026C155.278 72.3026 154.36 73.3327 154.183 74.5722ZM5.63492 97.8679C3.31702 97.8679 1.54641 96.7412 1.16009 94.6969L2.88242 94.2784C3.15606 95.6144 4.18623 96.371 5.65102 96.371C7.1158 96.371 8.11378 95.6466 8.11378 94.4877C8.11378 93.5219 7.38944 93.0712 6.03733 92.6688L5.07154 92.379C2.89851 91.7352 1.5786 90.9625 1.5786 89.0149C1.5786 87.0028 3.30093 85.6668 5.69931 85.6668C7.84014 85.6668 9.28883 86.7131 9.72343 88.4998L8.08159 88.9344C7.77575 87.8237 6.93874 87.212 5.63492 87.212C4.3472 87.212 3.46189 87.8398 3.46189 88.87C3.46189 89.8841 4.12185 90.2221 5.7154 90.7372L6.85825 91.0913C8.66106 91.6547 9.98098 92.3307 9.98098 94.3267C9.98098 96.5641 8.12988 97.8679 5.63492 97.8679ZM15.632 97.8518C12.9761 97.8518 11.3342 96.0973 11.3342 93.4414C11.3342 90.8659 12.9761 88.9505 15.5676 88.9505C18.4489 88.9505 19.6561 91.1235 19.6561 93.8599H13.0083C13.0565 95.3408 14.135 96.4514 15.6642 96.4514C17.0163 96.4514 17.7728 95.7432 18.1591 95.051L19.5917 95.6627C18.9318 96.9021 17.6119 97.8518 15.632 97.8518ZM13.0243 92.5722H17.9016C17.8211 91.4132 17.0485 90.3026 15.5515 90.3026C14.1189 90.3026 13.2014 91.3327 13.0243 92.5722ZM24.9804 97.6426H22.8396C22.1152 97.2402 21.9382 96.5158 21.9382 95.0832V90.544H20.5217V89.1758H21.9382V86.8579H23.6122V89.1758H25.3506V90.544H23.6122V94.536C23.6122 96.5158 24.0951 96.9987 24.9804 97.2885V97.6426ZM30.435 97.6426H28.2941C27.5698 97.2402 27.3927 96.5158 27.3927 95.0832V90.544H25.9762V89.1758H27.3927V86.8579H29.0668V89.1758H30.8052V90.544H29.0668V94.536C29.0668 96.5158 29.5497 96.9987 30.435 97.2885V97.6426ZM32.3644 97.6426V85.8921H34.0707V97.6426H32.3644ZM40.3269 97.8518C37.671 97.8518 36.0291 96.0973 36.0291 93.4414C36.0291 90.8659 37.671 88.9505 40.2625 88.9505C43.1438 88.9505 44.351 91.1235 44.351 93.8599H37.7032C37.7515 95.3408 38.8299 96.4514 40.3591 96.4514C41.7112 96.4514 42.4677 95.7432 42.8541 95.051L44.2867 95.6627C43.6267 96.9021 42.3068 97.8518 40.3269 97.8518ZM37.7193 92.5722H42.5965C42.516 91.4132 41.7434 90.3026 40.2464 90.3026C38.8138 90.3026 37.8963 91.3327 37.7193 92.5722ZM46.2759 97.6426V90.6406C46.2759 90.045 46.2759 89.7392 46.2599 89.1758H47.8856V89.6748C47.8856 89.8519 47.8856 90.1416 47.8695 90.3187H47.9017C48.3363 89.546 49.2538 88.9505 50.4771 88.9505C51.6522 88.9505 52.5375 89.4817 53.0365 90.4957C53.5677 89.5943 54.5496 88.9505 55.9017 88.9505C57.8976 88.9505 58.9278 90.2221 58.9278 92.4917V97.6426H57.2216V92.878C57.2216 91.3327 56.7548 90.4152 55.4671 90.4152C53.9218 90.4152 53.455 91.703 53.455 93.3448V97.6426H51.7488V92.9102C51.7488 91.3167 51.2498 90.4152 50.0103 90.4152C48.5134 90.4152 47.9822 91.6386 47.9822 93.4414V97.6426H46.2759ZM65.069 97.8518C62.4131 97.8518 60.7712 96.0973 60.7712 93.4414C60.7712 90.8659 62.4131 88.9505 65.0046 88.9505C67.8859 88.9505 69.0931 91.1235 69.0931 93.8599H62.4453C62.4936 95.3408 63.572 96.4514 65.1012 96.4514C66.4533 96.4514 67.2098 95.7432 67.5962 95.051L69.0287 95.6627C68.3688 96.9021 67.0489 97.8518 65.069 97.8518ZM62.4614 92.5722H67.3386C67.2581 91.4132 66.4855 90.3026 64.9885 90.3026C63.5559 90.3026 62.6384 91.3327 62.4614 92.5722ZM71.018 97.6426V90.8499C71.018 90.4152 71.0019 89.5943 71.0019 89.1758H72.6438V89.5299C72.6438 89.7231 72.6438 90.0933 72.6277 90.3026H72.6438C73.175 89.5138 74.0603 88.9505 75.348 88.9505C77.1991 88.9505 78.4224 90.0933 78.4224 92.3468V97.6426H76.7162V93.4092C76.7162 91.4454 76.346 90.4152 74.8812 90.4152C73.3842 90.4152 72.7243 91.4454 72.7243 93.4575V97.6426H71.018ZM84.2891 97.6426H82.1483C81.4239 97.2402 81.2469 96.5158 81.2469 95.0832V90.544H79.8304V89.1758H81.2469V86.8579H82.9209V89.1758H84.6593V90.544H82.9209V94.536C82.9209 96.5158 83.4038 96.9987 84.2891 97.2885V97.6426Z" fill="white"/>
</svg>
