<svg width="207" height="91" viewBox="0 0 207 91" fill="none" xmlns="http://www.w3.org/2000/svg">
<g clip-path="url(#clip0_5370_14794)">
<path d="M104.018 25.6953H104.74C104.819 25.6953 104.886 25.7633 104.886 25.8427V30.9908C104.886 31.0701 104.819 31.1382 104.74 31.1382H104.018C103.939 31.1382 103.871 31.0701 103.871 30.9908V25.8427C103.871 25.7633 103.939 25.6953 104.018 25.6953Z" fill="white"/>
<path d="M106.647 31.1496H107.346C107.425 31.1496 107.493 31.0815 107.493 31.0022V27.6571L110.73 31.2289H110.911C110.99 31.2289 111.058 31.1609 111.058 31.0929V25.8541C111.058 25.7747 110.99 25.7067 110.911 25.7067H110.2C110.11 25.7067 110.054 25.7747 110.054 25.8541V29.0745L106.838 25.6387H106.647C106.568 25.6387 106.5 25.6954 106.5 25.7747V31.0135C106.5 31.0929 106.568 31.1609 106.647 31.1609V31.1496Z" fill="white"/>
<path d="M114.138 30.321C113.631 30.321 113.01 29.8675 112.965 29.8448C112.897 29.7881 112.762 29.7881 112.706 29.9015L112.424 30.3777C112.356 30.5025 112.39 30.5365 112.457 30.6159C112.615 30.7633 113.191 31.2168 114.161 31.2168C115.255 31.2168 115.943 30.4798 115.943 29.6747C115.943 28.6655 115.075 28.2233 114.33 27.9171C113.71 27.6563 113.416 27.4068 113.416 27.044C113.416 26.7945 113.653 26.4997 114.093 26.4997C114.533 26.4997 115.109 26.8852 115.165 26.9306C115.255 26.9873 115.368 26.9306 115.436 26.8399L115.729 26.3976C115.785 26.3183 115.763 26.1935 115.684 26.1368C115.526 26.0234 114.928 25.6152 114.138 25.6152C112.909 25.6152 112.401 26.4203 112.401 27.112C112.401 28.0305 113.134 28.4954 113.856 28.7902C114.511 29.051 114.838 29.3232 114.838 29.7201C114.838 30.0602 114.533 30.321 114.138 30.321Z" fill="white"/>
<path d="M116.803 26.6251H117.987V30.9908C117.987 31.0701 118.055 31.1382 118.134 31.1382H118.856C118.935 31.1382 119.003 31.0701 119.003 30.9908V26.6251H120.187C120.278 26.6251 120.334 26.5571 120.334 26.4777V25.8427C120.334 25.7633 120.278 25.6953 120.187 25.6953H116.803C116.713 25.6953 116.656 25.7633 116.656 25.8427V26.4777C116.656 26.5571 116.713 26.6251 116.803 26.6251Z" fill="white"/>
<path d="M121.483 25.6953H122.205C122.284 25.6953 122.351 25.7633 122.351 25.8427V30.9908C122.351 31.0701 122.284 31.1382 122.205 31.1382H121.483C121.404 31.1382 121.336 31.0701 121.336 30.9908V25.8427C121.336 25.7633 121.404 25.6953 121.483 25.6953Z" fill="white"/>
<path d="M123.49 26.6251H124.675V30.9908C124.675 31.0701 124.743 31.1382 124.822 31.1382H125.544C125.623 31.1382 125.69 31.0701 125.69 30.9908V26.6251H126.875C126.965 26.6251 127.021 26.5571 127.021 26.4777V25.8427C127.021 25.7633 126.965 25.6953 126.875 25.6953H123.49C123.4 25.6953 123.344 25.7633 123.344 25.8427V26.4777C123.344 26.5571 123.4 26.6251 123.49 26.6251Z" fill="white"/>
<path d="M130.132 31.2172C131.362 31.2172 132.298 30.2533 132.298 29.074V25.831C132.298 25.7516 132.23 25.6836 132.152 25.6836H131.418C131.328 25.6836 131.272 25.7516 131.272 25.831V29.0173C131.272 29.675 130.82 30.1966 130.143 30.1966C129.467 30.1966 129.027 29.675 129.027 29.0173V25.831C129.027 25.7516 128.959 25.6836 128.88 25.6836H128.147C128.068 25.6836 128 25.7516 128 25.831V29.074C128 30.2533 128.936 31.2172 130.155 31.2172H130.132Z" fill="white"/>
<path d="M133.404 26.6251H134.589V30.9908C134.589 31.0701 134.657 31.1382 134.736 31.1382H135.458C135.537 31.1382 135.604 31.0701 135.604 30.9908V26.6251H136.789C136.879 26.6251 136.936 26.5571 136.936 26.4777V25.8427C136.936 25.7633 136.879 25.6953 136.789 25.6953H133.404C133.314 25.6953 133.258 25.7633 133.258 25.8427V26.4777C133.258 26.5571 133.314 26.6251 133.404 26.6251Z" fill="white"/>
<path d="M139.901 31.1495H141.74C143.24 31.1495 144.459 29.9249 144.459 28.4167C144.459 26.9086 143.24 25.6953 141.74 25.6953H139.901C139.822 25.6953 139.766 25.7633 139.766 25.8427V30.9908C139.766 31.0701 139.822 31.1382 139.901 31.1382V31.1495ZM140.758 26.6365H141.638C142.642 26.6365 143.376 27.3962 143.376 28.4054C143.376 29.4146 142.642 30.1857 141.638 30.1857H140.758V26.6251V26.6365Z" fill="white"/>
<path d="M145.873 31.1382H149.021C149.111 31.1382 149.167 31.0701 149.167 30.9908V30.3558C149.167 30.2764 149.111 30.2084 149.021 30.2084H146.731V28.8476H148.637C148.716 28.8476 148.784 28.7909 148.784 28.7002V28.0539C148.784 27.9745 148.716 27.9065 148.637 27.9065H146.731V26.6251H149.021C149.111 26.6251 149.167 26.5571 149.167 26.4777V25.8427C149.167 25.7633 149.111 25.6953 149.021 25.6953H145.873C145.783 25.6953 145.727 25.7633 145.727 25.8427V30.9908C145.727 31.0701 145.783 31.1382 145.873 31.1382Z" fill="white"/>
<path d="M152.451 31.1382H153.173C153.264 31.1382 153.32 31.0701 153.32 30.9908V28.8476H155.847V30.9908C155.847 31.0701 155.903 31.1382 155.994 31.1382H156.704C156.783 31.1382 156.851 31.0701 156.851 30.9908V25.8427C156.851 25.7633 156.783 25.6953 156.704 25.6953H155.994C155.903 25.6953 155.847 25.7633 155.847 25.8427V27.9065H153.32V25.8427C153.32 25.7633 153.252 25.6953 153.173 25.6953H152.451C152.372 25.6953 152.305 25.7633 152.305 25.8427V30.9908C152.305 31.0701 152.372 31.1382 152.451 31.1382Z" fill="white"/>
<path d="M157.945 31.1488H158.622C158.746 31.1488 158.813 31.0694 158.847 30.9901L159.231 30.151H161.543L161.927 30.9901C161.983 31.1035 162.04 31.1488 162.153 31.1488H162.829C162.942 31.1488 163.01 31.0468 162.965 30.9447L160.584 25.7059C160.584 25.7059 160.528 25.6152 160.449 25.6152H160.37C160.302 25.6152 160.257 25.6493 160.235 25.7059L157.832 30.9447C157.787 31.0468 157.843 31.1488 157.967 31.1488H157.945ZM160.359 27.5656H160.381L161.16 29.2778H159.603L160.359 27.5656Z" fill="white"/>
<path d="M165.76 31.2172C166.979 31.2172 167.915 30.2533 167.915 29.074V25.831C167.915 25.7516 167.847 25.6836 167.768 25.6836H167.035C166.945 25.6836 166.888 25.7516 166.888 25.831V29.0173C166.888 29.675 166.426 30.1966 165.76 30.1966C165.095 30.1966 164.632 29.675 164.632 29.0173V25.831C164.632 25.7516 164.576 25.6836 164.485 25.6836H163.752C163.673 25.6836 163.605 25.7516 163.605 25.831V29.074C163.605 30.2533 164.542 31.2172 165.76 31.2172Z" fill="white"/>
<path d="M169.033 26.6251H170.218V30.9908C170.218 31.0701 170.286 31.1382 170.365 31.1382H171.087C171.166 31.1382 171.233 31.0701 171.233 30.9908V26.6251H172.418C172.508 26.6251 172.564 26.5571 172.564 26.4777V25.8427C172.564 25.7633 172.508 25.6953 172.418 25.6953H169.033C168.943 25.6953 168.887 25.7633 168.887 25.8427V26.4777C168.887 26.5571 168.943 26.6251 169.033 26.6251Z" fill="white"/>
<path d="M173.713 31.1382H176.861C176.951 31.1382 177.007 31.0701 177.007 30.9908V30.3558C177.007 30.2764 176.951 30.2084 176.861 30.2084H174.57V28.8476H176.488C176.567 28.8476 176.635 28.7909 176.635 28.7002V28.0539C176.635 27.9745 176.567 27.9065 176.488 27.9065H174.57V26.6251H176.861C176.951 26.6251 177.007 26.5571 177.007 26.4777V25.8427C177.007 25.7633 176.951 25.6953 176.861 25.6953H173.713C173.623 25.6953 173.566 25.7633 173.566 25.8427V30.9908C173.566 31.0701 173.623 31.1382 173.713 31.1382Z" fill="white"/>
<path d="M179.751 30.321C179.243 30.321 178.623 29.8675 178.578 29.8448C178.51 29.7881 178.375 29.7881 178.318 29.9015L178.036 30.3777C177.969 30.5025 178.002 30.5365 178.081 30.6159C178.239 30.7633 178.803 31.2168 179.785 31.2168C180.879 31.2168 181.567 30.4798 181.567 29.6747C181.567 28.6655 180.699 28.2233 179.954 27.9171C179.334 27.6563 179.04 27.4068 179.04 27.044C179.04 26.7945 179.277 26.4997 179.717 26.4997C180.157 26.4997 180.733 26.8852 180.789 26.9306C180.879 26.9873 180.992 26.9306 181.06 26.8399L181.353 26.3976C181.409 26.3183 181.387 26.1935 181.308 26.1368C181.15 26.0234 180.552 25.6152 179.762 25.6152C178.533 25.6152 178.025 26.4203 178.025 27.112C178.025 28.0305 178.747 28.4954 179.48 28.7902C180.135 29.051 180.462 29.3232 180.462 29.7201C180.462 30.0602 180.157 30.321 179.762 30.321H179.751Z" fill="white"/>
<path d="M104.018 39.9032H107.165C107.255 39.9032 107.312 39.8352 107.312 39.7558V39.1208C107.312 39.0414 107.255 38.9734 107.165 38.9734H104.875V37.6127H106.793C106.872 37.6127 106.94 37.556 106.94 37.4653V36.8189C106.94 36.7395 106.872 36.6715 106.793 36.6715H104.875V35.4015H107.165C107.255 35.4015 107.312 35.3335 107.312 35.2541V34.6191C107.312 34.5397 107.255 34.4717 107.165 34.4717H104.018C103.927 34.4717 103.871 34.5397 103.871 34.6191V39.7671C103.871 39.8465 103.939 39.9145 104.018 39.9145V39.9032Z" fill="white"/>
<path d="M104.766 33.5987L104.902 33.8709C104.935 33.9389 104.992 33.9729 105.093 33.9276L106.447 33.3266C106.515 33.2926 106.549 33.2132 106.492 33.1225L106.278 32.7143C106.244 32.6462 106.165 32.6349 106.075 32.6916L104.811 33.4513C104.811 33.4513 104.732 33.542 104.766 33.5987Z" fill="white"/>
<path d="M108.156 34.6074V35.2424C108.156 35.3217 108.213 35.3898 108.303 35.3898H109.487V39.7554C109.487 39.8348 109.555 39.9028 109.634 39.9028H110.356C110.435 39.9028 110.503 39.8348 110.503 39.7554V35.3898H111.687C111.778 35.3898 111.834 35.3217 111.834 35.2424V34.6074C111.834 34.528 111.778 34.46 111.687 34.46H108.303C108.213 34.46 108.156 34.528 108.156 34.6074Z" fill="white"/>
<path d="M114.952 38.974C114.275 38.974 113.823 38.4524 113.823 37.7947V34.6083C113.823 34.529 113.767 34.4609 113.677 34.4609H112.944C112.865 34.4609 112.797 34.529 112.797 34.6083V37.8514C112.797 39.0307 113.733 39.9945 114.952 39.9945C116.17 39.9945 117.118 39.0307 117.118 37.8514V34.6083C117.118 34.529 117.05 34.4609 116.971 34.4609H116.238C116.147 34.4609 116.091 34.529 116.091 34.6083V37.7947C116.091 38.4524 115.64 38.974 114.963 38.974H114.952Z" fill="white"/>
<path d="M118.684 34.608V39.756C118.684 39.8354 118.74 39.9034 118.819 39.9034H120.658C122.158 39.9034 123.377 38.6788 123.377 37.1706C123.377 35.6625 122.158 34.4492 120.658 34.4492H118.819C118.74 34.4492 118.684 34.5173 118.684 34.5966V34.608ZM119.688 35.4017H120.568C121.572 35.4017 122.305 36.1615 122.305 37.1706C122.305 38.1798 121.572 38.9509 120.568 38.9509H119.688V35.3904V35.4017Z" fill="white"/>
<path d="M124.637 34.6083V39.7564C124.637 39.8358 124.693 39.9038 124.783 39.9038H127.931C128.021 39.9038 128.078 39.8358 128.078 39.7564V39.1214C128.078 39.042 128.021 38.974 127.931 38.974H125.641V37.6133H127.547C127.626 37.6133 127.694 37.5566 127.694 37.4659V36.8195C127.694 36.7401 127.626 36.6721 127.547 36.6721H125.641V35.3908H127.931C128.021 35.3908 128.078 35.3227 128.078 35.2433V34.6083C128.078 34.529 128.021 34.4609 127.931 34.4609H124.783C124.693 34.4609 124.637 34.529 124.637 34.6083Z" fill="white"/>
<path d="M129.096 35.8776C129.096 36.7961 129.818 37.261 130.552 37.5559C131.206 37.8167 131.533 38.0888 131.533 38.4857C131.533 38.8259 131.229 39.0867 130.834 39.0867C130.326 39.0867 129.706 38.6331 129.66 38.6104C129.593 38.5537 129.457 38.5537 129.401 38.6671L129.119 39.1434C129.051 39.2681 129.085 39.3021 129.153 39.3815C129.311 39.5289 129.886 39.9825 130.856 39.9825C131.951 39.9825 132.639 39.2454 132.639 38.4403C132.639 37.4311 131.77 36.9889 131.025 36.6827C130.394 36.4219 130.112 36.1725 130.112 35.8096C130.112 35.5601 130.349 35.2653 130.8 35.2653C131.251 35.2653 131.815 35.6509 131.872 35.6962C131.962 35.7529 132.075 35.6962 132.142 35.6055L132.436 35.1633C132.492 35.0839 132.469 34.9592 132.39 34.9025C132.233 34.7891 131.635 34.3809 130.845 34.3809C129.615 34.3809 129.108 35.1859 129.108 35.8776H129.096Z" fill="white"/>
<path d="M135.811 34.4606H136.533C136.612 34.4606 136.679 34.5286 136.679 34.608V39.756C136.679 39.8354 136.612 39.9034 136.533 39.9034H135.811C135.732 39.9034 135.664 39.8354 135.664 39.756V34.5966C135.664 34.5173 135.732 34.4492 135.811 34.4492V34.4606Z" fill="white"/>
<path d="M138.435 39.9035H139.135C139.225 39.9035 139.281 39.8354 139.281 39.7561V36.411L142.519 39.9829H142.7C142.779 39.9829 142.846 39.9148 142.846 39.8468V34.608C142.846 34.5287 142.779 34.4606 142.7 34.4606H141.989C141.899 34.4606 141.842 34.5287 141.842 34.608V37.8284L138.616 34.3926H138.424C138.345 34.3926 138.277 34.4493 138.277 34.5286V39.7674C138.277 39.8468 138.345 39.9148 138.424 39.9148L138.435 39.9035Z" fill="white"/>
<path d="M145.353 39.9028H146.075C146.154 39.9028 146.221 39.8348 146.221 39.7554V35.3898H147.406C147.485 35.3898 147.553 35.3217 147.553 35.2424V34.6074C147.553 34.528 147.496 34.46 147.406 34.46H144.022C143.931 34.46 143.875 34.528 143.875 34.6074V35.2424C143.875 35.3217 143.931 35.3898 144.022 35.3898H145.206V39.7554C145.206 39.8348 145.274 39.9028 145.353 39.9028Z" fill="white"/>
<path d="M148.559 34.6083V39.7564C148.559 39.8358 148.615 39.9038 148.705 39.9038H151.853C151.932 39.9038 151.999 39.8358 151.999 39.7564V39.1214C151.999 39.042 151.932 38.974 151.853 38.974H149.563V37.6133H151.48C151.559 37.6133 151.627 37.5566 151.627 37.4659V36.8195C151.627 36.7401 151.559 36.6721 151.48 36.6721H149.563V35.3908H151.853C151.932 35.3908 151.999 35.3227 151.999 35.2433V34.6083C151.999 34.529 151.932 34.4609 151.853 34.4609H148.705C148.615 34.4609 148.559 34.529 148.559 34.6083Z" fill="white"/>
<path d="M153.526 34.4606C153.435 34.4606 153.379 34.5286 153.379 34.608V39.756C153.379 39.8354 153.435 39.9034 153.526 39.9034H154.236C154.315 39.9034 154.383 39.8354 154.383 39.756V37.7716H155.24L156.267 39.8354C156.267 39.8354 156.323 39.9034 156.391 39.9034H157.203C157.339 39.9034 157.395 39.7787 157.339 39.6766L156.278 37.7036C156.955 37.4315 157.429 36.8418 157.429 36.1274C157.429 35.1976 156.673 34.4492 155.737 34.4492H153.526V34.4606ZM156.425 36.1501C156.425 36.581 156.064 36.9439 155.658 36.9439H154.394V35.4017H155.658C156.064 35.4017 156.425 35.7419 156.425 36.1615V36.1501Z" fill="white"/>
<path d="M162.327 34.608V37.8284L159.1 34.3926H158.908C158.829 34.3926 158.762 34.4493 158.762 34.5286V39.7674C158.762 39.8468 158.829 39.9148 158.908 39.9148H159.608C159.698 39.9148 159.754 39.8468 159.754 39.7674V36.4223L162.992 39.9942H163.173C163.252 39.9942 163.319 39.9262 163.319 39.8581V34.6194C163.319 34.54 163.252 34.472 163.173 34.472H162.462C162.372 34.472 162.315 34.54 162.315 34.6194L162.327 34.608Z" fill="white"/>
<path d="M166.922 34.3809H166.843C166.775 34.3809 166.73 34.4149 166.707 34.4716L164.304 39.7103C164.259 39.8124 164.316 39.9144 164.44 39.9144H165.117C165.241 39.9144 165.309 39.8351 165.342 39.7557L165.726 38.9166H168.039L168.422 39.7557C168.479 39.8691 168.535 39.9144 168.648 39.9144H169.325C169.437 39.9144 169.505 39.8124 169.46 39.7103L167.08 34.4716C167.08 34.4716 167.023 34.3809 166.944 34.3809H166.922ZM166.087 38.0435L166.843 36.3312H166.865L167.644 38.0435H166.087Z" fill="white"/>
<path d="M169.449 34.6083V35.2433C169.449 35.3227 169.506 35.3908 169.596 35.3908H170.78V39.7564C170.78 39.8358 170.848 39.9038 170.927 39.9038H171.649C171.728 39.9038 171.796 39.8358 171.796 39.7564V35.3908H172.98C173.07 35.3908 173.127 35.3227 173.127 35.2433V34.6083C173.127 34.529 173.07 34.4609 172.98 34.4609H169.596C169.506 34.4609 169.449 34.529 169.449 34.6083Z" fill="white"/>
<path d="M174.276 34.4609H174.998C175.077 34.4609 175.144 34.529 175.144 34.6083V39.7564C175.144 39.8358 175.077 39.9038 174.998 39.9038H174.276C174.197 39.9038 174.129 39.8358 174.129 39.7564V34.6083C174.129 34.529 174.197 34.4609 174.276 34.4609Z" fill="white"/>
<path d="M179.181 39.9825C180.727 39.9825 181.968 38.7465 181.968 37.193C181.968 35.6395 180.727 34.3809 179.181 34.3809C177.636 34.3809 176.406 35.6282 176.406 37.193C176.406 38.7578 177.636 39.9825 179.181 39.9825ZM179.181 35.3901C180.152 35.3901 180.964 36.2065 180.964 37.193C180.964 38.1795 180.163 38.9733 179.181 38.9733C178.2 38.9733 177.41 38.1682 177.41 37.193C177.41 36.2178 178.211 35.3901 179.181 35.3901Z" fill="white"/>
<path d="M183.377 39.9035H184.077C184.156 39.9035 184.223 39.8354 184.223 39.7561V36.411L187.461 39.9829H187.641C187.72 39.9829 187.788 39.9148 187.788 39.8468V34.608C187.788 34.5287 187.72 34.4606 187.641 34.4606H186.931C186.84 34.4606 186.784 34.5287 186.784 34.608V37.8284L183.569 34.3926H183.377C183.298 34.3926 183.23 34.4493 183.23 34.5286V39.7674C183.23 39.8468 183.298 39.9148 183.377 39.9148V39.9035Z" fill="white"/>
<path d="M188.909 39.9027H189.586C189.71 39.9027 189.778 39.8233 189.812 39.744L190.195 38.9049H192.508L192.891 39.744C192.948 39.8574 193.004 39.9027 193.117 39.9027H193.794C193.907 39.9027 193.974 39.8007 193.929 39.6986L191.549 34.4599C191.549 34.4599 191.492 34.3691 191.413 34.3691H191.335C191.267 34.3691 191.222 34.4032 191.199 34.4599L188.785 39.6986C188.74 39.8007 188.796 39.9027 188.92 39.9027H188.909ZM191.323 36.3308H191.346L192.124 38.0431H190.567L191.323 36.3308Z" fill="white"/>
<path d="M195.022 39.9038H197.853C197.944 39.9038 198 39.8358 198 39.7564V39.1214C198 39.042 197.944 38.974 197.853 38.974H195.879V34.6083C195.879 34.529 195.811 34.4609 195.732 34.4609H195.022C194.931 34.4609 194.875 34.529 194.875 34.6083V39.7564C194.875 39.8358 194.931 39.9038 195.022 39.9038Z" fill="white"/>
<path d="M202.286 34.4609H199.139C199.049 34.4609 198.992 34.529 198.992 34.6083V39.7564C198.992 39.8358 199.049 39.9038 199.139 39.9038H202.286C202.377 39.9038 202.433 39.8358 202.433 39.7564V39.1214C202.433 39.042 202.365 38.974 202.286 38.974H199.996V37.6133H201.914C201.993 37.6133 202.061 37.5566 202.061 37.4659V36.8195C202.061 36.7401 201.993 36.6721 201.914 36.6721H199.996V35.3908H202.286C202.377 35.3908 202.433 35.3227 202.433 35.2433V34.6083C202.433 34.529 202.365 34.4609 202.286 34.4609Z" fill="white"/>
<path d="M205.373 36.6827C204.753 36.4219 204.459 36.1725 204.459 35.8096C204.459 35.5601 204.696 35.2653 205.136 35.2653C205.576 35.2653 206.152 35.6509 206.208 35.6962C206.298 35.7529 206.411 35.6962 206.479 35.6055L206.772 35.1633C206.828 35.0839 206.806 34.9592 206.727 34.9025C206.569 34.7891 205.971 34.3809 205.181 34.3809C203.952 34.3809 203.444 35.1859 203.444 35.8776C203.444 36.7961 204.166 37.261 204.899 37.5559C205.554 37.8167 205.881 38.0888 205.881 38.4857C205.881 38.8259 205.576 39.0867 205.181 39.0867C204.674 39.0867 204.053 38.6331 204.008 38.6104C203.94 38.5537 203.805 38.5537 203.749 38.6671L203.467 39.1434C203.399 39.2681 203.433 39.3021 203.5 39.3815C203.658 39.5289 204.222 39.9825 205.204 39.9825C206.298 39.9825 206.986 39.2454 206.986 38.4403C206.986 37.4311 206.118 36.9889 205.373 36.6827Z" fill="white"/>
<path d="M107.165 44.1554C107.255 44.1554 107.312 44.0874 107.312 44.008V43.373C107.312 43.2936 107.255 43.2256 107.165 43.2256H104.018C103.927 43.2256 103.871 43.2936 103.871 43.373V48.521C103.871 48.6004 103.927 48.6684 104.018 48.6684H107.165C107.255 48.6684 107.312 48.6004 107.312 48.521V47.886C107.312 47.8067 107.255 47.7386 107.165 47.7386H104.875V46.3779H106.782C106.861 46.3779 106.928 46.3212 106.928 46.2305V45.5842C106.928 45.5048 106.861 45.4367 106.782 45.4367H104.875V44.1554H107.165Z" fill="white"/>
<path d="M110.503 48.521V44.1554H111.687C111.778 44.1554 111.834 44.0874 111.834 44.008V43.373C111.834 43.2936 111.778 43.2256 111.687 43.2256H108.303C108.213 43.2256 108.156 43.2936 108.156 43.373V44.008C108.156 44.0874 108.213 44.1554 108.303 44.1554H109.487V48.521C109.487 48.6004 109.555 48.6684 109.634 48.6684H110.356C110.435 48.6684 110.503 48.6004 110.503 48.521Z" fill="white"/>
<path d="M116.638 48.6681C118.139 48.6681 119.357 47.4434 119.357 45.9353C119.357 44.4272 118.139 43.2139 116.638 43.2139H114.799C114.72 43.2139 114.664 43.2819 114.664 43.3613V48.5093C114.664 48.5887 114.732 48.6567 114.799 48.6567H116.638V48.6681ZM115.657 44.155H116.537C117.541 44.155 118.274 44.9148 118.274 45.9353C118.274 46.9558 117.541 47.7156 116.537 47.7156H115.657V44.155Z" fill="white"/>
<path d="M121.442 43.2139H120.709C120.63 43.2139 120.562 43.2819 120.562 43.3613V46.6043C120.562 47.7836 121.499 48.7474 122.717 48.7474C123.936 48.7474 124.872 47.7949 124.872 46.6043V43.3613C124.872 43.2819 124.804 43.2139 124.725 43.2139H123.992C123.902 43.2139 123.845 43.2819 123.845 43.3613V46.5476C123.845 47.2053 123.383 47.7269 122.717 47.7269C122.052 47.7269 121.589 47.2053 121.589 46.5476V43.3613C121.589 43.2819 121.533 43.2139 121.442 43.2139Z" fill="white"/>
<path d="M130.189 43.2145H128.35C128.271 43.2145 128.215 43.2825 128.215 43.3619V48.5099C128.215 48.5893 128.271 48.6573 128.35 48.6573H130.189C131.689 48.6573 132.908 47.4327 132.908 45.9246C132.908 44.4164 131.689 43.2031 130.189 43.2031V43.2145ZM130.099 47.7162H129.219V44.1556H130.099C131.103 44.1556 131.836 44.9154 131.836 45.9359C131.836 46.9564 131.103 47.7162 130.099 47.7162Z" fill="white"/>
<path d="M134.184 43.3617V48.5097C134.184 48.5891 134.251 48.6571 134.33 48.6571H137.478C137.568 48.6571 137.624 48.5891 137.624 48.5097V47.8747C137.624 47.7953 137.557 47.7273 137.478 47.7273H135.188V46.3666H137.105C137.184 46.3666 137.252 46.3099 137.252 46.2192V45.5728C137.252 45.4934 137.184 45.4254 137.105 45.4254H135.188V44.1554H137.478C137.568 44.1554 137.624 44.0874 137.624 44.008V43.373C137.624 43.2936 137.557 43.2256 137.478 43.2256H134.33C134.24 43.2256 134.184 43.2936 134.184 43.373V43.3617Z" fill="white"/>
<path d="M135.078 42.3634L135.214 42.6355C135.248 42.7035 135.304 42.7376 135.405 42.6922L136.759 42.0912C136.827 42.0572 136.861 41.9778 136.804 41.8871L136.59 41.4789C136.556 41.4109 136.477 41.3995 136.387 41.4562L135.112 42.216C135.112 42.216 135.033 42.3067 135.067 42.3634H135.078Z" fill="white"/>
<path d="M140.955 48.7474H141.034C141.101 48.7474 141.147 48.7134 141.169 48.6567L143.572 43.418C143.617 43.3159 143.561 43.2139 143.437 43.2139H142.647C142.579 43.2139 142.534 43.2592 142.512 43.3046L141.022 46.6497H140.966L139.477 43.3046C139.477 43.3046 139.409 43.2139 139.342 43.2139H138.552C138.439 43.2139 138.371 43.3159 138.416 43.418L140.808 48.6567C140.808 48.6567 140.876 48.7474 140.943 48.7474H140.955Z" fill="white"/>
<path d="M147.972 48.521V47.886C147.972 47.8067 147.916 47.7386 147.825 47.7386H145.535V46.3779H147.453C147.532 46.3779 147.6 46.3212 147.6 46.2305V45.5842C147.6 45.5048 147.532 45.4367 147.453 45.4367H145.535V44.1554H147.825C147.916 44.1554 147.972 44.0874 147.972 44.008V43.373C147.972 43.2936 147.916 43.2256 147.825 43.2256H144.678C144.588 43.2256 144.531 43.2936 144.531 43.373V48.521C144.531 48.6004 144.588 48.6684 144.678 48.6684H147.825C147.916 48.6684 147.972 48.6004 147.972 48.521Z" fill="white"/>
<path d="M150.189 43.2139H149.479C149.388 43.2139 149.332 43.2819 149.332 43.3613V48.5093C149.332 48.5887 149.388 48.6567 149.479 48.6567H152.31C152.401 48.6567 152.457 48.5887 152.457 48.5093V47.8743C152.457 47.7949 152.401 47.7269 152.31 47.7269H150.336V43.3613C150.336 43.2819 150.268 43.2139 150.189 43.2139Z" fill="white"/>
<path d="M152.969 45.9469C152.969 47.5004 154.198 48.7364 155.744 48.7364C157.289 48.7364 158.53 47.5004 158.53 45.9469C158.53 44.3934 157.289 43.1348 155.744 43.1348C154.198 43.1348 152.969 44.3821 152.969 45.9469ZM157.526 45.9469C157.526 46.9221 156.725 47.7272 155.744 47.7272C154.762 47.7272 153.973 46.9221 153.973 45.9469C153.973 44.9717 154.774 44.144 155.744 44.144C156.714 44.144 157.526 44.9604 157.526 45.9469Z" fill="white"/>
<path d="M161.768 43.2139H159.951C159.861 43.2139 159.805 43.2819 159.805 43.3613V48.5093C159.805 48.5887 159.861 48.6567 159.951 48.6567H160.662C160.741 48.6567 160.809 48.5887 160.809 48.5093V46.6837H161.779C162.727 46.6837 163.505 45.9013 163.505 44.9374C163.505 43.9736 162.727 43.2139 161.768 43.2139ZM161.711 45.7425H160.82V44.1777H161.711C162.151 44.1777 162.512 44.5065 162.512 44.9261C162.512 45.391 162.151 45.7312 161.711 45.7312V45.7425Z" fill="white"/>
<path d="M168.278 44.9384C168.278 43.9973 167.5 43.2148 166.541 43.2148H164.725C164.635 43.2148 164.578 43.2829 164.578 43.3623V48.5103C164.578 48.5897 164.635 48.6577 164.725 48.6577H165.435C165.514 48.6577 165.582 48.5897 165.582 48.5103V46.6847H166.552C167.5 46.6847 168.278 45.9023 168.278 44.9384ZM165.582 45.7435V44.1787H166.473C166.913 44.1787 167.274 44.5075 167.274 44.9271C167.274 45.392 166.913 45.7322 166.473 45.7322H165.582V45.7435Z" fill="white"/>
<path d="M172.638 44.1554C172.728 44.1554 172.785 44.0874 172.785 44.008V43.373C172.785 43.2936 172.728 43.2256 172.638 43.2256H169.49C169.4 43.2256 169.344 43.2936 169.344 43.373V48.521C169.344 48.6004 169.4 48.6684 169.49 48.6684H172.638C172.728 48.6684 172.785 48.6004 172.785 48.521V47.886C172.785 47.8067 172.728 47.7386 172.638 47.7386H170.348V46.3779H172.266C172.345 46.3779 172.412 46.3212 172.412 46.2305V45.5842C172.412 45.5048 172.345 45.4367 172.266 45.4367H170.348V44.1554H172.638Z" fill="white"/>
<path d="M173.905 48.6687H174.604C174.672 48.6687 174.74 48.612 174.74 48.5553L175.191 45.6071H175.214L176.579 48.6687C176.579 48.6687 176.646 48.7594 176.714 48.7594H176.849C176.917 48.7594 176.962 48.7254 176.985 48.6687L178.339 45.6071H178.361L178.812 48.5553C178.812 48.5553 178.891 48.6687 178.959 48.6687H179.658C179.76 48.6687 179.816 48.6007 179.794 48.4873L178.88 43.2599C178.88 43.2032 178.824 43.1465 178.745 43.1465H178.621C178.553 43.1465 178.508 43.1805 178.485 43.2259L176.782 46.8998H176.759L175.056 43.2259C175.056 43.2259 174.988 43.1465 174.92 43.1465H174.796C174.717 43.1465 174.661 43.2032 174.661 43.2599L173.736 48.4873C173.725 48.6007 173.781 48.6687 173.882 48.6687H173.905Z" fill="white"/>
<path d="M184.4 44.1554C184.49 44.1554 184.546 44.0874 184.546 44.008V43.373C184.546 43.2936 184.49 43.2256 184.4 43.2256H181.252C181.162 43.2256 181.105 43.2936 181.105 43.373V48.521C181.105 48.6004 181.162 48.6684 181.252 48.6684H184.4C184.49 48.6684 184.546 48.6004 184.546 48.521V47.886C184.546 47.8067 184.49 47.7386 184.4 47.7386H182.11V46.3779H184.027C184.106 46.3779 184.174 46.3212 184.174 46.2305V45.5842C184.174 45.5048 184.106 45.4367 184.027 45.4367H182.11V44.1554H184.4Z" fill="white"/>
<path d="M190.34 48.7475C190.419 48.7475 190.487 48.6908 190.487 48.6114V43.3727C190.487 43.2933 190.419 43.2253 190.34 43.2253H189.63C189.539 43.2253 189.483 43.2933 189.483 43.3727V46.593L186.256 43.1572H186.065C185.986 43.1572 185.918 43.2139 185.918 43.2933V48.5321C185.918 48.6114 185.986 48.6795 186.065 48.6795H186.764C186.854 48.6795 186.911 48.6114 186.911 48.5321V45.187L190.148 48.7588H190.329L190.34 48.7475Z" fill="white"/>
<path d="M192.97 48.6684H193.692C193.771 48.6684 193.839 48.6004 193.839 48.521V44.1554H195.023C195.102 44.1554 195.17 44.0874 195.17 44.008V43.373C195.17 43.2936 195.113 43.2256 195.023 43.2256H191.639C191.549 43.2256 191.492 43.2936 191.492 43.373V44.008C191.492 44.0874 191.549 44.1554 191.639 44.1554H192.823V48.521C192.823 48.6004 192.891 48.6684 192.97 48.6684Z" fill="white"/>
<path d="M106.264 61.3913C107.381 61.3913 108.182 60.881 108.182 60.881C108.216 60.8583 108.238 60.8243 108.238 60.7563V58.7606C108.238 58.6812 108.182 58.6131 108.103 58.6131H106.614C106.523 58.6131 106.467 58.6812 106.467 58.7606V59.3729C106.467 59.4523 106.523 59.5089 106.614 59.5089H107.234V60.1666C107.076 60.2233 106.749 60.3594 106.309 60.3594C105.339 60.3594 104.572 59.543 104.572 58.5791C104.572 57.6153 105.339 56.7762 106.309 56.7762C106.738 56.7762 107.144 56.9349 107.482 57.2298C107.55 57.2978 107.618 57.2978 107.685 57.2298L108.17 56.7195C108.227 56.6628 108.227 56.5607 108.17 56.504C107.64 56.0505 106.975 55.7783 106.286 55.7783C104.741 55.7783 103.5 57.037 103.5 58.5905C103.5 60.1439 104.741 61.3799 106.286 61.3799L106.264 61.3913Z" fill="white"/>
<path d="M110.688 61.1759V59.1916H111.545L112.572 61.2553C112.572 61.2553 112.628 61.3233 112.696 61.3233H113.508C113.643 61.3233 113.688 61.1986 113.643 61.0966L112.583 59.1235C113.26 58.8514 113.734 58.2731 113.734 57.5474C113.734 56.6175 112.978 55.8691 112.041 55.8691H109.83C109.74 55.8691 109.684 55.9372 109.684 56.0166V61.1646C109.684 61.244 109.74 61.312 109.83 61.312H110.541C110.62 61.312 110.688 61.244 110.688 61.1646V61.1759ZM110.699 56.8103H111.962C112.369 56.8103 112.73 57.1505 112.73 57.5587C112.73 57.9896 112.369 58.3524 111.962 58.3524H110.699V56.8103Z" fill="white"/>
<path d="M118.606 61.1639C118.663 61.2773 118.719 61.3226 118.832 61.3226H119.509C119.622 61.3226 119.689 61.2206 119.644 61.1185L117.264 55.8798C117.264 55.8798 117.207 55.7891 117.128 55.7891H117.049C116.982 55.7891 116.937 55.8231 116.914 55.8798L114.5 61.1185C114.455 61.2206 114.511 61.3226 114.635 61.3226H115.312C115.436 61.3226 115.504 61.2433 115.538 61.1639L115.921 60.3248H118.234L118.617 61.1639H118.606ZM116.294 59.463L117.049 57.7508H117.072L117.85 59.463H116.294Z" fill="white"/>
<path d="M122.564 55.8688H120.725C120.646 55.8688 120.59 55.9368 120.59 56.0162V61.1642C120.59 61.2436 120.646 61.3116 120.725 61.3116H122.564C124.064 61.3116 125.283 60.087 125.283 58.5789C125.283 57.0707 124.064 55.8574 122.564 55.8574V55.8688ZM122.474 60.3705H121.594V56.8099H122.474C123.478 56.8099 124.211 57.5697 124.211 58.5902C124.211 59.6107 123.478 60.3705 122.474 60.3705Z" fill="white"/>
<path d="M127.36 55.8691H126.627C126.548 55.8691 126.48 55.9372 126.48 56.0166V59.2483C126.48 60.4275 127.417 61.3914 128.635 61.3914C129.854 61.3914 130.79 60.4389 130.79 59.2483V56.0166C130.79 55.9372 130.722 55.8691 130.643 55.8691H129.91C129.82 55.8691 129.763 55.9372 129.763 56.0166V59.2029C129.763 59.8606 129.301 60.3822 128.635 60.3822C127.97 60.3822 127.518 59.8606 127.518 59.2029V56.0166C127.518 55.9372 127.462 55.8691 127.372 55.8691H127.36Z" fill="white"/>
<path d="M135.559 61.1639C135.616 61.2773 135.672 61.3226 135.785 61.3226H136.462C136.575 61.3226 136.642 61.2206 136.597 61.1185L134.217 55.8798C134.217 55.8798 134.16 55.7891 134.081 55.7891H134.003C133.935 55.7891 133.89 55.8231 133.867 55.8798L131.453 61.1185C131.408 61.2206 131.464 61.3226 131.588 61.3226H132.265C132.389 61.3226 132.457 61.2433 132.491 61.1639L132.874 60.3248H135.187L135.571 61.1639H135.559ZM133.247 59.463L134.003 57.7508H134.025L134.803 59.463H133.247Z" fill="white"/>
<path d="M138.095 61.3237H138.817C138.896 61.3237 138.964 61.2557 138.964 61.1763V56.8107H140.148C140.238 56.8107 140.295 56.7426 140.295 56.6633V56.0283C140.295 55.9489 140.238 55.8809 140.148 55.8809H136.764C136.685 55.8809 136.617 55.9489 136.617 56.0283V56.6633C136.617 56.7426 136.685 56.8107 136.764 56.8107H137.948V61.1763C137.948 61.2557 138.016 61.3237 138.095 61.3237Z" fill="white"/>
<path d="M144.583 56.8107C144.673 56.8107 144.73 56.7426 144.73 56.6633V56.0283C144.73 55.9489 144.673 55.8809 144.583 55.8809H141.436C141.345 55.8809 141.289 55.9489 141.289 56.0283V61.1763C141.289 61.2557 141.345 61.3237 141.436 61.3237H144.583C144.673 61.3237 144.73 61.2557 144.73 61.1763V60.5413C144.73 60.4619 144.673 60.3939 144.583 60.3939H142.293V59.0332H144.211C144.29 59.0332 144.358 58.9765 144.358 58.8858V58.2394C144.358 58.1601 144.29 58.092 144.211 58.092H142.293V56.8107H144.583Z" fill="white"/>
<path d="M148.014 55.8691H148.736C148.815 55.8691 148.882 55.9372 148.882 56.0166V61.1646C148.882 61.244 148.815 61.312 148.736 61.312H148.014C147.935 61.312 147.867 61.244 147.867 61.1646V56.0166C147.867 55.9372 147.935 55.8691 148.014 55.8691Z" fill="white"/>
<path d="M150.647 61.3234H151.346C151.436 61.3234 151.493 61.2554 151.493 61.176V57.8309L154.73 61.4028H154.922C155.001 61.4028 155.069 61.3347 155.069 61.2667V56.0279C155.069 55.9486 155.001 55.8805 154.922 55.8805H154.212C154.121 55.8805 154.065 55.9486 154.065 56.0279V59.2483L150.838 55.8125H150.647C150.568 55.8125 150.5 55.8692 150.5 55.9486V61.1873C150.5 61.2667 150.568 61.3347 150.647 61.3347V61.3234Z" fill="white"/>
<path d="M158.138 60.5066C157.631 60.5066 157.01 60.053 156.965 60.0303C156.897 59.9736 156.762 59.9736 156.706 60.087L156.424 60.5633C156.356 60.688 156.39 60.722 156.457 60.8014C156.615 60.9488 157.191 61.4024 158.161 61.4024C159.255 61.4024 159.943 60.6653 159.943 59.8603C159.943 58.8511 159.075 58.4088 158.33 58.1027C157.71 57.8419 157.416 57.5924 157.416 57.2295C157.416 56.9801 157.653 56.6852 158.093 56.6852C158.533 56.6852 159.109 57.0708 159.165 57.1161C159.255 57.1728 159.368 57.1161 159.436 57.0254L159.729 56.5832C159.785 56.5038 159.763 56.3791 159.684 56.3224C159.526 56.209 158.928 55.8008 158.138 55.8008C156.909 55.8008 156.401 56.6059 156.401 57.2976C156.401 58.2161 157.123 58.681 157.856 58.9758C158.511 59.2366 158.838 59.5087 158.838 59.9056C158.838 60.2458 158.533 60.5066 158.138 60.5066Z" fill="white"/>
<path d="M162.13 61.3227H162.852C162.931 61.3227 162.999 61.2547 162.999 61.1753V56.8097H164.183C164.274 56.8097 164.33 56.7417 164.33 56.6623V56.0273C164.33 55.9479 164.274 55.8799 164.183 55.8799H160.799C160.709 55.8799 160.652 55.9479 160.652 56.0273V56.6623C160.652 56.7417 160.709 56.8097 160.799 56.8097H161.984V61.1753C161.984 61.2547 162.051 61.3227 162.13 61.3227Z" fill="white"/>
<path d="M165.479 55.8691H166.201C166.28 55.8691 166.347 55.9372 166.347 56.0166V61.1646C166.347 61.244 166.28 61.312 166.201 61.312H165.479C165.4 61.312 165.332 61.244 165.332 61.1646V56.0166C165.332 55.9372 165.4 55.8691 165.479 55.8691Z" fill="white"/>
<path d="M169.686 61.1753V56.8097H170.871C170.961 56.8097 171.018 56.7417 171.018 56.6623V56.0273C171.018 55.9479 170.961 55.8799 170.871 55.8799H167.487C167.396 55.8799 167.34 55.9479 167.34 56.0273V56.6623C167.34 56.7417 167.396 56.8097 167.487 56.8097H168.671V61.1753C168.671 61.2547 168.739 61.3227 168.818 61.3227H169.54C169.619 61.3227 169.686 61.2547 169.686 61.1753Z" fill="white"/>
<path d="M173.003 56.0166C173.003 55.9372 172.947 55.8691 172.856 55.8691H172.123C172.044 55.8691 171.977 55.9372 171.977 56.0166V59.2483C171.977 60.4275 172.913 61.3914 174.131 61.3914C175.35 61.3914 176.286 60.4389 176.286 59.2483V56.0166C176.286 55.9372 176.218 55.8691 176.139 55.8691H175.406C175.316 55.8691 175.259 55.9372 175.259 56.0166V59.2029C175.259 59.8606 174.797 60.3822 174.131 60.3822C173.466 60.3822 173.014 59.8606 173.014 59.2029V56.0166H173.003Z" fill="white"/>
<path d="M179.604 61.1763V56.8107H180.789C180.879 56.8107 180.935 56.7426 180.935 56.6633V56.0283C180.935 55.9489 180.879 55.8809 180.789 55.8809H177.404C177.314 55.8809 177.258 55.9489 177.258 56.0283V56.6633C177.258 56.7426 177.314 56.8107 177.404 56.8107H178.589V61.1763C178.589 61.2557 178.657 61.3237 178.736 61.3237H179.458C179.537 61.3237 179.604 61.2557 179.604 61.1763Z" fill="white"/>
<path d="M185.232 56.8107C185.322 56.8107 185.378 56.7426 185.378 56.6633V56.0283C185.378 55.9489 185.322 55.8809 185.232 55.8809H182.084C181.994 55.8809 181.938 55.9489 181.938 56.0283V61.1763C181.938 61.2557 181.994 61.3237 182.084 61.3237H185.232C185.322 61.3237 185.378 61.2557 185.378 61.1763V60.5413C185.378 60.4619 185.322 60.3939 185.232 60.3939H182.942V59.0332H184.859C184.938 59.0332 185.006 58.9765 185.006 58.8858V58.2394C185.006 58.1601 184.938 58.092 184.859 58.092H182.942V56.8107H185.232Z" fill="white"/>
<path d="M106.263 64.5547C104.717 64.5547 103.477 65.8133 103.477 67.3668C103.477 68.9203 104.706 70.1563 106.263 70.1563C107.82 70.1563 109.05 68.9203 109.05 67.3668C109.05 65.8133 107.809 64.5547 106.263 64.5547ZM106.263 69.1471C105.293 69.1471 104.492 68.342 104.492 67.3668C104.492 66.3917 105.293 65.5752 106.263 65.5752C107.233 65.5752 108.045 66.3917 108.045 67.3668C108.045 68.342 107.244 69.1471 106.263 69.1471Z" fill="white"/>
<path d="M113.618 64.6348H110.471C110.381 64.6348 110.324 64.7028 110.324 64.7822V69.9302C110.324 70.0096 110.381 70.0776 110.471 70.0776H111.182C111.261 70.0776 111.328 70.0096 111.328 69.9302V67.9572H113.235C113.314 67.9572 113.381 67.8891 113.381 67.8098V67.1748C113.381 67.0954 113.314 67.0274 113.235 67.0274H111.328V65.5646H113.618C113.709 65.5646 113.765 65.4966 113.765 65.4172V64.7822C113.765 64.7028 113.709 64.6348 113.618 64.6348Z" fill="white"/>
<path d="M116.861 64.6348H117.584C117.662 64.6348 117.73 64.7028 117.73 64.7822V69.9302C117.73 70.0096 117.662 70.0776 117.584 70.0776H116.861C116.783 70.0776 116.715 70.0096 116.715 69.9302V64.7822C116.715 64.7028 116.783 64.6348 116.861 64.6348Z" fill="white"/>
<path d="M123.766 64.6341H123.056C122.965 64.6341 122.909 64.7021 122.909 64.7815V67.9905L119.694 64.5547H119.502C119.423 64.5547 119.355 64.6227 119.355 64.6908V69.9295C119.355 70.0089 119.423 70.0769 119.502 70.0769H120.202C120.292 70.0769 120.348 70.0089 120.348 69.9295V66.5844L123.586 70.1563H123.778C123.857 70.1563 123.924 70.0996 123.924 70.0202V64.7815C123.924 64.7021 123.857 64.6341 123.778 64.6341H123.766Z" fill="white"/>
<path d="M128.449 64.6348H125.065C124.974 64.6348 124.918 64.7028 124.918 64.7822V65.4172C124.918 65.4966 124.974 65.5646 125.065 65.5646H126.249V69.9302C126.249 70.0096 126.317 70.0776 126.396 70.0776H127.118C127.197 70.0776 127.264 70.0096 127.264 69.9302V65.5646H128.449C128.539 65.5646 128.596 65.4966 128.596 65.4172V64.7822C128.596 64.7028 128.539 64.6348 128.449 64.6348Z" fill="white"/>
<path d="M132.907 65.5636C132.998 65.5636 133.054 65.4956 133.054 65.4162V64.7812C133.054 64.7018 132.998 64.6338 132.907 64.6338H129.76C129.67 64.6338 129.613 64.7018 129.613 64.7812V69.9292C129.613 70.0086 129.67 70.0767 129.76 70.0767H132.907C132.998 70.0767 133.054 70.0086 133.054 69.9292V69.2942C133.054 69.2149 132.998 69.1468 132.907 69.1468H130.617V67.7861H132.535C132.614 67.7861 132.682 67.7294 132.682 67.6387V66.9924C132.682 66.913 132.614 66.845 132.535 66.845H130.617V65.5636H132.907Z" fill="white"/>
<path d="M137.322 70.0096C137.322 70.0096 137.378 70.0776 137.446 70.0776H138.258C138.393 70.0776 138.45 69.9529 138.393 69.8508L137.333 67.8778C138.01 67.6057 138.484 67.016 138.484 66.3016C138.484 65.3718 137.728 64.6348 136.791 64.6348H134.58C134.49 64.6348 134.434 64.7028 134.434 64.7822V69.9302C134.434 70.0096 134.49 70.0776 134.58 70.0776H135.291C135.37 70.0776 135.438 70.0096 135.438 69.9302V67.9458H136.295L137.322 70.0096ZM135.438 65.5646H136.701C137.107 65.5646 137.468 65.9048 137.468 66.3243C137.468 66.7552 137.107 67.1181 136.701 67.1181H135.438V65.5759V65.5646Z" fill="white"/>
<path d="M139.959 70.0769H140.658C140.748 70.0769 140.805 70.0089 140.805 69.9295V66.5844L144.043 70.1563H144.223C144.302 70.1563 144.37 70.0996 144.37 70.0202V64.7815C144.37 64.7021 144.302 64.6341 144.223 64.6341H143.512C143.422 64.6341 143.366 64.7021 143.366 64.7815V67.9905L140.139 64.5547H139.947C139.868 64.5547 139.801 64.6227 139.801 64.6908V69.9295C139.801 70.0089 139.868 70.0769 139.947 70.0769H139.959Z" fill="white"/>
<path d="M149.458 69.9295C149.515 70.0429 149.571 70.0883 149.684 70.0883H150.361C150.473 70.0883 150.541 69.9862 150.496 69.8842L148.116 64.6454C148.116 64.6454 148.059 64.5547 147.98 64.5547H147.901C147.834 64.5547 147.789 64.5887 147.766 64.6454L145.363 69.8842C145.318 69.9862 145.374 70.0883 145.498 70.0883H146.175C146.299 70.0883 146.367 70.0089 146.401 69.9295L146.785 69.0904H149.097L149.481 69.9295H149.458ZM147.146 68.2173L147.901 66.505H147.924L148.702 68.2173H147.146Z" fill="white"/>
<path d="M152.7 70.0776C152.779 70.0776 152.847 70.0096 152.847 69.9302V65.5646H154.031C154.121 65.5646 154.178 65.4966 154.178 65.4172V64.7822C154.178 64.7028 154.121 64.6348 154.031 64.6348H150.647C150.556 64.6348 150.5 64.7028 150.5 64.7822V65.4172C150.5 65.4966 150.556 65.5646 150.647 65.5646H151.831V69.9302C151.831 70.0096 151.899 70.0776 151.978 70.0776H152.7Z" fill="white"/>
<path d="M155.322 64.6348H156.044C156.123 64.6348 156.191 64.7028 156.191 64.7822V69.9302C156.191 70.0096 156.123 70.0776 156.044 70.0776H155.322C155.243 70.0776 155.176 70.0096 155.176 69.9302V64.7822C155.176 64.7028 155.243 64.6348 155.322 64.6348Z" fill="white"/>
<path d="M160.232 64.5547C158.686 64.5547 157.445 65.8133 157.445 67.3668C157.445 68.9203 158.675 70.1563 160.232 70.1563C161.789 70.1563 163.018 68.9203 163.018 67.3668C163.018 65.8133 161.777 64.5547 160.232 64.5547ZM160.232 69.1471C159.25 69.1471 158.461 68.342 158.461 67.3668C158.461 66.3917 159.262 65.5752 160.232 65.5752C161.202 65.5752 162.014 66.3917 162.014 67.3668C162.014 68.342 161.213 69.1471 160.232 69.1471Z" fill="white"/>
<path d="M164.427 70.0769H165.127C165.217 70.0769 165.274 70.0089 165.274 69.9295V66.5844L168.511 70.1563H168.692C168.771 70.1563 168.838 70.0996 168.838 70.0202V64.7815C168.838 64.7021 168.771 64.6341 168.692 64.6341H167.981C167.902 64.6341 167.834 64.7021 167.834 64.7815V67.9905L164.608 64.5547H164.416C164.337 64.5547 164.27 64.6227 164.27 64.6908V69.9295C164.27 70.0089 164.337 70.0769 164.416 70.0769H164.427Z" fill="white"/>
<path d="M169.956 70.0765H170.633C170.757 70.0765 170.825 69.9972 170.859 69.9178L171.242 69.0787H173.555L173.939 69.9178C173.995 70.0312 174.051 70.0765 174.164 70.0765H174.841C174.954 70.0765 175.022 69.9745 174.977 69.8724L172.596 64.6337C172.596 64.6337 172.54 64.543 172.461 64.543H172.382C172.314 64.543 172.269 64.577 172.246 64.6337L169.844 69.8724C169.798 69.9745 169.855 70.0765 169.979 70.0765H169.956ZM172.371 66.5047H172.393L173.172 68.2169H171.615L172.371 66.5047Z" fill="white"/>
<path d="M175.922 64.7822V69.9302C175.922 70.0096 175.978 70.0776 176.069 70.0776H178.9C178.99 70.0776 179.047 70.0096 179.047 69.9302V69.2952C179.047 69.2158 178.979 69.1478 178.9 69.1478H176.926V64.7822C176.926 64.7028 176.858 64.6348 176.779 64.6348H176.069C175.978 64.6348 175.922 64.7028 175.922 64.7822Z" fill="white"/>
<path d="M183.765 64.5547H183.687C183.619 64.5547 183.574 64.5887 183.551 64.6454L181.148 69.8842C181.103 69.9862 181.16 70.0883 181.284 70.0883H181.961C182.085 70.0883 182.152 70.0089 182.186 69.9295L182.57 69.0904H184.882L185.266 69.9295C185.322 70.0429 185.379 70.0883 185.492 70.0883H186.168C186.281 70.0883 186.349 69.9862 186.304 69.8842L183.923 64.6454C183.923 64.6454 183.867 64.5547 183.788 64.5547H183.765ZM182.942 68.2173L183.698 66.505H183.72L184.499 68.2173H182.942Z" fill="white"/>
<path d="M190.962 64.6341C190.871 64.6341 190.815 64.7021 190.815 64.7815V67.9905L187.588 64.5547H187.397C187.318 64.5547 187.25 64.6227 187.25 64.6908V69.9295C187.25 70.0089 187.318 70.0769 187.397 70.0769H188.096C188.186 70.0769 188.243 70.0089 188.243 69.9295V66.5844L191.48 70.1563H191.661C191.74 70.1563 191.808 70.0996 191.808 70.0202V64.7815C191.808 64.7021 191.74 64.6341 191.661 64.6341H190.95H190.962Z" fill="white"/>
<path d="M195.431 64.6338H193.592C193.513 64.6338 193.457 64.7018 193.457 64.7812V69.9292C193.457 70.0086 193.525 70.0767 193.592 70.0767H195.431C196.932 70.0767 198.15 68.852 198.15 67.3439C198.15 65.8358 196.932 64.6338 195.431 64.6338ZM195.341 69.1355H194.461V65.5749H195.341C196.345 65.5749 197.078 66.3347 197.078 67.3552C197.078 68.3758 196.345 69.1355 195.341 69.1355Z" fill="white"/>
<path d="M105.845 73.3887H104.006C103.927 73.3887 103.871 73.4567 103.871 73.5361V78.6841C103.871 78.7635 103.927 78.8315 104.006 78.8315H105.845C107.334 78.8315 108.564 77.6069 108.564 76.0988C108.564 74.5906 107.346 73.3887 105.845 73.3887ZM105.755 77.8904H104.875V74.3298H105.755C106.759 74.3298 107.492 75.0896 107.492 76.0988C107.492 77.108 106.759 77.879 105.755 77.879V77.8904Z" fill="white"/>
<path d="M113.134 73.3887H109.986C109.896 73.3887 109.84 73.4567 109.84 73.5361V78.6841C109.84 78.7635 109.896 78.8315 109.986 78.8315H113.134C113.224 78.8315 113.281 78.7635 113.281 78.6841V78.0491C113.281 77.9697 113.224 77.9017 113.134 77.9017H110.844V76.541H112.762C112.841 76.541 112.908 76.4843 112.908 76.3936V75.7472C112.908 75.6679 112.841 75.5998 112.762 75.5998H110.844V74.3185H113.134C113.224 74.3185 113.281 74.2505 113.281 74.1711V73.5361C113.281 73.4567 113.224 73.3887 113.134 73.3887Z" fill="white"/>
<path d="M119.077 73.3877H118.288C118.22 73.3877 118.175 73.4331 118.152 73.4784L116.663 76.8235H116.607L115.118 73.4784C115.118 73.4784 115.061 73.3877 114.982 73.3877H114.192C114.08 73.3877 114.012 73.4897 114.057 73.5918L116.449 78.8306C116.449 78.8306 116.505 78.9099 116.584 78.9099H116.663C116.731 78.9099 116.776 78.8759 116.798 78.8306L119.201 73.5918C119.246 73.4897 119.19 73.3877 119.066 73.3877H119.077Z" fill="white"/>
<path d="M123.47 73.3877H120.322C120.232 73.3877 120.176 73.4557 120.176 73.5351V78.6831C120.176 78.7625 120.232 78.8306 120.322 78.8306H123.47C123.56 78.8306 123.617 78.7625 123.617 78.6831V78.0481C123.617 77.9688 123.56 77.9007 123.47 77.9007H121.18V76.54H123.098C123.177 76.54 123.244 76.4833 123.244 76.3926V75.7463C123.244 75.6669 123.177 75.5989 123.098 75.5989H121.18V74.3175H123.47C123.56 74.3175 123.617 74.2495 123.617 74.1701V73.5351C123.617 73.4557 123.56 73.3877 123.47 73.3877Z" fill="white"/>
<path d="M127.959 77.9017H125.985V73.5361C125.985 73.4567 125.917 73.3887 125.838 73.3887H125.127C125.037 73.3887 124.98 73.4567 124.98 73.5361V78.6841C124.98 78.7635 125.037 78.8315 125.127 78.8315H127.959C128.049 78.8315 128.105 78.7635 128.105 78.6841V78.0491C128.105 77.9697 128.049 77.9017 127.959 77.9017Z" fill="white"/>
<path d="M131.396 73.3203C129.851 73.3203 128.621 74.5676 128.621 76.1325C128.621 77.6973 129.851 78.9219 131.396 78.9219C132.942 78.9219 134.183 77.6859 134.183 76.1325C134.183 74.579 132.942 73.3203 131.396 73.3203ZM131.396 77.9014C130.426 77.9014 129.625 77.0963 129.625 76.1211C129.625 75.1459 130.426 74.3182 131.396 74.3182C132.366 74.3182 133.179 75.1346 133.179 76.1211C133.179 77.1076 132.378 77.9014 131.396 77.9014Z" fill="white"/>
<path d="M137.416 73.3887H135.6C135.521 73.3887 135.453 73.4567 135.453 73.5361V78.6841C135.453 78.7635 135.51 78.8315 135.6 78.8315H136.31C136.389 78.8315 136.457 78.7635 136.457 78.6841V76.8585H137.427C138.375 76.8585 139.153 76.0761 139.153 75.1122C139.153 74.1484 138.375 73.3887 137.416 73.3887ZM137.348 75.9173H136.446V74.3525H137.348C137.788 74.3525 138.149 74.6813 138.149 75.1122C138.149 75.5658 137.788 75.9173 137.348 75.9173Z" fill="white"/>
<path d="M144.741 73.3086H144.617C144.549 73.3086 144.504 73.3426 144.481 73.388L142.778 77.0619H142.755L141.052 73.388C141.052 73.388 140.984 73.3086 140.916 73.3086H140.792C140.702 73.3086 140.657 73.3653 140.657 73.422L139.732 78.6494C139.721 78.7628 139.777 78.8308 139.879 78.8308H140.578C140.646 78.8308 140.713 78.7741 140.713 78.7174L141.165 75.7692H141.187L142.552 78.8308C142.552 78.8308 142.62 78.9215 142.688 78.9215H142.823C142.891 78.9215 142.936 78.8762 142.958 78.8308L144.312 75.7692H144.335L144.786 78.7174C144.786 78.7174 144.865 78.8308 144.933 78.8308H145.632C145.734 78.8308 145.79 78.7628 145.767 78.6494L144.854 73.422C144.854 73.3653 144.797 73.3086 144.718 73.3086H144.741Z" fill="white"/>
<path d="M150.384 73.3887H147.237C147.146 73.3887 147.09 73.4567 147.09 73.5361V78.6841C147.09 78.7635 147.146 78.8315 147.237 78.8315H150.384C150.474 78.8315 150.531 78.7635 150.531 78.6841V78.0491C150.531 77.9697 150.474 77.9017 150.384 77.9017H148.094V76.541H150.012C150.091 76.541 150.158 76.4843 150.158 76.3936V75.7472C150.158 75.6679 150.091 75.5998 150.012 75.5998H148.094V74.3185H150.384C150.474 74.3185 150.531 74.2505 150.531 74.1711V73.5361C150.531 73.4567 150.474 73.3887 150.384 73.3887Z" fill="white"/>
<path d="M156.329 73.3884H155.618C155.528 73.3884 155.471 73.4564 155.471 73.5358V76.7561L152.245 73.3203H152.053C151.974 73.3203 151.906 73.377 151.906 73.4564V78.6951C151.906 78.7745 151.974 78.8426 152.053 78.8426H152.752C152.843 78.8426 152.899 78.7745 152.899 78.6951V75.35L156.137 78.9219H156.317C156.396 78.9219 156.464 78.8539 156.464 78.7859V73.5471C156.464 73.4677 156.396 73.3997 156.317 73.3997L156.329 73.3884Z" fill="white"/>
<path d="M161.011 73.3887H157.627C157.537 73.3887 157.48 73.4567 157.48 73.5361V74.1711C157.48 74.2505 157.537 74.3185 157.627 74.3185H158.812V78.6841C158.812 78.7635 158.879 78.8315 158.958 78.8315H159.68C159.759 78.8315 159.827 78.7635 159.827 78.6841V74.3185H161.011C161.102 74.3185 161.158 74.2505 161.158 74.1711V73.5361C161.158 73.4567 161.102 73.3887 161.011 73.3887Z" fill="white"/>
<path d="M165.568 75.6222C164.937 75.3614 164.655 75.1119 164.655 74.7491C164.655 74.4996 164.892 74.2048 165.332 74.2048C165.771 74.2048 166.347 74.5903 166.403 74.6357C166.493 74.6924 166.606 74.6357 166.674 74.545L166.967 74.1027C167.024 74.0234 167.001 73.8986 166.922 73.8419C166.764 73.7285 166.166 73.3203 165.377 73.3203C164.147 73.3203 163.639 74.1254 163.639 74.8171C163.639 75.7356 164.361 76.2005 165.095 76.4953C165.749 76.7561 166.076 77.0283 166.076 77.4251C166.076 77.754 165.771 78.0261 165.377 78.0261C164.869 78.0261 164.249 77.5612 164.203 77.5385C164.136 77.4818 164 77.4818 163.944 77.5952L163.662 78.0715C163.594 78.1962 163.628 78.2302 163.696 78.3096C163.854 78.457 164.429 78.9219 165.399 78.9219C166.493 78.9219 167.182 78.1849 167.182 77.3798C167.182 76.3706 166.313 75.9284 165.568 75.6222Z" fill="white"/>
<path d="M171.422 73.3877H168.037C167.947 73.3877 167.891 73.4557 167.891 73.5351V74.1701C167.891 74.2495 167.947 74.3175 168.037 74.3175H169.222V78.6831C169.222 78.7625 169.289 78.8306 169.368 78.8306H170.09C170.169 78.8306 170.237 78.7625 170.237 78.6831V74.3175H171.422C171.512 74.3175 171.568 74.2495 171.568 74.1701V73.5351C171.568 73.4557 171.512 73.3877 171.422 73.3877Z" fill="white"/>
<path d="M176.691 73.3877H175.957C175.867 73.3877 175.811 73.4557 175.811 73.5351V76.7214C175.811 77.3791 175.359 77.9007 174.683 77.9007C174.006 77.9007 173.566 77.3791 173.566 76.7214V73.5351C173.566 73.4557 173.498 73.3877 173.419 73.3877H172.686C172.607 73.3877 172.539 73.4557 172.539 73.5351V76.7668C172.539 77.9461 173.475 78.9099 174.694 78.9099C175.912 78.9099 176.849 77.9574 176.849 76.7668V73.5351C176.849 73.4557 176.781 73.3877 176.702 73.3877H176.691Z" fill="white"/>
<path d="M180.396 73.3877H178.557C178.478 73.3877 178.422 73.4557 178.422 73.5351V78.6831C178.422 78.7625 178.478 78.8306 178.557 78.8306H180.396C181.897 78.8306 183.115 77.6059 183.115 76.0978C183.115 74.5897 181.897 73.3877 180.396 73.3877ZM180.306 77.8894H179.426V74.3289H180.306C181.31 74.3289 182.054 75.0886 182.054 76.0978C182.054 77.107 181.321 77.8781 180.306 77.8781V77.8894Z" fill="white"/>
<path d="M184.526 73.3887H185.248C185.327 73.3887 185.394 73.4567 185.394 73.5361V78.6841C185.394 78.7635 185.327 78.8315 185.248 78.8315H184.526C184.447 78.8315 184.379 78.7635 184.379 78.6841V73.5361C184.379 73.4567 184.447 73.3887 184.526 73.3887Z" fill="white"/>
<path d="M190.31 73.3887H187.162C187.072 73.3887 187.016 73.4567 187.016 73.5361V78.6841C187.016 78.7635 187.072 78.8315 187.162 78.8315H190.31C190.389 78.8315 190.456 78.7635 190.456 78.6841V78.0491C190.456 77.9697 190.389 77.9017 190.31 77.9017H188.02V76.541H189.937C190.016 76.541 190.084 76.4843 190.084 76.3936V75.7472C190.084 75.6679 190.016 75.5998 189.937 75.5998H188.02V74.3185H190.31C190.389 74.3185 190.456 74.2505 190.456 74.1711V73.5361C190.456 73.4567 190.389 73.3887 190.31 73.3887Z" fill="white"/>
<path d="M193.385 75.6222C192.764 75.3614 192.471 75.1119 192.471 74.7491C192.471 74.4996 192.708 74.2048 193.148 74.2048C193.588 74.2048 194.163 74.5903 194.22 74.6357C194.31 74.6924 194.434 74.6357 194.49 74.545L194.784 74.1027C194.84 74.0234 194.818 73.8986 194.739 73.8419C194.581 73.7285 193.983 73.3203 193.193 73.3203C191.963 73.3203 191.456 74.1254 191.456 74.8171C191.456 75.7356 192.189 76.2005 192.911 76.4953C193.565 76.7561 193.892 77.0283 193.892 77.4251C193.892 77.754 193.588 78.0261 193.193 78.0261C192.697 78.0261 192.065 77.5612 192.02 77.5385C191.952 77.4818 191.817 77.4818 191.76 77.5952L191.478 78.0715C191.411 78.1962 191.444 78.2302 191.512 78.3096C191.67 78.457 192.245 78.9219 193.216 78.9219C194.31 78.9219 194.998 78.1849 194.998 77.3798C194.998 76.3706 194.129 75.9284 193.385 75.6222Z" fill="white"/>
<path d="M61.1486 43.8828L60.1445 46.4568H62.1639L61.1598 43.8828H61.1486Z" fill="white"/>
<path d="M58.7575 28.9375H58.7462L57.7422 31.5229H59.7615L58.7575 28.9375Z" fill="white"/>
<path d="M87.5084 0.646484H2.00763C0.890783 0.646484 -0.0117188 1.55363 -0.0117188 2.67622V62.9559C-0.0117188 78.2413 12.3187 90.6351 27.5371 90.6351H87.5084C88.6252 90.6351 89.5277 89.728 89.5277 88.6054V2.67622C89.5277 1.55363 88.6252 0.646484 87.5084 0.646484ZM58.6847 25.4682H58.8088C58.8991 25.4682 58.978 25.5249 59.0232 25.6043L62.9039 34.1881C62.9829 34.3469 62.8814 34.517 62.6896 34.517H61.3133C61.0876 34.517 60.9861 34.4376 60.8846 34.2108L60.4333 33.2243H57.0602L56.609 34.2221C56.5526 34.3696 56.4172 34.517 56.169 34.517H54.804C54.6235 34.517 54.5219 34.3582 54.5896 34.1881L58.4704 25.6043C58.5042 25.5249 58.5945 25.4682 58.6847 25.4682ZM51.9385 47.5798C52.8297 47.5798 53.4841 46.8881 53.4841 46.015V40.969C53.4841 40.8443 53.5856 40.7309 53.721 40.7309H55.2439C55.368 40.7309 55.4808 40.8443 55.4808 40.969V46.1171C55.4808 48.0107 53.8902 49.5756 51.9385 49.5756C49.9869 49.5756 48.4188 48.0107 48.4188 46.1171V40.969C48.4188 40.8443 48.5316 40.7309 48.6557 40.7309H50.1786C50.314 40.7309 50.4156 40.8443 50.4156 40.969V46.015C50.4156 46.8881 51.0586 47.5798 51.9385 47.5798ZM46.5122 25.8537H48.1593C48.2608 25.8537 48.3398 25.9331 48.3736 25.9898L50.4156 30.5369H50.4945L52.5364 25.9898C52.559 25.9331 52.6492 25.8537 52.7508 25.8537H54.3978C54.5783 25.8537 54.6799 26.0125 54.6122 26.1826L50.7201 34.5623C50.6863 34.6417 50.6073 34.6984 50.5058 34.6984H50.3817C50.2802 34.6984 50.2125 34.6417 50.1674 34.5623L46.2979 26.1826C46.2189 26.0238 46.3205 25.8537 46.5122 25.8537ZM38.6492 26.0238C38.6492 25.8991 38.7507 25.7857 38.8861 25.7857H44.0191C44.1544 25.7857 44.256 25.8991 44.256 26.0238V27.3845C44.256 27.5093 44.1544 27.6227 44.0191 27.6227H40.5896V29.1648H43.4212C43.5453 29.1648 43.6581 29.2782 43.6581 29.4029V30.7637C43.6581 30.8997 43.5453 31.0018 43.4212 31.0018H40.5896V32.68H44.0191C44.1544 32.68 44.256 32.7934 44.256 32.9181V34.2788C44.256 34.4036 44.1544 34.517 44.0191 34.517H38.8861C38.7507 34.517 38.6492 34.4036 38.6492 34.2788V26.0352V26.0238ZM28.135 25.661H28.4509L33.3921 30.4462H33.4034V26.0238C33.4034 25.8991 33.5049 25.7857 33.6403 25.7857H35.1294C35.2535 25.7857 35.3663 25.8991 35.3663 26.0238V34.4036C35.3663 34.5283 35.2535 34.6304 35.1294 34.6304H34.9377C34.9377 34.6304 34.8023 34.5963 34.7797 34.5737L29.8836 29.6297H29.8724V34.2788C29.8724 34.4036 29.7708 34.517 29.6355 34.517H28.1576C28.0335 34.517 27.9207 34.4036 27.9207 34.2788V25.8991C27.9094 25.7744 28.0222 25.6723 28.1463 25.6723L28.135 25.661ZM19.5274 26.0238C19.5274 25.8991 19.629 25.7857 19.7643 25.7857H24.8973C25.0327 25.7857 25.1342 25.8991 25.1342 26.0238V27.3845C25.1342 27.5093 25.0327 27.6227 24.8973 27.6227H21.4678V29.1648H24.2994C24.4235 29.1648 24.5363 29.2782 24.5363 29.4029V30.7637C24.5363 30.8997 24.4235 31.0018 24.2994 31.0018H21.4678V32.68H24.8973C25.0327 32.68 25.1342 32.7934 25.1342 32.9181V34.2788C25.1342 34.4036 25.0327 34.517 24.8973 34.517H19.7643C19.629 34.517 19.5274 34.4036 19.5274 34.2788V26.0352V26.0238ZM13.6612 25.6837C14.6991 25.6837 15.8385 26.1259 16.6846 26.8516C16.7974 26.9423 16.8087 27.0897 16.7071 27.1918L15.7257 28.235C15.6241 28.3257 15.4887 28.3257 15.3872 28.2463C14.9134 27.8154 14.3719 27.6454 13.7627 27.6454C12.409 27.6454 11.326 28.7906 11.326 30.1627C11.326 31.5347 12.4315 32.646 13.774 32.646C14.135 32.646 14.5073 32.6006 14.8796 32.4532V31.342H14.1011C13.9658 31.342 13.8642 31.2399 13.8642 31.1152V29.8792C13.8642 29.7431 13.9658 29.6411 14.1011 29.6411H16.5943C16.7184 29.6411 16.8199 29.7545 16.8199 29.8792V33.6098C16.8312 33.6665 16.7861 33.7686 16.7297 33.8139C16.7297 33.8139 15.4549 34.619 13.6612 34.619C11.2019 34.619 9.21636 32.6573 9.21636 30.1627C9.21636 27.668 11.2019 25.6837 13.6612 25.6837ZM11.7885 64.1579C11.7885 64.2826 11.6757 64.396 11.5516 64.396H10.0625C9.93836 64.396 9.82555 64.2826 9.82555 64.1579V55.9142C9.82555 55.7895 9.93836 55.6761 10.0625 55.6761H11.5516C11.6757 55.6761 11.7885 55.7895 11.7885 55.9142V64.1579ZM9.20508 45.0965C9.20508 42.6019 11.1906 40.6175 13.6499 40.6175C14.6878 40.6175 15.8272 41.0597 16.6733 41.7855C16.7861 41.8762 16.7974 42.0236 16.6958 42.1256L15.7144 43.1688C15.6128 43.2596 15.4775 43.2596 15.3759 43.1802C14.9021 42.7493 14.3606 42.5792 13.7514 42.5792C12.3977 42.5792 11.3147 43.7245 11.3147 45.0965C11.3147 46.4686 12.4202 47.5798 13.7627 47.5798C14.1237 47.5798 14.496 47.5345 14.8683 47.3871V46.2758H14.0899C13.9545 46.2758 13.853 46.1738 13.853 46.049V44.813C13.853 44.677 13.9545 44.5749 14.0899 44.5749H16.583C16.7071 44.5749 16.8087 44.6883 16.8087 44.813V48.5437C16.8199 48.6117 16.7748 48.7024 16.7184 48.7478C16.7184 48.7478 15.4436 49.5529 13.6499 49.5529C11.1906 49.5529 9.20508 47.5912 9.20508 45.0965ZM22.0657 64.294C22.0657 64.4187 21.9529 64.5207 21.8288 64.5207H21.6258C21.6258 64.5207 21.4904 64.4867 21.4678 64.464L16.5717 59.5201H16.5605V64.1692C16.5605 64.294 16.4589 64.4074 16.3236 64.4074H14.8457C14.7216 64.4074 14.6088 64.294 14.6088 64.1692V55.7895C14.5975 55.6648 14.7103 55.5627 14.8344 55.5627H15.139L20.0802 60.3479H20.0915V55.9256C20.0915 55.8008 20.193 55.6874 20.3284 55.6874H21.8175C21.9416 55.6874 22.0544 55.8008 22.0544 55.9256V64.3053L22.0657 64.294ZM22.72 46.0377H21.6934V49.2127C21.6934 49.3374 21.5806 49.4508 21.4565 49.4508H19.9787C19.8433 49.4508 19.7418 49.3374 19.7418 49.2127V40.969C19.7418 40.8443 19.8433 40.7309 19.9787 40.7309H23.8594C25.3486 40.7309 26.5557 41.9442 26.5557 43.4183C26.5557 44.5636 25.7998 45.4821 24.7281 45.9243L26.4203 49.088C26.5105 49.2467 26.4203 49.4508 26.2059 49.4508H24.5589C24.4574 49.4508 24.3784 49.3941 24.3558 49.3374L22.7088 46.0377H22.72ZM27.3454 64.5207C25.7321 64.5207 24.8409 63.8517 24.5589 63.5569C24.4348 63.4322 24.4009 63.3868 24.5025 63.2054L25.0891 62.1735C25.1906 62.0148 25.4275 62.0374 25.5065 62.0941C25.5516 62.1168 26.4541 62.7745 27.2664 62.7745C27.7628 62.7745 28.1238 62.4683 28.1238 62.0261C28.1238 61.5045 27.6951 61.1076 26.849 60.7674C25.7773 60.3365 24.4461 59.5088 24.4461 58.012C24.4461 56.776 25.405 55.5287 27.3115 55.5287C28.5976 55.5287 29.5903 56.1864 29.9626 56.4585C30.1093 56.5492 30.0867 56.776 30.0416 56.8554L29.4098 57.8192C29.3196 57.9553 29.1052 58.0687 28.9924 57.978C28.8796 57.9213 27.9771 57.2296 27.2213 57.2296C26.7813 57.2296 26.4429 57.5244 26.4429 57.8646C26.4429 58.3295 26.8151 58.6697 27.7966 59.0779C28.7668 59.4634 30.3011 60.2232 30.3011 61.924C30.3011 63.2054 29.1955 64.4981 27.3792 64.4981L27.3454 64.5207ZM30.1431 49.156C30.0867 49.3034 29.9513 49.4508 29.7031 49.4508H28.3381C28.1463 49.4508 28.0561 49.2921 28.1238 49.122L32.0045 40.5381C32.0384 40.4588 32.1286 40.4021 32.2189 40.4021H32.343C32.4332 40.4021 32.5122 40.4588 32.5573 40.5381L36.4381 49.122C36.517 49.2807 36.4155 49.4508 36.2237 49.4508H34.8474C34.6218 49.4508 34.5202 49.3714 34.4187 49.1447L33.9675 48.1581H30.5944L30.1431 49.156ZM37.8257 57.2636C37.8257 57.3883 37.7241 57.5017 37.5888 57.5017H35.8176V64.1465C35.8176 64.2713 35.7048 64.3847 35.5807 64.3847H34.0916C33.9675 64.3847 33.8546 64.2713 33.8546 64.1465V57.5017H32.0835C31.9481 57.5017 31.8466 57.3883 31.8466 57.2636V55.9029C31.8466 55.7781 31.9481 55.6648 32.0835 55.6648H37.5888C37.7241 55.6648 37.8257 55.7781 37.8257 55.9029V57.2636ZM38.4574 49.2127V40.969C38.4574 40.8443 38.5589 40.7309 38.683 40.7309H41.7064C44.098 40.7309 46.061 42.6813 46.061 45.0739C46.061 47.4664 44.1093 49.4395 41.7064 49.4395H38.683C38.5589 49.4395 38.4574 49.3261 38.4574 49.2014V49.2127ZM41.7854 64.1579C41.7854 64.2826 41.6726 64.396 41.5485 64.396H40.0593C39.9353 64.396 39.8224 64.2826 39.8224 64.1579V55.9142C39.8224 55.7895 39.9353 55.6761 40.0593 55.6761H41.5485C41.6726 55.6761 41.7854 55.7895 41.7854 55.9142V64.1579ZM49.75 57.2636C49.75 57.3883 49.6484 57.5017 49.5131 57.5017H47.7419V64.1465C47.7419 64.2713 47.6291 64.3847 47.505 64.3847H46.0159C45.8918 64.3847 45.7789 64.2713 45.7789 64.1465V57.5017H44.0078C43.8724 57.5017 43.7709 57.3883 43.7709 57.2636V55.9029C43.7709 55.7781 43.8724 55.6648 44.0078 55.6648H49.5131C49.6484 55.6648 49.75 55.7781 49.75 55.9029V57.2636ZM58.7637 61.0509C58.7637 62.9446 57.173 64.5094 55.2214 64.5094C53.2697 64.5094 51.7016 62.9446 51.7016 61.0509V55.9029C51.7016 55.7781 51.8144 55.6648 51.9385 55.6648H53.4615C53.5969 55.6648 53.6984 55.7781 53.6984 55.9029V60.9489C53.6984 61.822 54.3414 62.5137 55.2214 62.5137C56.1013 62.5137 56.7669 61.8107 56.7669 60.9489V55.9029C56.7669 55.7781 56.8684 55.6648 57.0038 55.6648H58.5268C58.6509 55.6648 58.7637 55.7781 58.7637 55.9029V61.0509ZM59.0232 49.1447C58.9668 49.2921 58.8314 49.4395 58.5832 49.4395H57.2182C57.0377 49.4395 56.9361 49.2807 57.0038 49.1106L60.8846 40.5268C60.9184 40.4474 61.0087 40.3907 61.0989 40.3907H61.223C61.3133 40.3907 61.3922 40.4474 61.4374 40.5268L65.3181 49.1106C65.3971 49.2694 65.2955 49.4395 65.1038 49.4395H63.7274C63.5018 49.4395 63.4003 49.3601 63.2988 49.1333L62.8475 48.1468H59.4744L59.0232 49.1447ZM66.6719 57.2636C66.6719 57.3883 66.5703 57.5017 66.435 57.5017H64.6638V64.1465C64.6638 64.2713 64.551 64.3847 64.4269 64.3847H62.9378C62.8137 64.3847 62.7009 64.2713 62.7009 64.1465V57.5017H60.9297C60.7943 57.5017 60.6928 57.3883 60.6928 57.2636V55.9029C60.6928 55.7781 60.7943 55.6648 60.9297 55.6648H66.435C66.5703 55.6648 66.6719 55.7781 66.6719 55.9029V57.2636ZM67.8113 49.2127V42.5679H66.0401C65.9047 42.5679 65.8032 42.4545 65.8032 42.3297V40.969C65.8032 40.8443 65.9047 40.7309 66.0401 40.7309H71.5454C71.6807 40.7309 71.7823 40.8443 71.7823 40.969V42.3297C71.7823 42.4545 71.6807 42.5679 71.5454 42.5679H69.7742V49.2127C69.7742 49.3374 69.6614 49.4508 69.5373 49.4508H68.0482C67.9241 49.4508 67.8113 49.3374 67.8113 49.2127ZM74.3431 57.2636C74.3431 57.3883 74.2416 57.5017 74.1062 57.5017H70.6767V59.0439H73.497C73.6211 59.0439 73.7339 59.1573 73.7339 59.282V60.6427C73.7339 60.7788 73.6211 60.8808 73.497 60.8808H70.6767V62.559H74.1062C74.2416 62.559 74.3431 62.6724 74.3431 62.7972V64.1579C74.3431 64.2826 74.2416 64.396 74.1062 64.396H68.9732C68.8379 64.396 68.7363 64.2826 68.7363 64.1579V55.9142C68.7363 55.7895 68.8379 55.6761 68.9732 55.6761H74.1062C74.2416 55.6761 74.3431 55.7895 74.3431 55.9142V57.2749V57.2636ZM79.5099 42.3297C79.5099 42.4545 79.4084 42.5679 79.273 42.5679H75.8435V44.11H78.6638C78.7879 44.11 78.9007 44.2234 78.9007 44.3481V45.7089C78.9007 45.8449 78.7879 45.947 78.6638 45.947H75.8435V47.6252H79.273C79.4084 47.6252 79.5099 47.7386 79.5099 47.8633V49.224C79.5099 49.3488 79.4084 49.4622 79.273 49.4622H74.1401C74.0047 49.4622 73.9032 49.3488 73.9032 49.224V40.9804C73.9032 40.8556 74.0047 40.7422 74.1401 40.7422H79.273C79.4084 40.7422 79.5099 40.8556 79.5099 40.9804V42.3411V42.3297Z" fill="white"/>
<path d="M32.2701 43.8828L31.2773 46.4568H33.2967L32.2814 43.8828H32.2701Z" fill="white"/>
<path d="M23.6995 42.5107H21.6914V44.4498H23.6995C24.2071 44.4498 24.6471 43.9735 24.6471 43.4519C24.6471 42.9303 24.2071 42.5107 23.6995 42.5107Z" fill="white"/>
<path d="M43.9967 45.074C43.9967 43.6679 42.9814 42.5566 41.5825 42.5566H40.3867V47.6026H41.5825C42.9814 47.6026 43.9967 46.4914 43.9967 45.074Z" fill="white"/>
</g>
<defs>
<clipPath id="clip0_5370_14794">
<rect width="207" height="90" fill="white" transform="translate(0 0.646484)"/>
</clipPath>
</defs>
</svg>
