<svg width="255" height="272" viewBox="0 0 255 272" fill="none" xmlns="http://www.w3.org/2000/svg">
<path d="M157.483 262.955C150.464 261.198 144.14 258.948 144.14 258.948C145.138 258.773 144.227 258.89 150.667 257.685C157.049 256.494 158.51 256.247 164.082 256.16C173.995 256.015 173.098 260.472 173.098 260.472C173.098 263.376 170.826 265.379 170.826 265.379C170.826 265.379 165.775 265.016 157.483 262.955ZM71.8238 248.872C61.4908 248.567 61.8816 244.168 61.8816 244.168C61.8816 241.264 64.3128 239.478 64.3128 239.478C64.3128 239.478 69.5661 239.74 77.8441 241.656C84.8774 243.297 96.4115 247.173 96.4115 247.173C95.4274 247.362 91.8818 248.03 84.284 248.552C80.0438 248.828 78.3506 248.944 76.1219 248.944C74.9786 248.944 73.6761 248.944 71.8238 248.872ZM187.078 244.937C183.981 244.487 180.088 243.66 175.587 242.6C164.675 240.073 156.021 237.257 156.021 237.257C157.468 237.054 156.484 236.821 165.905 235.834C175.066 234.876 176.644 234.121 184.762 234.324C200.435 234.716 199.509 239.812 199.509 239.812C199.509 243.18 195.761 245.547 195.761 245.547C195.761 245.547 195.515 245.547 194.994 245.547C193.749 245.547 191.043 245.474 187.107 244.908M49.5805 219.515C38.741 218.47 39.3778 214.172 39.3778 214.172C39.3778 210.586 42.7642 208.96 42.7642 208.96C42.7642 208.96 42.7642 208.263 55.8179 210.339C65.543 211.893 84.9787 218.136 84.9787 218.136C83.9801 218.354 71.8382 219.718 64.2405 219.907C61.2882 219.98 59.6818 220.052 58.0755 220.052C56.0639 220.052 54.0812 219.922 49.5805 219.501M186.788 212.648C168.163 207.218 166.861 206.84 166.861 206.84C166.861 206.84 186.716 203.893 199.263 203.486C211.796 203.094 214.574 203.646 217.512 205.084C220.435 206.506 222.563 208.67 220.942 212.169C219.336 215.682 217.44 216.553 216.325 217.105C216.325 217.105 215.573 217.192 214.126 217.192C210.059 217.192 200.522 216.655 186.788 212.648ZM34.3271 184.932C23.1838 183.422 23.2561 178.485 23.2561 178.485C23.2561 173.535 27.3517 172.068 27.3517 172.068C27.3517 172.068 26.4399 171.371 39.9133 173.201C54.6312 175.19 81.1581 183.422 81.1581 183.422C80.1596 183.596 68.0032 184.598 60.4199 185.164C56.3388 185.454 51.9394 185.774 47.2216 185.774C43.155 185.774 38.8568 185.541 34.3126 184.932M203.619 178.674C189.987 175.32 174.704 169.832 174.704 169.832C176.34 169.513 182.866 168.235 193.489 167.088C204.082 165.912 206.803 165.68 215.819 165.636C235.834 165.52 234.835 172.446 234.835 172.446C235.284 178.195 228.221 182.246 228.221 182.246C228.221 182.246 217.382 182.042 203.605 178.674M29.508 146.283C17.9884 145.412 17.0477 139.198 17.0477 139.198C17.0477 132.984 23.3574 129.79 23.3574 129.79C23.3574 129.79 22.2576 128.991 38.1477 131.213C54.0523 133.463 84.8484 144.12 84.8484 144.12C83.6618 144.367 70.0437 145.775 61.1001 146.515C57.0769 146.835 52.6051 146.994 47.8438 146.994C42.0551 146.994 35.8177 146.748 29.4935 146.268M206.687 138.748C194.386 135.888 175.703 129.732 175.703 129.732C182.664 128.411 207.469 126.073 210.117 126.073C220.551 126.073 234.444 125.216 237.643 130.69C239.495 133.855 237.541 137.398 235.24 139.59C233.706 141.071 231.984 141.986 231.984 141.986C231.42 142.044 230.797 142.044 230.088 142.044C225.37 142.044 217.324 141.216 206.687 138.748ZM21.8668 101.101C18.7988 95.3661 27.0478 90.3572 27.0478 90.3572C30.9841 90.5605 36.3821 90.7056 52.9958 94.4079C64.8049 97.0648 85.8904 104.295 85.8904 104.295C78.6834 105.5 61.6645 106.778 49.9133 107.213C48.8858 107.242 47.7425 107.271 46.4835 107.271C37.8872 107.271 24.6165 106.212 21.8668 101.101ZM205.443 97.8053C194.43 95.642 177.367 90.604 177.367 90.604C190.522 88.5859 200.001 88.4407 208.192 87.7003C221.159 86.4807 229.061 88.4988 231.318 91.6639C233.012 94.0159 231.521 96.7454 229.915 98.4876C228.742 99.7653 227.454 100.39 227.454 100.39C226.948 100.419 226.383 100.433 225.776 100.433C221.666 100.433 215.081 99.7072 205.428 97.8198M47.5978 69.7988C42.5037 69.2616 37.7425 67.8533 35.8177 65.0947C32.8076 60.7972 39.5515 55.9335 39.5515 55.9335C42.9089 56.1222 48.3214 56.0787 63.3288 59.3599C73.4301 61.5522 91.8094 67.3306 91.8094 67.3306C85.6444 68.3614 70.3766 69.4939 60.9409 69.8859C59.1174 69.944 56.5849 70.0892 53.8497 70.0892C51.8236 70.0892 49.6818 70.0311 47.5978 69.8133M194.56 61.9006C186.065 60.4778 172.563 56.311 172.563 56.311C177.541 55.3382 189.48 54.017 196.774 53.8573C204.097 53.6976 212.925 54.0606 215.168 57.0369C217.657 60.4052 211.796 64.0494 211.796 64.0494C211.405 64.093 210.956 64.1075 210.479 64.1075C207.324 64.1075 202.302 63.2218 194.56 61.9006ZM57.786 35.1283C55.76 31.4986 60.1449 28.0867 60.1449 28.0867C62.692 28.2319 69.9135 28.5658 78.394 30.4097C86.0786 32.0648 100.348 36.856 100.348 36.856C95.63 37.8142 83.4736 38.5982 76.5271 38.9612C75.3549 39.0193 74.1103 39.0483 72.8368 39.0483C66.5126 39.0483 59.4648 38.1627 57.786 35.1283ZM175.804 31.9051C169.856 30.4823 159.798 27.3027 159.798 27.3027C163.416 26.33 172.042 25.1249 177.353 24.6603C182.635 24.1957 189.118 24.428 190.71 27.4624C192.302 30.4678 188.872 33.72 188.872 33.72C188.511 33.778 188.076 33.8071 187.584 33.8071C185.008 33.8071 180.696 33.0811 175.79 31.9051M85.2826 14.5553C83.9078 11.6371 86.86 8.47203 86.86 8.47203C88.5388 8.53011 92.9527 9.37219 98.0179 10.5192C103.083 11.6516 111.766 14.7296 111.766 14.7296C108.655 15.6878 101.26 16.8493 96.7154 17.2848C95.63 17.401 94.4722 17.4736 93.3434 17.4736C89.7689 17.4736 86.339 16.7912 85.2826 14.5553ZM158.163 1.64827C154.111 2.85332 143.474 6.14905 140.97 6.87498C138.467 7.60091 133.72 9.03826 130.739 9.86582C127.787 10.6934 122.056 12.2033 121.81 12.2759C121.81 12.2759 115.008 9.93842 113.126 9.41575C111.231 8.89307 106.238 7.36862 101.144 6.68624C96.0641 6.01838 91.7805 5.90223 88.2204 6.32327C84.6748 6.77335 79.2334 7.68803 77.0336 9.21249C74.8194 10.7224 73.6906 12.4792 73.3288 14.7876C73.3288 14.7876 73.1552 16.5589 74.6892 17.8801C76.2232 19.1723 79.2912 19.9708 82.5908 19.9272C85.8904 19.8692 91.3174 19.5788 95.0222 19.0561C98.7414 18.5189 105.558 17.3865 107.425 17.0235C109.277 16.6605 114.14 15.6007 114.14 15.6007C114.14 15.6007 123.734 19.3901 126.195 20.4209C130.507 22.2647 137.801 25.3717 138.988 25.8508C140.261 26.3735 145.616 28.6239 145.616 28.6239L114.14 34.8669C114.14 34.8669 100.029 30.0903 90.6661 28.0577C81.3318 26.0106 70.9265 24.6022 60.4489 26.0977C49.9712 27.6076 45.7454 30.1629 44.2114 33.9958C42.6629 37.8287 47.1058 41.7488 59.5661 41.9665C59.5661 41.9665 71.9106 42.3876 98.6401 38.6853L103.546 37.9739C103.546 37.9739 123.387 45.1316 128.51 47.1352C133.749 49.2114 154.762 57.4289 154.762 57.4289L108.264 65.1383C108.264 65.1383 94.617 60.6085 80.1161 57.0079C65.6008 53.4363 52.4604 52.2312 43.2997 53.3782C34.0956 54.4961 22.1273 56.5433 20.492 63.8752C18.8422 71.2361 32.084 73.0219 37.5254 73.0945C42.9668 73.1526 63.7484 72.5428 75.8469 71.2507C87.9454 69.9295 96.3825 68.7825 96.3825 68.7825C96.3825 68.7825 124.169 78.6842 130.84 81.2104C137.584 83.7657 158.12 91.8091 158.12 91.8091L104.111 101.841C104.111 101.841 81.737 93.8417 68.2058 90.8508C54.6746 87.86 43.7628 86.9163 33.5167 87.5696C23.2995 88.2375 8.84213 90.8508 4.93472 98.8651C4.93472 98.8651 2.08376 105.428 11.3747 108.622C20.6657 111.787 48.4806 110.175 49.3055 110.117C50.1159 110.059 80.7674 107.417 88.8572 106.008C89.0163 105.979 89.9136 105.863 90.0583 105.849C90.0583 105.849 104.111 111.032 110.927 113.631C119.61 117.013 139.972 125.608 143.04 126.784C146.282 128.048 154.487 131.358 154.487 131.358L102.736 141.434C102.736 141.434 71.3028 129.732 48.5385 127.22C25.7308 124.65 1.63513 130.385 0.53527 139.59C-0.550121 148.795 12.6482 149.985 26.7149 150.348C40.7816 150.711 75.5286 147.72 88.1625 145.325L153.373 171.371L97.7284 181.302C97.7284 181.302 59.3635 168.743 40.8829 168.976C22.4168 169.237 9.55125 172.446 8.33561 180.242C8.33561 180.242 7.80015 189.316 29.6816 188.706C51.5631 188.111 67.8295 187.995 84.313 184.99L85.6299 184.757C85.6299 184.757 109.378 192.888 121.824 197.679C134.241 202.47 148.525 207.944 148.525 207.944L99.494 216.19C99.494 216.19 63.8642 203.182 43.7483 206.884C43.7483 206.884 27.0333 208.074 26.0347 216.19C25.0506 224.335 58.3649 222.52 68.4808 221.432C78.5966 220.357 88.2638 219.283 88.2638 219.283L138.409 238.055L107.077 244.632C107.077 244.632 81.7804 235.181 67.3809 237.213C67.3809 237.213 50.0146 237.939 50.333 246.418C50.333 246.418 49.9567 252.226 69.2478 251.325C88.5388 250.44 95.9628 248.102 98.9875 248.16C98.9875 248.16 109.928 252.226 114.878 254.215C119.827 256.175 130.927 260.414 130.927 260.414C130.927 260.414 110.478 265.684 105.688 267.049C100.912 268.428 90.1307 271.056 90.3043 271.724C90.4635 272.377 96.6864 271.303 99.1901 270.65C101.723 269.996 132.244 261.401 133.445 261.329C133.445 261.329 151.868 268.08 162.852 267.702C173.836 267.354 179.292 265.742 181.492 263.942C183.691 262.156 184.849 260.008 184.632 257.67C184.415 255.333 179.581 253.256 172.114 253.779C164.632 254.331 158.091 254.81 141.708 258.033L111.028 246.099L141.708 239.333C141.708 239.333 154.791 243.398 161.752 244.966C168.756 246.491 180.551 249.017 190.117 248.001C199.697 246.984 210.305 245.852 212.447 238.084C212.447 238.084 214.98 229.794 187.816 232.117C160.667 234.44 152.736 236.11 152.736 236.11L106.122 218.484L151.376 209.468C151.376 209.468 177.251 217.599 188.699 218.963C200.131 220.314 209.741 221.432 223.865 217.671C238.004 213.925 236.326 206.927 235.891 205.969C235.457 205.011 233.692 202.064 225.124 200.859C216.557 199.668 203.431 200.539 196.774 201.251C190.102 201.977 163.489 205.316 162.91 205.548C162.91 205.548 112.765 186.021 101.925 182.696L157.266 172.721C157.266 172.721 182.331 181.563 197.367 183.959C212.389 186.354 221.695 186.021 235.559 183.073C249.408 180.126 251.391 172.809 251.159 169.44C250.942 166.115 244.951 161.165 226.977 162.21C209.017 163.241 190.045 164.606 170.826 168.337L106.469 142.77L160.117 133.202L173.677 137.354C199.914 145.964 220.508 145.644 220.508 145.644C239.119 144.86 249.307 140.868 253.923 133.695C258.554 126.523 246.745 123.503 246.745 123.503C235.674 121.253 210.45 123.344 202.404 124.069C194.343 124.781 171.332 128.294 171.332 128.294C165.254 126.407 148.481 118.93 132.75 112.643C119.566 107.446 107.859 103.192 107.859 103.192L161.651 93.0722C161.651 93.0722 176.817 97.6891 193.011 101.116C209.205 104.542 223.142 104.382 235.964 100.651C248.815 96.9051 246.745 90.5314 246.745 90.5314C243.648 82.7785 223.504 84.3174 211.564 85.1014C199.61 85.9 173.532 89.2393 173.532 89.2393C173.532 89.2393 161.13 84.782 154.531 82.2413C147.946 79.686 112.388 66.474 112.388 66.474L158.062 58.4888C179.089 64.543 191.115 67.3306 206.137 66.5466C221.159 65.7481 226.875 60.9715 228.41 57.8645C229.944 54.7575 226.948 52.6813 221.535 51.5779C216.094 50.46 211.116 51.0988 201.738 51.5779C192.36 52.057 168.829 55.2366 168.829 55.2366C168.829 55.2366 156.224 50.6923 152.924 49.342C149.639 47.9918 117.092 35.8687 117.092 35.8687C122.36 34.9105 148.322 29.466 148.322 29.466C148.322 29.466 163.054 34.9831 177.251 35.9558C191.492 36.8995 198.525 32.9069 198.525 32.9069C204.893 28.1303 202.186 25.5024 202.186 25.5024C199.249 21.3646 188.105 22.3954 180.044 23.0197C171.998 23.6731 157.034 26.3735 157.034 26.3735C155.355 25.3427 124.4 13.2341 124.4 13.2341C124.4 13.2341 132.157 11.2161 133.271 10.9257C134.386 10.6208 143.662 8.02196 146.947 7.03469C150.247 6.00386 151.795 5.6409 155.891 4.33422C160.001 3.02754 159.827 3.27436 162.562 2.38872C165.298 1.50308 165.529 1.32886 165.63 1.09656C165.732 0.849745 164.314 0.675522 163.995 0.661003C163.908 0.661003 163.764 0.646484 163.532 0.646484C162.794 0.646484 161.202 0.777152 158.163 1.67731" fill="white"/>
</svg>
