<svg width="263" height="77" viewBox="0 0 263 77" fill="none" xmlns="http://www.w3.org/2000/svg">
<g clip-path="url(#clip0_5370_14744)">
<path d="M16.6395 18.53L18.2742 20.6511L19.4791 19.7212L16.816 16.2705L15.872 17.0006C16.248 17.5847 15.7108 18.2841 15.0508 18.7759L15.5266 19.3984L16.6395 18.5377V18.53Z" fill="white"/>
<path d="M20.984 16.5396C21.0684 16.2015 21.3063 16.0016 21.667 15.8172C22.1889 15.5482 22.6264 15.6558 22.8182 16.0324C23.0101 16.409 22.7645 16.847 22.2656 17.1006C21.8819 17.3005 21.337 17.3543 21.1758 17.0468L19.9018 17.7001C20.4544 18.5916 21.5212 18.4533 22.6647 17.8615C23.8774 17.239 24.5681 16.2783 24.0769 15.3177C23.6625 14.5107 22.7492 14.4031 21.6747 14.9564C21.2756 15.1639 20.9609 15.4329 20.7998 15.7634H20.7844L20.6156 14.9641L22.9334 13.7729L22.5189 12.9736L19.2188 14.6721L19.8327 17.1314L20.9916 16.5396H20.984Z" fill="white"/>
<path d="M48.6596 15.1947C48.2606 14.9949 47.8538 14.9027 47.4931 14.9565H47.4777L48.0303 14.3417L50.3558 15.5175L50.7625 14.7106L47.447 13.0352L45.82 14.9795L46.9789 15.5636C47.3012 15.433 47.6005 15.5098 47.9612 15.6866C48.4908 15.9556 48.6596 16.3706 48.4678 16.7472C48.2759 17.1314 47.777 17.1852 47.2782 16.9316C46.8944 16.7395 46.5337 16.3322 46.6795 16.0171L45.3979 15.3715C44.9988 16.3398 45.7432 17.1237 46.8868 17.7001C48.1071 18.315 49.2813 18.3073 49.7725 17.3466C50.1793 16.5397 49.7264 15.7327 48.652 15.187L48.6596 15.1947Z" fill="white"/>
<path d="M53.9389 16.862C52.9718 16.1089 51.7669 15.9859 51.199 16.7237C50.6771 17.4 50.9304 18.3914 51.8513 19.0985C52.2504 19.4059 52.7646 19.6364 53.1791 19.5365H53.1944C52.8184 19.9823 52.2734 20.2359 51.6595 19.7594C51.5213 19.6518 51.3908 19.5135 51.3218 19.3675C51.245 19.2291 51.222 19.0754 51.2834 18.9524L50.2243 18.1301C49.8943 18.891 50.2703 19.6672 51.1222 20.3281C52.6035 21.4732 53.8238 21.0505 54.5912 20.0514C55.305 19.1215 55.3127 17.9149 53.9619 16.862H53.9389ZM53.7854 18.7219C53.5475 19.037 53.0563 19.06 52.5728 18.6835C52.1046 18.3222 52.0202 17.8534 52.2658 17.5307C52.4883 17.2463 52.9949 17.2309 53.4247 17.5614C53.9159 17.938 54.0156 18.4068 53.7854 18.7142V18.7219Z" fill="white"/>
<path d="M5.80905 34.7543C6.57653 35.008 7.13679 34.2702 7.58193 33.5016C8.02707 32.7254 8.36476 31.9185 8.6871 32.0261C8.96339 32.1183 8.91734 32.5487 8.8099 32.8714C8.6564 33.3326 8.37243 33.7783 7.99637 33.6246L7.50518 35.1156C8.46453 35.423 9.25503 34.4162 9.6311 33.2711C9.98414 32.1951 10.0455 30.8195 9.11689 30.5121C8.34173 30.2508 7.78147 31.0193 7.33633 31.7801C6.8912 32.5487 6.55351 33.3479 6.17744 33.2173C5.86277 33.1097 5.90115 32.6101 6.04697 32.1567C6.25419 31.5265 6.55351 31.1576 7.06004 31.296L7.55123 29.805C6.46141 29.4515 5.64788 30.4736 5.21809 31.7878C4.80365 33.0482 4.73458 34.4008 5.80905 34.7543Z" fill="white"/>
<path d="M5.32524 42.278L5.44803 40.7102C4.9415 40.6103 4.6652 40.1645 4.71893 39.4344C4.79568 38.42 5.48641 38.0895 6.14644 38.1356C6.80647 38.1894 7.43581 38.6275 7.35906 39.6342C7.30533 40.2952 7.03672 40.7486 6.57623 40.7947L6.45343 42.3625C7.5279 42.4086 8.24933 41.0483 8.34911 39.7418C8.48725 37.9204 7.55093 36.6677 6.26156 36.5678C4.9722 36.4679 3.85168 37.5669 3.71353 39.3883C3.59841 40.91 4.18169 42.1012 5.32524 42.278Z" fill="white"/>
<path d="M8.75774 47.3195L7.1537 47.5962L6.80834 45.5596L8.4047 45.2829L8.14375 43.7305L3.74609 44.4913L4.00704 46.0437L5.81829 45.7286L6.17133 47.7653L4.36008 48.0804L4.6287 49.6328L9.02636 48.8719L8.75774 47.3195Z" fill="white"/>
<path d="M10.6127 52.6533C9.83752 50.9164 8.45606 50.3631 7.27414 50.8934C6.09222 51.4237 5.59336 52.8224 6.36851 54.5593C7.14367 56.2962 8.52513 56.8495 9.70705 56.3192C10.889 55.7889 11.3878 54.3902 10.6127 52.6533ZM9.06237 54.8897C8.45606 55.1587 7.69625 55.0819 7.28182 54.152C6.86738 53.2297 7.31251 52.5995 7.91882 52.3305C8.52513 52.0616 9.28494 52.1461 9.69938 53.0683C10.1138 53.9906 9.66868 54.6208 9.06237 54.8897Z" fill="white"/>
<path d="M13.384 57.6023L12.4323 56.3496L8.87891 59.0548L11.5344 62.544L12.3326 61.9368L10.6288 59.7004L13.384 57.6023Z" fill="white"/>
<path d="M12.3553 63.5121L13.5756 64.565L14.3815 64.2038L15.9778 65.5718L15.7399 66.4172L16.9832 67.4854L18.1805 62.6283L16.9679 61.5908L12.3477 63.5121H12.3553ZM16.2618 64.6726L15.2257 63.7811L16.7607 63.0433H16.776L16.2618 64.6803V64.6726Z" fill="white"/>
<path d="M29.4116 68.9223C30.0333 69.053 30.4784 69.3835 30.4554 69.7677L31.9904 70.0905C32.0748 68.9608 30.8698 68.2076 29.6495 67.954C27.8613 67.5851 26.4952 68.3536 26.2343 69.6217C25.9733 70.8898 26.9173 72.1425 28.7055 72.5114C29.2505 72.6267 29.9796 72.619 30.4707 72.2808V72.7804L31.4531 72.9879L31.952 70.59L29.473 70.0751L29.2965 70.9205L30.371 71.1434C30.2021 71.5277 29.6419 71.6814 28.8821 71.52C27.892 71.3125 27.6464 70.5824 27.7769 69.9368C27.915 69.2912 28.4293 68.7148 29.4193 68.9223H29.4116Z" fill="white"/>
<path d="M35.8789 72.0659L35.8328 71.2129L38.7876 71.0668L38.7416 70.1677L35.7868 70.3137L35.7484 69.5375L38.9795 69.3684L38.9335 68.4385L34.1367 68.6844L34.3593 73.1419L39.2405 72.896L39.1944 71.8969L35.8789 72.0659Z" fill="white"/>
<path d="M44.1589 67.0551L44.9801 69.6835H44.9648L42.1481 67.6776L40.6055 68.1618L41.9332 72.4272L43.3454 71.9891L42.5165 69.33L42.5318 69.3223L45.3562 71.3589L46.8988 70.8824L45.5711 66.6094L44.1589 67.0551Z" fill="white"/>
<path d="M50.3614 67.9543L49.9162 67.2319L52.4259 65.6795L51.9501 64.9109L49.4404 66.4633L49.026 65.8024L51.7812 64.0963L51.29 63.3047L47.207 65.8332L49.5478 69.6374L53.7076 67.0628L53.1857 66.2097L50.3614 67.9543Z" fill="white"/>
<path d="M55.0273 59.7854L56.5469 62.9671L56.5392 62.9748L53.3465 61.4761L52.1953 62.6366L56.7004 64.435L57.9744 63.1515L56.1785 58.6172L55.0273 59.7854Z" fill="white"/>
<path d="M60.6705 58.0709L59.9414 57.6252L61.4764 55.0967L60.7012 54.6356L59.1739 57.1641L58.5062 56.7567L60.1793 53.99L59.3812 53.5059L56.8945 57.6175L60.7089 59.9308L63.2416 55.75L62.3897 55.2274L60.6705 58.0709Z" fill="white"/>
<path d="M61.1684 48.3721L63.8085 49.1714L63.8008 49.1867L60.5621 50.401L60.1016 51.9458L64.3688 53.2292L64.7985 51.8151L62.1354 51.0159L62.1431 51.0005L65.4049 49.7939L65.873 48.2491L61.5982 46.958L61.1684 48.3721Z" fill="white"/>
<path d="M65.1345 40.3792C64.3286 40.3407 63.991 41.2092 63.7684 42.0699C63.5458 42.9384 63.446 43.8068 63.1007 43.7914C62.809 43.7761 62.74 43.3534 62.7553 43.0152C62.7783 42.531 62.9318 42.0238 63.3386 42.0699L63.4077 40.5021C62.4023 40.4637 61.9188 41.6549 61.865 42.8538C61.8113 43.9836 62.1337 45.3285 63.1084 45.3669C63.9296 45.4053 64.2519 44.5139 64.4745 43.6608C64.697 42.8 64.8045 41.9393 65.2036 41.9546C65.5336 41.97 65.641 42.4619 65.618 42.9384C65.5873 43.607 65.4031 44.0374 64.8736 44.0451L64.8045 45.6129C65.948 45.659 66.4546 44.4524 66.516 43.069C66.5774 41.7395 66.2704 40.4253 65.1422 40.3792H65.1345Z" fill="white"/>
<path d="M66.0186 36.3603L61.5977 36.999L61.8223 38.5584L66.2433 37.9196L66.0186 36.3603Z" fill="white"/>
<path d="M62.5357 34.8233C63.3109 34.5543 63.2878 33.609 63.1804 32.7329C63.0729 31.8491 62.858 31.0114 63.2341 30.8807C63.5488 30.7731 63.8251 31.1958 63.9786 31.6416C64.1935 32.2718 64.1781 32.7406 63.6946 32.9481L64.2011 34.4313C65.2833 34.0548 65.3063 32.7483 64.8612 31.4341C64.4314 30.1814 63.6639 29.067 62.5971 29.4359C61.8373 29.6972 61.8373 30.6271 61.9447 31.5109C62.0599 32.4024 62.2824 33.2478 61.9524 33.3554C61.6761 33.4476 61.4536 33.0787 61.3461 32.7636C61.1926 32.3102 61.1466 31.7799 61.538 31.6723L61.0314 30.1891C60.0798 30.5272 60.0644 31.8107 60.4558 32.9404C60.8242 34.0087 61.6147 35.1461 62.5357 34.8233Z" fill="white"/>
<path d="M20.9997 67.4321C20.6466 67.9009 20.7387 68.5695 21.2069 68.923C21.6751 69.2766 22.3428 69.1843 22.6958 68.7155C23.0488 68.2467 22.9567 67.5781 22.4886 67.2246C22.0204 66.8711 21.3527 66.9633 20.9997 67.4321Z" fill="white"/>
<path d="M12.2798 24.8478C12.6252 24.3713 12.5254 23.7027 12.0496 23.3568C11.5737 23.011 10.906 23.1109 10.5607 23.5874C10.2153 24.0639 10.3151 24.7325 10.7909 25.0784C11.2667 25.4242 11.9345 25.3243 12.2798 24.8478Z" fill="white"/>
<path d="M57.8065 25.0862C58.2824 25.432 58.9501 25.3321 59.2954 24.8556C59.6408 24.3791 59.541 23.7105 59.0652 23.3647C58.5894 23.0188 57.9217 23.1187 57.5763 23.5952C57.2309 24.0717 57.3307 24.7403 57.8065 25.0862Z" fill="white"/>
<path d="M37.6446 11.9669L36.7773 13.3195H38.8956V12.6662H38.059L38.5272 11.9746L38.059 11.2598H38.8802V10.6143H36.7773L37.6446 11.9669Z" fill="white"/>
<path d="M33.0691 12.6662L32.5472 12.6739V11.2598H33.0307V10.6143H31.2962V11.2598H31.7797V12.6739L31.2578 12.6662V13.3195H33.0691V12.6662Z" fill="white"/>
<path d="M35.5362 11.567H34.4387V10.5986H33.6328V13.3192H34.4387V12.2356H35.5362V13.3192H36.342V10.5986H35.5362V11.567Z" fill="white"/>
<path d="M34.6453 8.99255C34.6453 8.78505 34.7911 8.66209 35.006 8.66209C35.1979 8.66209 35.3437 8.80811 35.3437 8.99255V9.95322H36.8633V9.14626H35.9423V8.93876C35.9347 8.36236 35.666 7.89355 35.006 7.89355C34.4995 7.89355 34.1541 8.17791 34.0927 8.66209C34.085 8.76199 34.085 8.87727 34.085 8.97718V9.13857H33.1641V9.94553H34.653V8.98487L34.6453 8.99255Z" fill="white"/>
<path d="M35.003 13.957C34.7344 13.957 34.5195 14.1722 34.5195 14.4412C34.5195 14.7102 34.7344 14.9254 35.003 14.9254C35.2717 14.9254 35.4866 14.7102 35.4866 14.4412C35.4866 14.1722 35.2717 13.957 35.003 13.957Z" fill="white"/>
<path d="M42.4877 7.50171L43.2014 6.6179L39.034 7.23272L39.6941 3.1134L36.4169 5.77251L34.9127 1.82227L33.4084 5.77251L30.1313 3.10571L30.799 7.28652L26.6239 6.6179L27.353 7.50939C11.7194 10.9908 0 24.9781 0 41.6552C0 60.953 15.6719 76.6464 34.9434 76.6464C54.2148 76.6464 69.8867 60.953 69.8867 41.6552C69.8867 24.955 58.1443 10.9601 42.4954 7.49402L42.4877 7.50171ZM34.9894 6.64095C37.6295 6.64095 39.7785 8.79284 39.7785 11.4366C39.7785 14.0803 37.6295 16.2322 34.9894 16.2322C32.3493 16.2322 30.2003 14.0803 30.2003 11.4366C30.2003 8.79284 32.3493 6.64095 34.9894 6.64095ZM39.4024 17.5003C44.6136 18.461 49.2569 21.074 52.7642 24.786H50.5232V26.4614H48.4817V24.786H45.7034V27.0992H44.061C44.061 27.0992 44.0687 23.5717 44.0687 23.5409C44.0687 22.7494 43.424 22.1038 42.6335 22.1038C41.843 22.1038 41.1983 22.7494 41.1983 23.5409C41.1983 23.5794 41.206 42.2316 41.206 42.2316L38.3586 44.86V46.251C37.1077 46.4355 36.0639 47.2347 35.5343 48.3337V19.8597L36.486 17.093L39.7094 19.7137L39.4101 17.4926L39.4024 17.5003ZM40.7302 57.802C40.0164 58.0787 39.5099 58.7704 39.5099 59.5774C39.5099 60.6302 40.3618 61.491 41.4209 61.491H43.8231C44.8745 61.491 45.7341 60.6379 45.7341 59.5774C45.7341 58.7704 45.2276 58.0787 44.5138 57.802C47.7679 56.6646 50.1011 53.5751 50.1011 49.9323C50.1011 48.0494 48.7043 46.497 46.893 46.2357V44.8446L44.0457 42.2162V36.7366H45.6881V39.0499H48.4664V37.2976H50.5078V39.0499H53.2861V32.8632H50.5078V34.3619H48.4664V32.8632H46.1562V30.965H48.4664V29.4663H50.5078V30.965H53.2861V25.3547C57.1389 29.6969 59.4797 35.4071 59.4797 41.6552C59.4797 55.02 48.781 65.91 35.5113 66.2251V52.4146C36.2941 54.9277 38.2435 56.9336 40.7225 57.802H40.7302ZM37.0616 49.9323C37.0616 49.0331 37.7063 48.2953 38.5582 48.1416C38.6273 49.2022 39.5022 50.0476 40.5843 50.0476H44.6673C45.7495 50.0476 46.6244 49.2022 46.6935 48.1416C47.5377 48.2953 48.1824 49.0331 48.1824 49.9323C48.1824 53.3753 45.8185 55.4503 42.6258 56.2419C39.4331 55.4503 37.0616 53.3753 37.0616 49.9323ZM18.5116 31.7104C18.3811 31.8795 18.289 32.087 18.289 32.3176C18.289 32.479 18.3351 32.6327 18.4042 32.7633L12.0494 32.7787C12.3257 32.0563 12.6404 31.3569 12.9858 30.6729L18.5116 31.7104ZM14.5054 28.0522C15.2268 26.9763 16.025 25.9541 16.8999 25.0012C17.345 26.5613 18.3044 27.96 19.5784 28.9668C19.4019 29.0744 19.2561 29.2204 19.1716 29.4279C19.1179 29.5585 19.1026 29.6969 19.1102 29.8275L14.4977 28.0522H14.5054ZM12.226 36.2063C12.226 36.2063 15.2652 35.6376 18.573 35.0228C18.55 35.1919 18.55 35.3686 18.6191 35.5454C18.6651 35.6607 18.7342 35.7529 18.8109 35.8374L12.5636 38.2737C11.6887 38.804 11.4354 39.8799 11.942 40.6945C12.1876 41.0865 12.5713 41.3632 13.0241 41.4708C13.4769 41.5784 13.9451 41.5015 14.3365 41.2556L19.824 37.8587C19.8624 38.0277 19.9238 38.1891 20.0542 38.3275C20.1387 38.4197 20.2308 38.4812 20.3382 38.535L15.388 43.0616C14.7663 43.8763 14.9198 44.9676 15.6796 45.544C16.4471 46.1204 17.5369 45.9744 18.1125 45.2058L22.0497 39.9952C22.1418 40.1412 22.2569 40.2642 22.4181 40.3487C22.5025 40.3948 22.5946 40.4025 22.6867 40.4179C22.7097 40.4333 22.7251 40.4486 22.7404 40.464L19.9928 45.9974C19.7166 46.9504 20.2308 47.888 21.1287 48.1493C22.019 48.4029 22.9553 47.8803 23.2086 46.9888L24.7896 41.44C25.4727 41.6475 26.1941 41.7551 26.9385 41.7551C27.5448 41.7551 27.9439 41.7013 28.5119 41.5707C28.5119 42.5698 28.5042 43.5227 28.5042 43.615C28.3737 43.761 23.4695 49.0946 23.4695 49.0946C22.61 49.8016 22.2953 49.8401 21.735 49.279L21.5739 49.1176L20.0389 50.3166L20.2461 50.5241C20.8217 51.1005 21.3666 51.5001 22.1034 51.5693C21.0366 52.1303 20.131 52.6068 19.9698 52.6913C19.801 52.5222 19.0105 51.6999 18.596 51.2618C18.5346 50.1705 17.6367 49.3021 16.5315 49.3021C15.4263 49.3021 14.4516 50.232 14.4516 51.3848V51.4924L15.2498 52.2917V51.6615C15.2498 51.5231 15.3035 51.3925 15.4033 51.2926C15.6105 51.0851 15.9406 51.0851 16.1478 51.2926C16.1478 51.2926 16.7618 51.9612 17.1685 52.407L17.3297 52.5837C17.4448 52.7067 17.5292 52.7989 17.5292 52.7989L17.9897 53.2677H17.3911C16.9997 52.9372 16.5085 52.7682 15.9943 52.7835C15.4417 52.8066 14.9275 53.0448 14.5514 53.4522C14.2751 53.7519 14.1063 54.1131 14.0372 54.4974C11.7424 50.7546 10.4147 46.3586 10.4147 41.6629C10.4147 39.6878 10.6526 37.7741 11.0978 35.9373C11.4048 36.1986 11.7962 36.2986 12.249 36.214L12.226 36.2063ZM15.058 55.5964C15.058 55.4427 15.1194 55.2813 15.2345 55.1583C15.3573 55.0276 15.5184 54.9508 15.695 54.9431H17.1915C16.4471 55.1199 15.8024 55.6117 15.4494 56.3111C15.2652 56.0421 15.081 55.7424 15.058 55.6194V55.5964ZM16.9613 57.779C16.992 57.6407 17.0764 57.5254 17.1915 57.4562L20.3229 55.6809L21.1978 56.5878H21.1824L21.3973 56.7953L21.5585 56.9567H21.5662L22.6867 57.9788C22.8786 58.1786 22.8786 58.5091 22.679 58.7166C22.5793 58.8165 22.4488 58.8703 22.3106 58.8703H21.6813L22.4795 59.6696H22.5869C23.1395 59.6696 23.6614 59.4544 24.0528 59.0624C24.4442 58.6705 24.6591 58.1479 24.6591 57.5869C24.6591 56.4802 23.7919 55.581 22.7021 55.5195C22.4565 55.2736 22.1111 54.9277 21.9346 54.751C22.4334 54.4359 31.1213 48.9101 31.9272 48.4029C31.6585 51.4463 29.0338 55.0123 26.5625 57.1565C25.4343 58.2939 24.9968 59.5543 24.9968 60.6533C24.9968 61.6216 25.3345 62.4593 25.8334 62.9512C26.2708 63.3893 26.9309 63.5199 27.4835 63.274L27.8288 63.1203L27.5602 62.8513C27.1227 62.4132 26.9692 61.6447 26.9692 61.076C26.9692 59.9309 27.2609 59.3468 27.8135 58.7473C27.9286 58.8626 28.1742 59.1085 28.5196 59.4544C28.2893 60.0846 28.1742 60.7225 28.1742 61.3373C28.1742 62.5592 28.604 63.6659 29.3177 64.3807C29.4636 64.5267 31.0522 65.8409 31.7123 65.618L32.1881 65.4566L31.7813 65.1569C31.5511 64.9878 30.799 64.1117 30.5457 63.5814C30.3462 63.1587 30.2234 62.6438 30.2234 62.1058C30.2234 61.2374 30.5764 60.2229 31.3669 59.439C31.4053 59.3775 33.1398 55.0968 34.0301 53.0295C34.0301 53.0756 34.0301 53.4368 34.0301 53.4368C34.0301 53.921 34.0377 54.4051 34.0377 54.8739C34.0377 57.364 33.8842 59.5774 32.7944 60.6763C32.1114 61.3603 30.8527 61.7139 30.8527 61.7139L31.1827 62.0981C31.1827 62.0981 31.743 62.9435 32.5949 62.9743C32.7944 62.9743 32.9556 62.8436 33.1321 62.7591C33.1782 64.7111 33.5465 65.4797 34.1989 66.2098C27.66 66.0176 21.7504 63.2509 17.4602 58.8934L17.0227 58.1709C16.969 58.0864 16.946 57.9942 16.946 57.8943C16.946 57.8558 16.946 57.8174 16.9613 57.7713V57.779ZM30.1236 22.8646L30.7145 21.8579H28.274L28.5579 20.8127C28.5579 20.3054 28.1512 19.8981 27.6446 19.8981C27.5218 19.8981 27.4067 19.9212 27.2993 19.9673C27.3223 19.8751 27.33 19.7905 27.33 19.7213C27.33 19.3909 27.0613 19.1219 26.7313 19.1219C26.4013 19.1219 26.1327 19.3909 26.1327 19.7213C26.1327 19.7905 26.148 19.8751 26.1634 19.9673C26.0559 19.9212 25.9408 19.8981 25.818 19.8981C25.3115 19.8981 24.9047 20.3054 24.9047 20.8127L25.1887 21.8579H24.544C24.0989 21.8579 23.7305 22.173 23.6537 22.588C23.5233 22.5495 23.3774 22.5265 23.2316 22.5265C22.4027 22.5265 21.735 23.1951 21.735 24.0251C21.735 24.2864 21.8041 24.5247 21.9192 24.7399C22.1725 24.271 22.6714 23.9559 23.2393 23.9559C23.7535 23.9559 24.1986 24.2096 24.4673 24.6015C24.498 24.6476 24.5287 24.6937 24.5517 24.7399C24.6284 24.8859 24.6745 25.0473 24.6975 25.2087H21.666C20.8371 25.2087 20.1694 24.5323 20.1694 23.71V24.6784C20.1694 25.5084 20.8371 26.177 21.666 26.177H24.5363C24.2831 26.6381 23.7919 26.9455 23.2239 26.9455C23.1932 26.9455 23.1625 26.9455 23.1395 26.9455C23.4081 27.3375 23.8609 27.5911 24.3752 27.5911C25.0122 27.5911 25.5571 27.1915 25.772 26.6228H29.8319C30.6608 26.6228 31.3285 27.2914 31.3285 28.1214C31.3285 28.5057 31.3285 29.0513 30.9448 29.4586L30.5687 30.0197L28.013 33.9699C27.5449 34.6539 26.6162 34.8307 25.9331 34.3619C25.2501 33.8931 25.0736 32.9324 25.5341 32.2484C26.125 31.9179 26.3629 31.2339 26.2478 30.5192C26.1097 29.6354 25.3038 29.0283 24.4289 29.1205H23.9223C20.7143 29.1128 18.3197 26.9378 17.9897 23.8637C21.3743 20.6282 25.6722 18.3534 30.4536 17.4696L30.1006 19.6906L33.3624 17.0392L34.4598 19.8674V24.248L30.1006 22.8416L30.1236 22.8646ZM34.9434 74.5637C16.8232 74.5637 2.08755 59.8002 2.08755 41.6629C2.08755 25.616 13.6228 12.2205 28.8342 9.3385L29.2947 9.89952L25.3499 11.4058L29.2947 12.9198L26.6316 16.2015L30.8066 15.5329L30.6685 16.3936C18.596 18.4456 9.36325 28.9898 9.36325 41.6552C9.36325 55.7885 20.8448 67.2857 34.951 67.2857C49.0573 67.2857 60.5388 55.7885 60.5388 41.6552C60.5388 28.9975 51.3214 18.461 39.2566 16.4013L39.1415 15.5559L43.2091 16.2092L40.6534 12.8814L44.4908 11.4135L40.6074 9.83036L41.0141 9.33081C56.2409 12.1897 67.8068 25.5929 67.8068 41.6629C67.8068 59.8079 53.0636 74.5637 34.951 74.5637H34.9434Z" fill="white"/>
<path d="M91.6891 34.854C98.0132 34.854 101.643 31.5185 101.643 24.6248V9.1543H97.0615V24.9245C97.0615 29.236 95.5649 30.8038 92.0115 30.8038C88.0282 30.8038 87.0382 28.5597 87.0382 25.3703V9.1543H82.418V25.6777C82.418 30.5118 84.1218 34.854 91.6968 34.854H91.6891Z" fill="white"/>
<path d="M121.583 17.0162C121.583 20.1288 121.652 24.6247 121.829 27.1685C120.938 25.2549 112.059 9.14648 112.059 9.14648H106.188V34.4388H110.67V25.4086C110.67 22.3729 110.601 18.3996 110.455 16.2323C111.168 17.8847 120.225 34.4388 120.225 34.4388H126.058V9.15417H121.575V17.0239L121.583 17.0162Z" fill="white"/>
<path d="M136.12 9.1543H131.5V34.4466H136.12V9.1543Z" fill="white"/>
<path d="M151.684 23.6487C151.009 25.7852 150.617 27.1685 150.264 28.89H150.195C149.765 27.0532 149.236 25.3702 148.775 23.9484L144.117 9.14648H139.074L147.424 34.4388H152.758L161.147 9.14648H156.419L151.692 23.6487H151.684Z" fill="white"/>
<path d="M164.293 34.439H177.478V30.2812H168.959V23.4259H177.041V19.4526H168.959V13.2352H177.478V9.1543H164.293V34.439Z" fill="white"/>
<path d="M187.097 23.9863H187.273L193.95 34.4384H199.676L193.92 25.9307C193.313 25.07 192.638 24.0939 191.962 23.1563C195.585 22.5569 198.072 19.8593 198.072 16.1166C198.072 10.9444 194.656 9 189.361 9C186.59 9 184.349 9.03843 182.469 9.14602V34.4384H187.089V23.9863H187.097ZM187.097 13.0886C187.557 13.0117 188.233 12.9733 188.908 12.9733C191.824 12.9733 193.244 14.1722 193.244 16.6085C193.244 19.0447 191.54 20.4665 188.762 20.4665C188.048 20.4665 187.411 20.4281 187.089 20.3896V13.0809L187.097 13.0886Z" fill="white"/>
<path d="M207.886 30.6192C206.144 30.6192 204.225 30.2042 202.875 29.72L202.591 34.2543C204.087 34.6617 205.791 34.8538 207.495 34.8538C213.397 34.8538 216.981 31.3724 216.981 26.6075C216.981 18.6993 206.889 20.3901 206.889 15.8557C206.889 14.0574 208.239 12.7816 210.902 12.7816C212.361 12.7816 213.85 13.0429 215.2 13.4579L215.454 9.18488C214.034 8.92358 212.468 8.73145 211.117 8.73145C205.361 8.73145 201.984 11.844 201.984 16.3399C201.984 24.6554 212.046 22.4497 212.046 27.2838C212.046 29.6047 210.235 30.6192 207.886 30.6192Z" fill="white"/>
<path d="M225.339 9.1543H220.719V34.4466H225.339V9.1543Z" fill="white"/>
<path d="M234.717 34.439H239.337V13.312H245.561V9.1543H228.5V13.312H234.717V34.439Z" fill="white"/>
<path d="M262.937 30.2812H254.073V23.4259H262.492V19.4526H254.073V13.2352H262.937V9.1543H249.207V34.439H262.937V30.2812Z" fill="white"/>
<path d="M261.218 3.94348L259.238 0.646484L252.691 4.76581L254.334 7.50178L261.218 3.94348Z" fill="white"/>
<path d="M90.7013 49.3485C87.6007 49.3485 84.5307 49.4638 82.543 49.533V74.7484C84.6766 74.8253 86.956 74.9329 89.5808 74.9329C97.8081 74.9329 103.495 70.3986 103.495 61.7065C103.495 53.0144 98.5219 49.3408 90.7013 49.3408V49.3485ZM90.0719 70.7828C89.0972 70.7828 88.0918 70.706 87.4165 70.5984V53.5524C88.1993 53.4755 89.2507 53.4371 90.3713 53.4371C96.135 53.4371 98.2686 56.6572 98.2686 62.0907C98.2686 68.0853 94.8303 70.7828 90.0719 70.7828Z" fill="white"/>
<path d="M106.793 74.7866H120.523V70.6289H111.651V63.7736H120.07V59.8003H111.651V53.5828H120.523V49.502H106.793V74.7866Z" fill="white"/>
<path d="M151.356 70.3296C150.381 70.6293 149.337 70.7754 148.14 70.7754C143.013 70.7754 140.097 67.6244 140.097 62.2677C140.097 56.6113 143.688 53.4681 148.662 53.4681C151.018 53.4681 153.336 53.9522 155.354 54.7438L156.106 50.2095C153.934 49.5716 151.471 49.1182 148.961 49.1182C140.204 49.1182 134.816 54.7745 134.816 62.7212C134.816 70.6678 139.567 75.156 147.572 75.156C150.603 75.156 153.704 74.595 156.214 73.5805V61.5146H151.348V70.3219L151.356 70.3296Z" fill="white"/>
<path d="M161.379 74.7866H175.109V70.6289H166.245V63.7736H174.664V59.8003H166.245V53.5828H175.109V49.502H161.379V74.7866Z" fill="white"/>
<path d="M196.362 57.3639C196.362 60.4764 196.438 64.9723 196.623 67.5162C195.686 65.6102 186.346 49.4941 186.346 49.4941H180.16V74.7865H184.872V65.7562C184.872 62.7206 184.796 58.7472 184.65 56.58C185.402 58.2323 194.926 74.7865 194.926 74.7865H201.074V49.4941H196.362V57.3639Z" fill="white"/>
<path d="M206.129 74.7866H219.859V70.6289H210.987V63.7736H219.406V59.8003H210.987V53.5828H219.859V49.502H206.129V74.7866Z" fill="white"/>
<path d="M207.59 44.3296L214.474 47.8879L216.155 45.1135L209.647 40.9941L207.59 44.3296Z" fill="white"/>
<path d="M236.129 63.9962C235.415 66.1327 235.008 67.5161 234.632 69.2376H234.556C234.103 67.4008 233.542 65.7177 233.059 64.2882L228.155 49.4863H222.844L231.639 74.7787H237.249L246.083 49.4863H241.11L236.137 63.9885L236.129 63.9962Z" fill="white"/>
<path d="M263 53.5828V49.502H249.262V74.7866H263V70.6289H254.128V63.7736H262.547V59.8003H254.128V53.5828H263Z" fill="white"/>
</g>
<defs>
<clipPath id="clip0_5370_14744">
<rect width="263" height="76" fill="white" transform="translate(0 0.646484)"/>
</clipPath>
</defs>
</svg>
